SplineFontDB: 3.2
FontName: ATM241-Regular
FullName: ATM241-Regular
FamilyName: ATM 241
Weight: Book
Version: 1.001
ItalicAngle: -11
UnderlinePosition: -271
UnderlineWidth: 102
Ascent: 1600
Descent: 400
InvalidEm: 0
sfntRevision: 0x00010042
LayerCount: 2
Layer: 0 1 "Back" 1
Layer: 1 1 "Fore" 0
XUID: [1021 192 2086997156 6865]
StyleMap: 0x0040
FSType: 8
OS2Version: 3
OS2_WeightWidthSlopeOnly: 0
OS2_UseTypoMetrics: 0
CreationTime: 1537354804
ModificationTime: 1545823603
PfmFamily: 17
TTFWeight: 400
TTFWidth: 5
LineGap: 0
VLineGap: 0
Panose: 2 0 5 5 0 0 0 2 0 2
OS2TypoAscent: 2000
OS2TypoAOffset: 0
OS2TypoDescent: -1320
OS2TypoDOffset: 0
OS2TypoLinegap: 0
OS2WinAscent: 2000
OS2WinAOffset: 0
OS2WinDescent: 744
OS2WinDOffset: 0
HheadAscent: 2000
HheadAOffset: 0
HheadDescent: -1320
HheadDOffset: 0
OS2SubXSize: 1400
OS2SubYSize: 1300
OS2SubXOff: 0
OS2SubYOff: 0
OS2SupXSize: 1400
OS2SupYSize: 1300
OS2SupXOff: 0
OS2SupYOff: 0
OS2StrikeYSize: 100
OS2StrikeYPos: 518
OS2CapHeight: 1586
OS2XHeight: -200
OS2Vendor: '    '
OS2CodePages: 00000001.00000000
OS2UnicodeRanges: 00100003.00000000.00000000.00000000
Lookup: 4 0 0 "'akhn' Akhand in Tamil2 lookup 0" { "'akhn' Akhand in Tamil2 lookup 0 subtable"  } ['akhn' ('tml2' <'dflt' > ) ]
Lookup: 4 0 0 "'akhn' Akhand in Tamil lookup 1" { "'akhn' Akhand in Tamil lookup 1 subtable"  } ['akhn' ('taml' <'dflt' > ) ]
Lookup: 4 0 0 "'half' Half Forms in Tamil lookup 2" { "'half' Half Forms in Tamil lookup 2 subtable"  } ['half' ('taml' <'dflt' > ) ]
Lookup: 4 0 0 "'haln' Halant Forms in Tamil2 lookup 3" { "'haln' Halant Forms in Tamil2 lookup 3 subtable"  } ['haln' ('tml2' <'dflt' > ) ]
Lookup: 4 0 0 "'haln' Halant Forms in Tamil lookup 4" { "'haln' Halant Forms in Tamil lookup 4 subtable"  } ['haln' ('taml' <'dflt' > ) ]
Lookup: 4 0 0 "'abvs' Above Base Substitutions lookup 5" { "'abvs' Above Base Substitutions lookup 5 subtable"  } ['abvs' ('taml' <'dflt' > 'tml2' <'dflt' > ) ]

StartChar: exclam
Encoding: 33 33 4
Width: 394
GlyphClass: 2
Flags: W
LayerCount: 2
Fore
SplineSet
338 952 m 1,0,-1
 320 824 l 1,1,-1
 288 542 l 1,2,-1
 270 298 l 1,3,4
 252 172 252 172 208 172 c 0,5,6
 140 172 140 172 128 276 c 1,7,8
 128 314 128 314 126 394 c 128,-1,9
 124 474 124 474 124 516 c 2,10,-1
 100 900 l 1,11,12
 100 1086 100 1086 218 1086 c 0,13,14
 268 1086 268 1086 303 1043 c 128,-1,15
 338 1000 338 1000 338 952 c 1,0,-1
316 24 m 0,16,17
 316 -32 316 -32 284 -70 c 0,18,19
 254 -112 254 -112 204 -112 c 256,20,21
 154 -112 154 -112 115 -79 c 128,-1,22
 76 -46 76 -46 76 4 c 0,23,24
 76 56 76 56 112 92 c 1,25,26
 146 132 146 132 198 132 c 0,27,28
 238 132 238 132 277 97 c 128,-1,29
 316 62 316 62 316 24 c 0,16,17
EndSplineSet
EndChar

StartChar: quotedbl
Encoding: 34 34 5
Width: 606
GlyphClass: 2
Flags: W
LayerCount: 2
Fore
SplineSet
109 647 m 1,0,-1
 63 912 l 1,1,-1
 63 1140 l 1,2,-1
 257 1140 l 1,3,-1
 257 912 l 1,4,-1
 214 647 l 1,5,-1
 109 647 l 1,0,-1
423 647 m 1,6,-1
 378 912 l 1,7,-1
 378 1140 l 1,8,-1
 572 1140 l 1,9,-1
 572 912 l 1,10,-1
 527 647 l 1,11,-1
 423 647 l 1,6,-1
EndSplineSet
EndChar

StartChar: numbersign
Encoding: 35 35 6
Width: 1203
GlyphClass: 2
Flags: W
LayerCount: 2
Fore
SplineSet
179 22 m 1,0,-1
 264 356 l 1,1,-1
 103 356 l 1,2,-1
 103 473 l 1,3,-1
 288 473 l 1,4,-1
 358 761 l 1,5,-1
 103 761 l 1,6,-1
 103 876 l 1,7,-1
 386 876 l 1,8,-1
 471 1218 l 1,9,-1
 609 1218 l 1,10,-1
 526 876 l 1,11,-1
 817 876 l 1,12,-1
 903 1218 l 1,13,-1
 1041 1218 l 1,14,-1
 962 876 l 1,15,-1
 1124 876 l 1,16,-1
 1124 761 l 1,17,-1
 932 761 l 1,18,-1
 861 473 l 1,19,-1
 1124 473 l 1,20,-1
 1124 356 l 1,21,-1
 832 356 l 1,22,-1
 755 22 l 1,23,-1
 611 22 l 1,24,-1
 688 356 l 1,25,-1
 401 356 l 1,26,-1
 322 22 l 1,27,-1
 179 22 l 1,0,-1
435 473 m 1,28,-1
 724 473 l 1,29,-1
 792 761 l 1,30,-1
 501 761 l 1,31,-1
 435 473 l 1,28,-1
EndSplineSet
EndChar

StartChar: dollar.001
Encoding: 65539 -1 7
Width: 818
GlyphClass: 2
Flags: W
LayerCount: 2
Fore
SplineSet
744 96 m 0,0,1
 744 72 744 72 705 37 c 128,-1,2
 666 2 666 2 632 2 c 0,3,4
 568 2 568 2 406 238 c 1,5,6
 212 26 212 26 178 26 c 256,7,8
 144 26 144 26 111 51 c 128,-1,9
 78 76 78 76 78 116 c 0,10,11
 78 184 78 184 294 376 c 1,12,-1
 184 506 l 1,13,14
 98 616 98 616 94 644 c 1,15,16
 94 676 94 676 126 716 c 1,17,18
 160 752 160 752 196 752 c 0,19,20
 264 752 264 752 322 658 c 1,21,-1
 416 526 l 1,22,-1
 502 634 l 2,23,24
 574 728 574 728 628 728 c 0,25,26
 730 728 730 728 730 640 c 0,27,28
 730 598 730 598 641 509 c 128,-1,29
 552 420 552 420 538 384 c 1,30,-1
 662 218 l 1,31,32
 742 118 742 118 744 96 c 0,0,1
EndSplineSet
EndChar

StartChar: percent
Encoding: 37 37 8
Width: 758
GlyphClass: 2
Flags: W
LayerCount: 2
Fore
SplineSet
296 620 m 0,0,1
 296 572 296 572 266 543 c 128,-1,2
 236 514 236 514 184 514 c 0,3,4
 136 514 136 514 106 542 c 128,-1,5
 76 570 76 570 76 616 c 0,6,7
 76 666 76 666 106 698 c 128,-1,8
 136 730 136 730 184 730 c 0,9,10
 230 730 230 730 263 701 c 128,-1,11
 296 672 296 672 296 620 c 0,0,1
672 816 m 0,12,13
 672 768 672 768 450 314 c 1,14,-1
 312 6 l 2,15,16
 242 -146 242 -146 202 -146 c 0,17,18
 148 -146 148 -146 116 -108 c 0,19,20
 94 -76 94 -76 94 -48 c 0,21,22
 94 -30 94 -30 162 118 c 2,23,-1
 306 430 l 1,24,-1
 450 750 l 1,25,26
 522 900 522 900 580 900 c 0,27,28
 612 900 612 900 642 875 c 128,-1,29
 672 850 672 850 672 816 c 0,12,13
678 98 m 256,30,31
 678 56 678 56 650 16 c 1,32,33
 618 -16 618 -16 578 -16 c 0,34,35
 532 -16 532 -16 496 15 c 128,-1,36
 460 46 460 46 460 92 c 0,37,38
 460 136 460 136 495 173 c 128,-1,39
 530 210 530 210 574 210 c 256,40,41
 618 210 618 210 648 175 c 128,-1,42
 678 140 678 140 678 98 c 256,30,31
EndSplineSet
EndChar

StartChar: ampersand
Encoding: 38 38 9
Width: 916
GlyphClass: 2
Flags: W
LayerCount: 2
Fore
SplineSet
888 280 m 0,0,1
 888 264 888 264 882 248 c 128,-1,2
 876 232 876 232 846 206 c 2,3,-1
 786 160 l 1,4,5
 850 84 850 84 850 54 c 0,6,7
 850 36 850 36 821 13 c 128,-1,8
 792 -10 792 -10 762 -10 c 0,9,10
 730 -10 730 -10 690 18 c 1,11,-1
 640 64 l 1,12,13
 544 24 544 24 461 5 c 128,-1,14
 378 -14 378 -14 296 -14 c 0,15,16
 192 -14 192 -14 110 58 c 128,-1,17
 28 130 28 130 28 234 c 0,18,19
 28 312 28 312 76 372 c 0,20,21
 94 398 94 398 166 452 c 1,22,23
 212 494 212 494 214 522 c 1,24,-1
 196 572 l 2,25,26
 180 612 180 612 180 670 c 0,27,28
 180 756 180 756 251 821 c 128,-1,29
 322 886 322 886 428 886 c 0,30,31
 524 886 524 886 604 816 c 128,-1,32
 684 746 684 746 684 670 c 0,33,34
 684 610 684 610 648 569 c 128,-1,35
 612 528 612 528 560 528 c 0,36,37
 534 528 534 528 512 548 c 1,38,39
 488 564 488 564 488 596 c 1,40,-1
 496 636 l 1,41,-1
 506 672 l 1,42,43
 506 734 506 734 452 734 c 0,44,45
 416 734 416 734 383 703 c 128,-1,46
 350 672 350 672 350 638 c 0,47,48
 350 582 350 582 409 538 c 128,-1,49
 468 494 468 494 468 450 c 0,50,51
 468 424 468 424 404 394 c 1,52,-1
 284 346 l 1,53,54
 218 302 218 302 218 240 c 0,55,56
 218 214 218 214 246 184 c 1,57,58
 274 144 274 144 308 144 c 0,59,60
 390 144 390 144 532 202 c 1,61,62
 468 278 468 278 468 344 c 0,63,64
 468 372 468 372 490 394 c 128,-1,65
 512 416 512 416 542 416 c 0,66,67
 578 416 578 416 618 374 c 1,68,-1
 678 300 l 1,69,70
 698 310 698 310 715 321 c 128,-1,71
 732 332 732 332 752 348 c 0,72,73
 796 376 796 376 806 378 c 0,74,75
 840 378 840 378 864 348 c 128,-1,76
 888 318 888 318 888 280 c 0,0,1
EndSplineSet
EndChar

StartChar: quotesingle
Encoding: 39 39 10
Width: 368
GlyphClass: 2
Flags: W
LayerCount: 2
Fore
SplineSet
137 647 m 1,0,-1
 91 912 l 1,1,-1
 91 1140 l 1,2,-1
 285 1140 l 1,3,-1
 285 912 l 1,4,-1
 242 647 l 1,5,-1
 137 647 l 1,0,-1
EndSplineSet
EndChar

StartChar: parenleft
Encoding: 40 40 11
Width: 622
GlyphClass: 2
Flags: W
LayerCount: 2
Fore
SplineSet
544 1232 m 0,0,1
 544 1216 544 1216 468 1116 c 0,2,3
 424 1060 424 1060 388 1001 c 128,-1,4
 352 942 352 942 326 880 c 0,5,6
 288 784 288 784 269 682 c 128,-1,7
 250 580 250 580 250 462 c 0,8,9
 250 230 250 230 326 74 c 0,10,11
 370 -16 370 -16 464 -102 c 0,12,13
 540 -172 540 -172 540 -208 c 0,14,15
 540 -248 540 -248 517 -277 c 128,-1,16
 494 -306 494 -306 466 -306 c 0,17,18
 338 -306 338 -306 216 -106 c 0,19,20
 76 120 76 120 76 452 c 0,21,22
 76 758 76 758 203 1035 c 128,-1,23
 330 1312 330 1312 456 1312 c 0,24,25
 490 1312 490 1312 516 1284 c 1,26,27
 544 1262 544 1262 544 1232 c 0,0,1
EndSplineSet
EndChar

StartChar: parenright
Encoding: 41 41 12
Width: 622
GlyphClass: 2
Flags: W
LayerCount: 2
Fore
SplineSet
544 450 m 0,0,1
 544 124 544 124 404 -108 c 0,2,3
 280 -308 280 -308 152 -308 c 0,4,5
 124 -308 124 -308 102 -282 c 128,-1,6
 80 -256 80 -256 80 -210 c 0,7,8
 80 -172 80 -172 154 -104 c 0,9,10
 246 -22 246 -22 292 72 c 0,11,12
 368 224 368 224 368 460 c 0,13,14
 368 578 368 578 350 679 c 128,-1,15
 332 780 332 780 292 878 c 0,16,17
 268 938 268 938 233 996 c 128,-1,18
 198 1054 198 1054 150 1114 c 0,19,20
 80 1208 80 1208 76 1230 c 1,21,22
 76 1258 76 1258 102 1284 c 128,-1,23
 128 1310 128 1310 162 1310 c 0,24,25
 284 1310 284 1310 414 1030 c 128,-1,26
 544 750 544 750 544 450 c 0,0,1
EndSplineSet
EndChar

StartChar: asterisk
Encoding: 42 42 13
Width: 662
GlyphClass: 2
Flags: W
LayerCount: 2
Fore
SplineSet
460 890 m 1,0,-1
 574 794 l 1,1,-1
 434 684 l 1,2,-1
 332 802 l 1,3,-1
 240 680 l 1,4,-1
 90 786 l 1,5,-1
 204 892 l 1,6,-1
 54 940 l 1,7,-1
 118 1108 l 1,8,-1
 244 1046 l 1,9,-1
 244 1204 l 1,10,-1
 418 1204 l 1,11,-1
 418 1042 l 1,12,-1
 550 1098 l 1,13,-1
 606 934 l 1,14,-1
 460 890 l 1,0,-1
EndSplineSet
EndChar

StartChar: plus
Encoding: 43 43 14
Width: 944
GlyphClass: 2
Flags: W
LayerCount: 2
Fore
SplineSet
862 354 m 0,0,1
 862 270 862 270 782 270 c 2,2,-1
 544 270 l 1,3,-1
 544 100 l 2,4,5
 544 72 544 72 516 44 c 128,-1,6
 488 16 488 16 452 16 c 0,7,8
 420 16 420 16 391 48 c 128,-1,9
 362 80 362 80 362 106 c 2,10,-1
 362 276 l 1,11,-1
 174 276 l 2,12,13
 80 276 80 276 80 370 c 0,14,15
 80 456 80 456 156 456 c 2,16,-1
 358 456 l 1,17,-1
 358 642 l 2,18,19
 358 736 358 736 460 736 c 0,20,21
 546 736 546 736 546 648 c 2,22,-1
 546 450 l 1,23,-1
 770 450 l 2,24,25
 808 450 808 450 835 421 c 128,-1,26
 862 392 862 392 862 354 c 0,0,1
EndSplineSet
EndChar

StartChar: comma
Encoding: 44 44 15
Width: 526
GlyphClass: 2
Flags: W
LayerCount: 2
Fore
SplineSet
416 110 m 0,0,1
 416 36 416 36 355 -47 c 128,-1,2
 294 -130 294 -130 230 -130 c 0,3,4
 174 -130 174 -130 174 -84 c 0,5,6
 174 -52 174 -52 226 -2 c 1,7,-1
 184 -8 l 1,8,9
 136 -8 136 -8 96 26 c 1,10,11
 60 66 60 66 60 120 c 0,12,13
 60 194 60 194 112 242 c 128,-1,14
 164 290 164 290 236 290 c 0,15,16
 300 290 300 290 354 242 c 0,17,18
 416 192 416 192 416 110 c 0,0,1
EndSplineSet
EndChar

StartChar: hyphen
Encoding: 45 45 16
Width: 778
GlyphClass: 2
Flags: W
LayerCount: 2
Fore
SplineSet
684 438 m 0,0,1
 684 358 684 358 614 358 c 2,2,-1
 158 358 l 2,3,4
 76 358 76 358 76 450 c 0,5,6
 76 524 76 524 166 524 c 2,7,-1
 592 524 l 2,8,9
 684 524 684 524 684 438 c 0,0,1
EndSplineSet
EndChar

StartChar: period
Encoding: 46 46 17
Width: 460
GlyphClass: 2
Flags: W
LayerCount: 2
Fore
SplineSet
352 138 m 0,0,1
 352 80 352 80 306 40 c 128,-1,2
 260 0 260 0 196 0 c 0,3,4
 140 0 140 0 105 39 c 128,-1,5
 70 78 70 78 70 140 c 0,6,7
 70 200 70 200 111 242 c 128,-1,8
 152 284 152 284 212 284 c 0,9,10
 244 284 244 284 266 275 c 128,-1,11
 288 266 288 266 310 243 c 128,-1,12
 332 220 332 220 342 196 c 128,-1,13
 352 172 352 172 352 138 c 0,0,1
EndSplineSet
EndChar

StartChar: slash
Encoding: 47 47 18
Width: 696
GlyphClass: 2
Flags: W
LayerCount: 2
Fore
SplineSet
748 1044 m 0,0,1
 748 976 748 976 410 282 c 1,2,-1
 260 -40 l 2,3,4
 188 -202 188 -202 146 -202 c 0,5,6
 92 -202 92 -202 60 -164 c 0,7,8
 38 -136 38 -136 38 -104 c 256,9,10
 38 -72 38 -72 246 398 c 0,11,12
 282 480 282 480 348 630 c 0,13,14
 422 798 422 798 436 826 c 0,15,16
 584 1126 584 1126 654 1126 c 0,17,18
 688 1126 688 1126 718 1101 c 128,-1,19
 748 1076 748 1076 748 1044 c 0,0,1
EndSplineSet
EndChar

StartChar: zero
Encoding: 48 48 19
Width: 771
GlyphClass: 2
Flags: W
LayerCount: 2
Fore
SplineSet
709 365 m 0,0,1
 709 209 709 209 619 103 c 0,2,3
 522 -17 522 -17 346 -17 c 0,4,5
 220 -17 220 -17 141.5 85.5 c 128,-1,6
 63 188 63 188 63 334 c 0,7,8
 63 475 63 475 154 577.5 c 128,-1,9
 245 680 245 680 388 680 c 0,10,11
 513 680 513 680 611 582 c 128,-1,12
 709 484 709 484 709 365 c 0,0,1
547 365 m 0,13,14
 547 427 547 427 502 473 c 0,15,16
 479 496 479 496 454 507.5 c 128,-1,17
 429 519 429 519 395 519 c 0,18,19
 317 519 317 519 267 454 c 128,-1,20
 217 389 217 389 217 308 c 0,21,22
 217 243 217 243 260.5 192 c 128,-1,23
 304 141 304 141 369 141 c 0,24,25
 450 141 450 141 498.5 199.5 c 128,-1,26
 547 258 547 258 547 365 c 0,13,14
EndSplineSet
EndChar

StartChar: one
Encoding: 49 49 20
Width: 389
GlyphClass: 2
Flags: W
LayerCount: 2
Fore
SplineSet
313 80 m 2,0,1
 313 -2 313 -2 220 -2 c 0,2,3
 146 -2 146 -2 146 85 c 2,4,-1
 146 515 l 2,5,6
 146 557 146 557 103 579 c 1,7,8
 59 597 59 597 59 617 c 0,9,10
 59 686 59 686 121.5 732.5 c 128,-1,11
 184 779 184 779 236 779 c 0,12,13
 268 779 268 779 290.5 749.5 c 128,-1,14
 313 720 313 720 313 686 c 2,15,-1
 313 80 l 2,0,1
EndSplineSet
EndChar

StartChar: two
Encoding: 50 50 21
Width: 809
GlyphClass: 2
Flags: W
LayerCount: 2
Fore
SplineSet
747 612 m 0,0,1
 747 505 747 505 686 433 c 0,2,3
 667 412 667 412 553 325 c 1,4,5
 475 272 475 272 334 161 c 1,6,-1
 572 161 l 2,7,8
 606 161 606 161 640 134.5 c 128,-1,9
 674 108 674 108 674 72 c 0,10,11
 674 28 674 28 652.5 12 c 128,-1,12
 631 -4 631 -4 576 -4 c 2,13,-1
 262 -4 l 2,14,15
 215 -4 215 -4 167 21 c 1,16,17
 116 53 116 53 116 99 c 0,18,19
 116 179 116 179 228 277 c 1,20,-1
 427 429 l 1,21,-1
 524 505 l 2,22,23
 572 543 572 543 572 593 c 0,24,25
 572 695 572 695 437 695 c 0,26,27
 357 695 357 695 266 612.5 c 128,-1,28
 175 530 175 530 154 526 c 1,29,30
 120 526 120 526 91.5 550 c 128,-1,31
 63 574 63 574 59 602 c 1,32,33
 59 678 59 678 177.5 765.5 c 128,-1,34
 296 853 296 853 420 853 c 0,35,36
 545 853 545 853 646 782.5 c 128,-1,37
 747 712 747 712 747 612 c 0,0,1
EndSplineSet
EndChar

StartChar: three
Encoding: 51 51 22
Width: 693
GlyphClass: 2
Flags: W
LayerCount: 2
Fore
SplineSet
639 614 m 0,0,1
 639 542 639 542 567 485 c 0,2,3
 522 453 522 453 437 417 c 0,4,5
 367 388 367 388 367 380 c 0,6,7
 370 372 370 372 377.5 367 c 128,-1,8
 385 362 385 362 412 342 c 0,9,10
 471 300 471 300 500 272 c 0,11,12
 545 221 545 221 545 176 c 0,13,14
 545 65 545 65 461 22 c 0,15,16
 431 8 431 8 388.5 -1 c 128,-1,17
 346 -10 346 -10 284 -10 c 0,18,19
 146 -10 146 -10 146 72 c 0,20,21
 146 140 146 140 235 140 c 1,22,-1
 274 138 l 1,23,-1
 318 137 l 2,24,25
 403 137 403 137 403 176 c 0,26,27
 403 194 403 194 338 226 c 1,28,29
 239 268 239 268 218 283 c 0,30,31
 153 326 153 326 153 385 c 0,32,33
 153 425 153 425 236 472 c 1,34,-1
 390 542 l 2,35,36
 474 581 474 581 474 614 c 0,37,38
 474 646 474 646 424 677 c 128,-1,39
 374 708 374 708 312 718 c 1,40,41
 259 718 259 718 233 721 c 128,-1,42
 207 724 207 724 128.5 733.5 c 128,-1,43
 50 743 50 743 50 806 c 0,44,45
 50 845 50 845 80.5 867 c 128,-1,46
 111 889 111 889 158 889 c 0,47,48
 346 889 346 889 476 827 c 0,49,50
 639 750 639 750 639 614 c 0,0,1
EndSplineSet
EndChar

StartChar: four
Encoding: 52 52 23
Width: 902
GlyphClass: 2
Flags: W
LayerCount: 2
Fore
SplineSet
840 222 m 0,0,1
 840 161 840 161 769 137 c 0,2,3
 743 125 743 125 650 112 c 1,4,5
 650 42 650 42 631 9.5 c 128,-1,6
 612 -23 612 -23 555 -23 c 0,7,8
 503 -23 503 -23 481 8 c 1,9,10
 456 34 456 34 456 80 c 1,11,-1
 460 108 l 1,12,13
 399 99 399 99 355 99 c 0,14,15
 226 99 226 99 142.5 154 c 128,-1,16
 59 209 59 209 59 300 c 0,17,18
 59 382 59 382 232 566 c 0,19,20
 435 787 435 787 543 787 c 0,21,22
 597 787 597 787 621.5 730.5 c 128,-1,23
 646 674 646 674 646 614 c 2,24,-1
 646 270 l 1,25,26
 671 270 671 270 707 281 c 1,27,-1
 766 289 l 1,28,29
 840 289 840 289 840 222 c 0,0,1
477 245 m 1,30,-1
 477 578 l 1,31,32
 437 572 437 572 334 465 c 0,33,34
 226 351 226 351 226 293 c 0,35,36
 226 266 226 266 323 255 c 0,37,38
 350 255 350 255 373.5 255 c 128,-1,39
 397 255 397 255 477 245 c 1,30,-1
EndSplineSet
EndChar

StartChar: five
Encoding: 53 53 24
Width: 671
GlyphClass: 2
Flags: W
LayerCount: 2
Fore
SplineSet
671 743 m 0,0,1
 671 671 671 671 573 671 c 2,2,-1
 308 671 l 2,3,4
 234 671 234 671 215 657 c 0,5,6
 178 624 178 624 178 511 c 0,7,8
 178 430 178 430 182 398 c 1,9,10
 296 398 296 398 360.5 392 c 128,-1,11
 425 386 425 386 477 372 c 0,12,13
 654 333 654 333 654 199 c 0,14,15
 654 93 654 93 543 39 c 0,16,17
 461 0 461 0 325 0 c 0,18,19
 248 0 248 0 180 19 c 0,20,21
 77 46 77 46 77 106 c 0,22,23
 77 131 77 131 95 152 c 128,-1,24
 113 173 113 173 138 173 c 0,25,26
 162 173 162 173 229 153 c 0,27,28
 234 152 234 152 275.5 142.5 c 128,-1,29
 317 133 317 133 342 133 c 2,30,-1
 361 133 l 2,31,32
 387 133 387 133 407.5 134 c 128,-1,33
 428 135 428 135 450 139 c 0,34,35
 504 152 504 152 504 193 c 0,36,37
 504 243 504 243 425 265 c 0,38,39
 393 272 393 272 289 272 c 0,40,41
 131 272 131 272 89 310 c 0,42,43
 51 349 51 349 51 513 c 0,44,45
 51 726 51 726 85 758 c 0,46,47
 111 780 111 780 240 793.5 c 128,-1,48
 369 807 369 807 463 807 c 0,49,50
 568 807 568 807 594 803 c 0,51,52
 671 790 671 790 671 743 c 0,0,1
EndSplineSet
EndChar

StartChar: six
Encoding: 54 54 25
Width: 675
GlyphClass: 2
Flags: W
LayerCount: 2
Fore
SplineSet
616 256 m 0,0,1
 616 152 616 152 543.5 74 c 128,-1,2
 471 -4 471 -4 357 -4 c 0,3,4
 225 -4 225 -4 141.5 88 c 128,-1,5
 58 180 58 180 58 339 c 0,6,7
 58 403 58 403 76 487 c 0,8,9
 108 632 108 632 171 738 c 0,10,11
 323 1003 323 1003 429 1003 c 0,12,13
 460 1003 460 1003 485 980 c 0,14,15
 511 960 511 960 511 933 c 0,16,17
 511 886 511 886 477 857 c 0,18,19
 453 838 453 838 435 821 c 0,20,21
 405 794 405 794 399 787 c 0,22,23
 353 731 353 731 323 686.5 c 128,-1,24
 293 642 293 642 275 610 c 0,25,26
 213 493 213 493 213 357 c 0,27,28
 213 269 213 269 257 203 c 128,-1,29
 301 137 301 137 363 137 c 0,30,31
 403 137 403 137 433.5 165 c 128,-1,32
 464 193 464 193 464 235 c 0,33,34
 464 293 464 293 419 293 c 0,35,36
 405 293 405 293 388 285 c 2,37,-1
 367 278 l 1,38,39
 279 278 279 278 279 361 c 0,40,41
 279 401 279 401 315 435 c 1,42,43
 355 465 355 465 403 465 c 0,44,45
 485 465 485 465 552 405 c 1,46,47
 616 337 616 337 616 256 c 0,0,1
EndSplineSet
EndChar

StartChar: seven
Encoding: 55 55 26
Width: 722
GlyphClass: 2
Flags: W
LayerCount: 2
Fore
SplineSet
657 608 m 0,0,1
 657 529 657 529 586 437 c 0,2,3
 529 359 529 359 520 347 c 0,4,5
 495 314 495 314 446 256 c 2,6,-1
 305 78 l 1,7,8
 231 -2 231 -2 175 -2 c 0,9,10
 98 -2 98 -2 98 65 c 0,11,12
 98 103 98 103 150 161 c 2,13,-1
 258 275 l 1,14,15
 485 523 485 523 485 560 c 0,16,17
 485 572 485 572 467 585 c 1,18,-1
 437 596 l 1,19,20
 393 596 393 596 283 569.5 c 128,-1,21
 173 543 173 543 135 543 c 0,22,23
 112 543 112 543 81 563 c 1,24,25
 56 585 56 585 56 614 c 0,26,27
 56 674 56 674 128 708 c 0,28,29
 150 714 150 714 168 720 c 0,30,31
 215 732 215 732 283 742 c 0,32,33
 439 766 439 766 507 766 c 0,34,35
 563 766 563 766 610 714 c 128,-1,36
 657 662 657 662 657 608 c 0,0,1
EndSplineSet
EndChar

StartChar: eight
Encoding: 56 56 27
Width: 702
GlyphClass: 2
Flags: W
LayerCount: 2
Fore
SplineSet
642 630 m 0,0,1
 642 565 642 565 594 500 c 0,2,3
 567 464 567 464 507 417 c 0,4,5
 489 403 489 403 473 388 c 0,6,7
 467 385 467 385 460 375 c 1,8,-1
 491 347 l 2,9,10
 523 317 523 317 541 285 c 0,11,12
 570 238 570 238 570 179 c 0,13,14
 570 94 570 94 498 34 c 128,-1,15
 426 -26 426 -26 332 -26 c 0,16,17
 276 -26 276 -26 232.5 -15 c 128,-1,18
 189 -4 189 -4 150 22 c 0,19,20
 76 70 76 70 76 148 c 0,21,22
 76 255 76 255 186 349 c 1,23,-1
 387 495 l 2,24,25
 439 532 439 532 467.5 567.5 c 128,-1,26
 496 603 496 603 496 634 c 0,27,28
 496 686 496 686 457 714 c 1,29,30
 419 748 419 748 365 748 c 0,31,32
 309 748 309 748 266.5 721 c 128,-1,33
 224 694 224 694 224 644 c 0,34,35
 224 617 224 617 258 583 c 0,36,37
 293 552 293 552 296 525 c 0,38,39
 296 507 296 507 269.5 479 c 128,-1,40
 243 451 243 451 215 451 c 0,41,42
 152 451 152 451 104 503 c 1,43,44
 58 563 58 563 58 624 c 0,45,46
 58 742 58 742 148 826.5 c 128,-1,47
 238 911 238 911 359 911 c 0,48,49
 482 911 482 911 562 830.5 c 128,-1,50
 642 750 642 750 642 630 c 0,0,1
423 182 m 0,51,52
 423 220 423 220 337 289 c 1,53,54
 309 283 309 283 279 250 c 128,-1,55
 249 217 249 217 249 175 c 0,56,57
 249 116 249 116 333 116 c 0,58,59
 423 116 423 116 423 182 c 0,51,52
EndSplineSet
EndChar

StartChar: nine
Encoding: 57 57 28
Width: 845
GlyphClass: 2
Flags: W
LayerCount: 2
Fore
SplineSet
785 442 m 0,0,1
 785 256 785 256 659.5 115 c 128,-1,2
 534 -26 534 -26 337 -26 c 0,3,4
 142 -26 142 -26 142 63 c 0,5,6
 142 98 142 98 166 123 c 1,7,8
 195 146 195 146 227 146 c 0,9,10
 253 146 253 146 295 135 c 128,-1,11
 337 124 337 124 369 124 c 0,12,13
 482 124 482 124 561 237 c 0,14,15
 634 335 634 335 634 457 c 0,16,17
 634 565 634 565 581 636 c 0,18,19
 522 714 522 714 413 714 c 0,20,21
 332 714 332 714 269 660 c 128,-1,22
 206 606 206 606 206 527 c 0,23,24
 206 482 206 482 239.5 428.5 c 128,-1,25
 273 375 273 375 325 375 c 0,26,27
 339 375 339 375 385 415 c 0,28,29
 406 435 406 435 424 446 c 128,-1,30
 442 457 442 457 459 457 c 0,31,32
 489 457 489 457 514 431 c 1,33,34
 536 401 536 401 536 369 c 0,35,36
 536 305 536 305 467 260 c 0,37,38
 408 222 408 222 339 222 c 0,39,40
 227 222 227 222 143.5 312.5 c 128,-1,41
 60 403 60 403 60 507 c 0,42,43
 60 658 60 658 166.5 762 c 128,-1,44
 273 866 273 866 435 866 c 0,45,46
 585 866 585 866 690 730 c 0,47,48
 785 601 785 601 785 442 c 0,0,1
EndSplineSet
EndChar

StartChar: colon
Encoding: 58 58 29
Width: 418
GlyphClass: 2
Flags: W
LayerCount: 2
Fore
SplineSet
346 484 m 0,0,1
 346 430 346 430 304 387 c 128,-1,2
 262 344 262 344 202 344 c 0,3,4
 144 344 144 344 105 384 c 128,-1,5
 66 424 66 424 66 482 c 256,6,7
 66 540 66 540 106 583 c 128,-1,8
 146 626 146 626 206 626 c 0,9,10
 238 626 238 626 260 617 c 128,-1,11
 282 608 282 608 303 585 c 128,-1,12
 324 562 324 562 335 538 c 128,-1,13
 346 514 346 514 346 484 c 0,0,1
352 138 m 0,14,15
 352 80 352 80 306 40 c 128,-1,16
 260 0 260 0 196 0 c 0,17,18
 140 0 140 0 105 39 c 128,-1,19
 70 78 70 78 70 140 c 0,20,21
 70 200 70 200 111 242 c 128,-1,22
 152 284 152 284 212 284 c 0,23,24
 244 284 244 284 266 275 c 128,-1,25
 288 266 288 266 310 243 c 128,-1,26
 332 220 332 220 342 196 c 128,-1,27
 352 172 352 172 352 138 c 0,14,15
EndSplineSet
EndChar

StartChar: semicolon
Encoding: 59 59 30
Width: 484
GlyphClass: 2
Flags: W
LayerCount: 2
Fore
SplineSet
378 512 m 0,0,1
 378 450 378 450 326 403 c 128,-1,2
 274 356 274 356 220 356 c 0,3,4
 170 356 170 356 118 401 c 128,-1,5
 66 446 66 446 66 508 c 0,6,7
 66 566 66 566 112 616 c 1,8,9
 158 658 158 658 222 658 c 0,10,11
 260 658 260 658 284 649 c 128,-1,12
 308 640 308 640 332 616 c 0,13,14
 378 576 378 576 378 512 c 0,0,1
416 110 m 0,15,16
 416 36 416 36 355 -47 c 128,-1,17
 294 -130 294 -130 230 -130 c 0,18,19
 174 -130 174 -130 174 -84 c 0,20,21
 174 -52 174 -52 226 -2 c 1,22,-1
 184 -8 l 1,23,24
 136 -8 136 -8 96 26 c 1,25,26
 60 66 60 66 60 120 c 0,27,28
 60 194 60 194 112 242 c 128,-1,29
 164 290 164 290 236 290 c 0,30,31
 300 290 300 290 354 242 c 0,32,33
 416 192 416 192 416 110 c 0,15,16
EndSplineSet
EndChar

StartChar: less
Encoding: 60 60 31
Width: 1240
GlyphClass: 2
Flags: W
LayerCount: 2
Fore
SplineSet
993 0 m 1,0,-1
 4 471 l 1,1,-1
 4 589 l 1,2,-1
 993 1070 l 1,3,-1
 993 859 l 1,4,-1
 261 531 l 1,5,-1
 993 202 l 1,6,-1
 993 0 l 1,0,-1
EndSplineSet
EndChar

StartChar: equal
Encoding: 61 61 32
Width: 778
GlyphClass: 2
Flags: W
LayerCount: 2
Fore
SplineSet
684 520 m 0,0,1
 684 442 684 442 614 442 c 2,2,-1
 158 442 l 2,3,4
 76 442 76 442 76 534 c 0,5,6
 76 608 76 608 166 608 c 2,7,-1
 592 608 l 2,8,9
 684 608 684 608 684 520 c 0,0,1
696 214 m 0,10,11
 696 134 696 134 626 134 c 2,12,-1
 172 134 l 2,13,14
 88 134 88 134 88 226 c 0,15,16
 88 300 88 300 178 300 c 2,17,-1
 604 300 l 2,18,19
 696 300 696 300 696 214 c 0,10,11
EndSplineSet
EndChar

StartChar: greater
Encoding: 62 62 33
Width: 1306
GlyphClass: 2
Flags: W
LayerCount: 2
Fore
SplineSet
242 202 m 1,0,-1
 974 531 l 1,1,-1
 242 859 l 1,2,-1
 242 1070 l 1,3,-1
 1231 589 l 1,4,-1
 1231 471 l 1,5,-1
 242 0 l 1,6,-1
 242 202 l 1,0,-1
EndSplineSet
EndChar

StartChar: question
Encoding: 63 63 34
Width: 880
GlyphClass: 2
Flags: W
LayerCount: 2
Fore
SplineSet
800 754 m 256,0,1
 800 638 800 638 684 542 c 0,2,3
 656 518 656 518 474 414 c 0,4,5
 358 350 358 350 358 306 c 0,6,7
 358 218 358 218 452 218 c 0,8,9
 476 218 476 218 518 246 c 128,-1,10
 560 274 560 274 580 274 c 0,11,12
 618 274 618 274 652 251 c 128,-1,13
 686 228 686 228 686 188 c 0,14,15
 686 128 686 128 632 88 c 1,16,17
 574 52 574 52 496 52 c 0,18,19
 212 52 212 52 212 288 c 0,20,21
 212 392 212 392 312 468 c 1,22,-1
 498 582 l 2,23,24
 598 642 598 642 598 716 c 0,25,26
 598 848 598 848 460 848 c 0,27,28
 380 848 380 848 334 816 c 0,29,30
 330 814 330 814 316 798 c 0,31,32
 292 770 292 770 282 758 c 0,33,34
 252 728 252 728 216 728 c 0,35,36
 100 728 100 728 100 838 c 0,37,38
 100 912 100 912 210 978 c 0,39,40
 262 1008 262 1008 322 1025 c 128,-1,41
 382 1042 382 1042 438 1042 c 0,42,43
 580 1042 580 1042 688 954 c 1,44,45
 800 870 800 870 800 754 c 256,0,1
500 -92 m 0,46,47
 500 -202 500 -202 392 -202 c 0,48,49
 346 -202 346 -202 314 -171 c 128,-1,50
 282 -140 282 -140 282 -88 c 0,51,52
 282 -46 282 -46 315 -14 c 128,-1,53
 348 18 348 18 392 18 c 256,54,55
 436 18 436 18 468 -17 c 128,-1,56
 500 -52 500 -52 500 -92 c 0,46,47
EndSplineSet
EndChar

StartChar: at
Encoding: 64 64 35
Width: 1619
GlyphClass: 2
Flags: W
LayerCount: 2
Fore
SplineSet
877 71 m 0,0,1
 870 83 870 83 867 104 c 1,2,3
 849 87 849 87 827.5 71 c 128,-1,4
 806 55 806 55 783 41 c 0,5,6
 711 -2 711 -2 640 -2 c 0,7,8
 564 -2 564 -2 495 41 c 128,-1,9
 426 84 426 84 381 178 c 0,10,11
 336 269 336 269 336 371 c 0,12,13
 336 493 336 493 401 626 c 0,14,15
 467 758 467 758 568 824 c 0,16,17
 668 890 668 890 764 890 c 0,18,19
 843 890 843 890 903 851 c 0,20,21
 929 837 929 837 950.5 818.5 c 128,-1,22
 972 800 972 800 991 774 c 1,23,24
 996 798 996 798 1002 821.5 c 128,-1,25
 1008 845 1008 845 1013 865 c 1,26,-1
 1190 865 l 1,27,-1
 1073 320 l 1,28,-1
 1050 195 l 2,29,30
 1051 190 1051 190 1054 185.5 c 128,-1,31
 1057 181 1057 181 1062 176 c 2,32,-1
 1060 178 l 2,33,34
 1072 168 1072 168 1085 168 c 0,35,36
 1122 168 1122 168 1181 210 c 0,37,38
 1263 267 1263 267 1316 371 c 0,39,40
 1370 474 1370 474 1370 583 c 0,41,42
 1370 702 1370 702 1304 813 c 0,43,44
 1272 869 1272 869 1223.5 913 c 128,-1,45
 1175 957 1175 957 1112 991 c 0,46,47
 1048 1021 1048 1021 977.5 1040.5 c 128,-1,48
 907 1060 907 1060 829 1060 c 0,49,50
 648 1060 648 1060 503 976 c 0,51,52
 429 934 429 934 372.5 874 c 128,-1,53
 316 814 316 814 274 733 c 0,54,55
 191 570 191 570 191 402 c 0,56,57
 191 311 191 311 211 230.5 c 128,-1,58
 231 150 231 150 271 83.5 c 128,-1,59
 311 17 311 17 369 -34 c 128,-1,60
 427 -85 427 -85 504 -118 c 0,61,62
 582 -152 582 -152 668 -168 c 128,-1,63
 754 -184 754 -184 849 -184 c 0,64,65
 1050 -184 1050 -184 1181 -119 c 0,66,67
 1315 -54 1315 -54 1393 54 c 1,68,-1
 1574 54 l 1,69,70
 1519 -65 1519 -65 1421 -148 c 0,71,72
 1374 -188 1374 -188 1310.5 -223.5 c 128,-1,73
 1247 -259 1247 -259 1181 -285 c 0,74,75
 1152 -295 1152 -295 1113 -305.5 c 128,-1,76
 1074 -316 1074 -316 1031 -324 c 0,77,78
 993 -331 993 -331 951 -334.5 c 128,-1,79
 909 -338 909 -338 852 -338 c 0,80,81
 716 -338 716 -338 599 -312 c 128,-1,82
 482 -286 482 -286 387 -235.5 c 128,-1,83
 292 -185 292 -185 220.5 -110.5 c 128,-1,84
 149 -36 149 -36 104 61 c 0,85,86
 37 219 37 219 37 388 c 0,87,88
 37 488 37 488 57.5 580 c 128,-1,89
 78 672 78 672 117 760 c 0,90,91
 217 973 217 973 394 1091 c 0,92,93
 575 1210 575 1210 835 1210 c 0,94,95
 935 1210 935 1210 1022 1190.5 c 128,-1,96
 1109 1171 1109 1171 1191 1129 c 0,97,98
 1272 1090 1272 1090 1335.5 1029 c 128,-1,99
 1399 968 1399 968 1448 883 c 0,100,101
 1523 740 1523 740 1523 581 c 0,102,103
 1523 464 1523 464 1480.5 359 c 128,-1,104
 1438 254 1438 254 1358 163 c 0,105,106
 1285 85 1285 85 1202.5 41.5 c 128,-1,107
 1120 -2 1120 -2 1033 -2 c 2,108,-1
 1012 -2 l 1,109,-1
 977 0 l 2,110,111
 954 4 954 4 933 18 c 1,112,-1
 934 18 l 1,113,114
 917 27 917 27 903.5 40.5 c 128,-1,115
 890 54 890 54 877 71 c 0,0,1
521 360 m 0,116,117
 521 261 521 261 566 207 c 0,118,119
 610 154 610 154 667 154 c 0,120,121
 707 154 707 154 753.5 178.5 c 128,-1,122
 800 203 800 203 839 251 c 0,123,124
 859 274 859 274 876.5 305.5 c 128,-1,125
 894 337 894 337 907 376 c 0,126,127
 936 455 936 455 936 530 c 0,128,129
 936 627 936 627 889 682 c 0,130,131
 844 735 844 735 774 735 c 0,132,133
 751 735 751 735 730 729.5 c 128,-1,134
 709 724 709 724 690 711 c 0,135,136
 646 687 646 687 611 636 c 128,-1,137
 576 585 576 585 545 500 c 1,138,-1
 545 501 l 1,139,140
 521 427 521 427 521 360 c 0,116,117
EndSplineSet
EndChar

StartChar: bracketleft
Encoding: 91 91 36
Width: 426
GlyphClass: 2
Flags: W
LayerCount: 2
Fore
SplineSet
89 1496 m 1,0,-1
 404 1496 l 1,1,-1
 404 1328 l 1,2,-1
 252 1328 l 1,3,-1
 252 -81 l 1,4,-1
 404 -81 l 1,5,-1
 404 -259 l 1,6,-1
 89 -259 l 1,7,-1
 89 1496 l 1,0,-1
EndSplineSet
EndChar

StartChar: backslash
Encoding: 92 92 37
Width: 865
GlyphClass: 2
Flags: W
LayerCount: 2
Fore
SplineSet
184 1239 m 1,0,-1
 838 -119 l 1,1,-1
 674 -119 l 1,2,-1
 16 1239 l 1,3,-1
 184 1239 l 1,0,-1
EndSplineSet
EndChar

StartChar: bracketright
Encoding: 93 93 38
Width: 428
GlyphClass: 2
Flags: W
LayerCount: 2
Fore
SplineSet
331 -259 m 1,0,-1
 16 -259 l 1,1,-1
 16 -81 l 1,2,-1
 169 -81 l 1,3,-1
 169 1328 l 1,4,-1
 16 1328 l 1,5,-1
 16 1496 l 1,6,-1
 331 1496 l 1,7,-1
 331 -259 l 1,0,-1
EndSplineSet
EndChar

StartChar: asciicircum
Encoding: 94 94 39
Width: 719
GlyphClass: 2
Flags: W
LayerCount: 2
Fore
SplineSet
180 450 m 1,0,-1
 43 450 l 1,1,-1
 306 1234 l 1,2,-1
 414 1234 l 1,3,-1
 674 450 l 1,4,-1
 540 450 l 1,5,-1
 358 1032 l 1,6,-1
 180 450 l 1,0,-1
EndSplineSet
EndChar

StartChar: underscore
Encoding: 95 95 40
Width: 1192
GlyphClass: 2
Flags: W
LayerCount: 2
Fore
SplineSet
108 -333 m 1,0,-1
 108 -226 l 1,1,-1
 1083 -226 l 1,2,-1
 1083 -333 l 1,3,-1
 108 -333 l 1,0,-1
EndSplineSet
EndChar

StartChar: braceleft
Encoding: 123 123 41
Width: 623
GlyphClass: 2
Flags: W
LayerCount: 2
Fore
SplineSet
124 705 m 1,0,1
 178 705 178 705 213.5 737.5 c 128,-1,2
 249 770 249 770 260 823 c 1,3,-1
 260 820 l 1,4,-1
 265 921 l 2,5,6
 267 948 267 948 269 977.5 c 128,-1,7
 271 1007 271 1007 273 1034 c 0,8,9
 273 1111 273 1111 274 1164.5 c 128,-1,10
 275 1218 275 1218 277 1247 c 0,11,12
 279 1277 279 1277 284.5 1305.5 c 128,-1,13
 290 1334 290 1334 299 1358 c 0,14,15
 318 1407 318 1407 345 1437.5 c 128,-1,16
 372 1468 372 1468 420 1485 c 0,17,18
 460 1500 460 1500 518 1500 c 2,19,-1
 578 1500 l 1,20,-1
 578 1319 l 1,21,-1
 533 1319 l 2,22,23
 473 1319 473 1319 451 1287 c 1,24,-1
 452 1288 l 1,25,26
 432 1259 432 1259 432 1151 c 2,27,-1
 432 960 l 1,28,-1
 429 892 l 2,29,30
 429 867 429 867 423 851 c 0,31,32
 417 804 417 804 404.5 764.5 c 128,-1,33
 392 725 392 725 376 698 c 0,34,35
 363 678 363 678 342 655.5 c 128,-1,36
 321 633 321 633 297 613 c 1,37,38
 363 567 363 567 394 494 c 0,39,40
 412 449 412 449 422 376 c 128,-1,41
 432 303 432 303 432 203 c 2,42,-1
 434 -5 l 2,43,44
 437 -58 437 -58 454 -78 c 1,45,-1
 482 -93 l 1,46,47
 501 -97 501 -97 533 -97 c 2,48,-1
 578 -97 l 1,49,-1
 578 -275 l 1,50,-1
 518 -275 l 2,51,52
 442 -275 442 -275 409 -261 c 0,53,54
 363 -237 363 -237 324 -189 c 1,55,56
 298 -148 298 -148 281 -64 c 0,57,58
 277 -29 277 -29 275 31.5 c 128,-1,59
 273 92 273 92 273 177 c 0,60,61
 273 258 273 258 270 313.5 c 128,-1,62
 267 369 267 369 260 399 c 0,63,64
 248 454 248 454 220 485 c 1,65,66
 200 499 200 499 176.5 507 c 128,-1,67
 153 515 153 515 124 515 c 1,68,-1
 124 705 l 1,0,1
EndSplineSet
EndChar

StartChar: bar
Encoding: 124 124 42
Width: 313
GlyphClass: 2
Flags: W
LayerCount: 2
Fore
SplineSet
70 -259 m 1,0,-1
 70 1586 l 1,1,-1
 242 1586 l 1,2,-1
 239 -259 l 1,3,-1
 70 -259 l 1,0,-1
EndSplineSet
EndChar

StartChar: braceright
Encoding: 125 125 43
Width: 547
GlyphClass: 2
Flags: W
LayerCount: 2
Fore
SplineSet
489 517 m 1,0,1
 458 517 458 517 435 510 c 128,-1,2
 412 503 412 503 395 489 c 0,3,4
 379 472 379 472 368 451 c 128,-1,5
 357 430 357 430 351 401 c 0,6,7
 339 341 339 341 339 179 c 0,8,9
 339 11 339 11 330 -59 c 0,10,11
 316 -146 316 -146 289 -187 c 0,12,13
 270 -210 270 -210 248.5 -228.5 c 128,-1,14
 227 -247 227 -247 203 -259 c 0,15,16
 170 -273 170 -273 94 -273 c 2,17,-1
 33 -273 l 1,18,-1
 33 -95 l 1,19,-1
 79 -95 l 2,20,21
 96 -95 96 -95 108 -93.5 c 128,-1,22
 120 -92 120 -92 131 -90 c 2,23,-1
 158 -76 l 1,24,25
 176 -55 176 -55 179 -2 c 0,26,27
 179 49 179 49 180 101 c 128,-1,28
 181 153 181 153 181 205 c 0,29,30
 181 306 181 306 190 378.5 c 128,-1,31
 199 451 199 451 218 496 c 0,32,33
 252 572 252 572 315 615 c 1,34,35
 290 635 290 635 269 657.5 c 128,-1,36
 248 680 248 680 235 700 c 0,37,38
 219 726 219 726 207.5 767 c 128,-1,39
 196 808 196 808 188 853 c 0,40,41
 185 861 185 861 184.5 870.5 c 128,-1,42
 184 880 184 880 184 894 c 2,43,-1
 181 962 l 1,44,-1
 181 1153 l 2,45,46
 181 1261 181 1261 161 1290 c 1,47,-1
 162 1289 l 1,48,49
 140 1321 140 1321 79 1321 c 2,50,-1
 33 1321 l 1,51,-1
 33 1502 l 1,52,-1
 94 1502 l 2,53,54
 153 1502 153 1502 191 1487 c 0,55,56
 237 1470 237 1470 265.5 1439 c 128,-1,57
 294 1408 294 1408 311 1360 c 0,58,59
 321 1336 321 1336 326.5 1307.5 c 128,-1,60
 332 1279 332 1279 334 1249 c 0,61,62
 336 1220 336 1220 337.5 1166 c 128,-1,63
 339 1112 339 1112 339 1037 c 1,64,-1
 348 923 l 1,65,-1
 352 825 l 1,66,67
 364 773 364 773 399 740 c 128,-1,68
 434 707 434 707 489 707 c 1,69,-1
 489 517 l 1,0,1
EndSplineSet
EndChar

StartChar: asciitilde
Encoding: 126 126 44
Width: 1161
GlyphClass: 2
Flags: W
LayerCount: 2
Fore
SplineSet
1045 747 m 1,0,-1
 1086 747 l 1,1,2
 1082 571 1082 571 1014 469.5 c 128,-1,3
 946 368 946 368 850 368 c 0,4,5
 807 368 807 368 757.5 389 c 128,-1,6
 708 410 708 410 503 535 c 0,7,8
 356 620 356 620 294 620 c 0,9,10
 229 620 229 620 183.5 562 c 128,-1,11
 138 504 138 504 118 371 c 1,12,-1
 75 371 l 1,13,14
 83 557 83 557 148.5 654.5 c 128,-1,15
 214 752 214 752 302 752 c 0,16,17
 342 752 342 752 387 732 c 0,18,19
 484 691 484 691 642.5 592.5 c 128,-1,20
 801 494 801 494 867 494 c 0,21,22
 936 494 936 494 985 559.5 c 128,-1,23
 1034 625 1034 625 1045 747 c 1,0,-1
EndSplineSet
EndChar

StartChar: cent
Encoding: 162 162 45
Width: 721
GlyphClass: 2
Flags: W
LayerCount: 2
Fore
SplineSet
598 156 m 1,0,1
 537 71 537 71 467 31 c 128,-1,2
 397 -9 397 -9 304 -17 c 1,3,-1
 228 -265 l 1,4,-1
 187 -265 l 1,5,-1
 262 -17 l 1,6,7
 177 -8 177 -8 128.5 47 c 128,-1,8
 80 102 80 102 80 188 c 0,9,10
 80 345 80 345 191.5 478.5 c 128,-1,11
 303 612 303 612 457 638 c 1,12,-1
 541 917 l 1,13,-1
 580 917 l 1,14,-1
 499 638 l 1,15,16
 580 638 580 638 616.5 607 c 128,-1,17
 653 576 653 576 653 523 c 0,18,19
 653 482 653 482 631.5 455.5 c 128,-1,20
 610 429 610 429 580 429 c 0,21,22
 557 429 557 429 544 442 c 128,-1,23
 531 455 531 455 531 476 c 0,24,25
 531 491 531 491 536 502 c 128,-1,26
 541 513 541 513 560.5 534.5 c 128,-1,27
 580 556 580 556 580 570 c 0,28,29
 580 578 580 578 575 585 c 0,30,31
 565 596 565 596 549.5 601 c 128,-1,32
 534 606 534 606 489 606 c 1,33,-1
 322 49 l 1,34,-1
 352 47 l 1,35,36
 470 47 470 47 580 173 c 1,37,-1
 598 156 l 1,0,1
284 57 m 1,38,-1
 445 598 l 1,39,40
 383 570 383 570 342 533 c 0,41,42
 274 467 274 467 237 380.5 c 128,-1,43
 200 294 200 294 200 205 c 0,44,45
 200 146 200 146 224 108 c 0,46,47
 243 81 243 81 284 57 c 1,38,-1
EndSplineSet
EndChar

StartChar: multiply
Encoding: 215 215 46
Width: 975
GlyphClass: 2
Flags: W
LayerCount: 2
Fore
SplineSet
267 230 m 1,0,-1
 515 479 l 1,1,-1
 267 728 l 1,2,-1
 308 768 l 1,3,-1
 556 520 l 1,4,-1
 805 768 l 1,5,-1
 844 728 l 1,6,-1
 595 480 l 1,7,-1
 845 230 l 1,8,-1
 805 190 l 1,9,-1
 555 439 l 1,10,-1
 307 190 l 1,11,-1
 267 230 l 1,0,-1
EndSplineSet
EndChar

StartChar: divide
Encoding: 247 247 47
Width: 864
GlyphClass: 2
Flags: W
LayerCount: 2
Fore
SplineSet
518 650 m 0,0,1
 518 612 518 612 491 586 c 128,-1,2
 464 560 464 560 426 560 c 256,3,4
 388 560 388 560 360 586 c 128,-1,5
 332 612 332 612 332 650 c 0,6,7
 332 686 332 686 360 713 c 128,-1,8
 388 740 388 740 426 740 c 256,9,10
 464 740 464 740 491 713 c 128,-1,11
 518 686 518 686 518 650 c 0,0,1
864 430 m 0,12,13
 864 384 864 384 816 384 c 2,14,-1
 52 384 l 2,15,16
 -4 384 -4 384 -4 426 c 0,17,18
 -4 484 -4 484 54 484 c 2,19,-1
 806 482 l 2,20,21
 864 482 864 482 864 430 c 0,12,13
526 222 m 0,22,23
 526 184 526 184 497 155 c 128,-1,24
 468 126 468 126 428 126 c 256,25,26
 388 126 388 126 358 155 c 128,-1,27
 328 184 328 184 328 222 c 0,28,29
 328 262 328 262 358 291 c 128,-1,30
 388 320 388 320 428 320 c 256,31,32
 468 320 468 320 497 291 c 128,-1,33
 526 262 526 262 526 222 c 0,22,23
EndSplineSet
EndChar

StartChar: tm_visarga
Encoding: 2947 2947 48
Width: 992
GlyphClass: 2
Flags: W
LayerCount: 2
Fore
SplineSet
720 656 m 0,0,1
 720 580 720 580 662 531 c 128,-1,2
 604 482 604 482 536 482 c 0,3,4
 472 482 472 482 417 541 c 128,-1,5
 362 600 362 600 362 660 c 0,6,7
 362 734 362 734 424 785 c 128,-1,8
 486 836 486 836 554 836 c 0,9,10
 634 836 634 836 684 774 c 1,11,12
 720 722 720 722 720 656 c 0,0,1
392 178 m 0,13,14
 392 102 392 102 330 49 c 128,-1,15
 268 -4 268 -4 202 -4 c 0,16,17
 132 -4 132 -4 78 48 c 128,-1,18
 24 100 24 100 24 168 c 0,19,20
 24 250 24 250 86 306 c 0,21,22
 112 326 112 326 144 338 c 128,-1,23
 176 350 176 350 214 350 c 0,24,25
 280 350 280 350 336 300 c 128,-1,26
 392 250 392 250 392 178 c 0,13,14
962 168 m 0,27,28
 962 66 962 66 892 16 c 0,29,30
 838 -24 838 -24 756 -24 c 0,31,32
 574 -24 574 -24 574 162 c 0,33,34
 574 344 574 344 798 344 c 0,35,36
 860 344 860 344 912 284 c 0,37,38
 962 232 962 232 962 168 c 0,27,28
588 660 m 0,39,40
 588 710 588 710 546 710 c 0,41,42
 496 710 496 710 496 666 c 0,43,44
 496 620 496 620 544 620 c 0,45,46
 588 620 588 620 588 660 c 0,39,40
262 176 m 0,47,48
 262 220 262 220 212 220 c 0,49,50
 164 220 164 220 164 168 c 0,51,52
 164 126 164 126 216 126 c 0,53,54
 262 126 262 126 262 176 c 0,47,48
810 162 m 256,55,56
 810 212 810 212 754 212 c 0,57,58
 706 212 706 212 706 156 c 0,59,60
 706 112 706 112 764 112 c 0,61,62
 810 112 810 112 810 162 c 256,55,56
EndSplineSet
EndChar

StartChar: tm_a
Encoding: 2949 2949 49
Width: 1400
GlyphClass: 2
Flags: W
LayerCount: 2
Fore
SplineSet
1334 796 m 1,0,-1
 1284 72 l 2,1,2
 1284 22 1284 22 1260 4 c 0,3,4
 1244 -4 1244 -4 1202 -4 c 0,5,6
 1154 -4 1154 -4 1134 12 c 128,-1,7
 1114 28 1114 28 1114 84 c 2,8,-1
 1114 272 l 1,9,-1
 878 272 l 1,10,11
 812 188 812 188 712 120 c 1,12,13
 556 22 556 22 380 22 c 0,14,15
 236 22 236 22 131 92 c 128,-1,16
 26 162 26 162 26 272 c 0,17,18
 26 426 26 426 218 426 c 2,19,-1
 782 426 l 1,20,21
 878 564 878 564 878 788 c 0,22,23
 878 946 878 946 798 1082 c 1,24,25
 680 1266 680 1266 428 1266 c 0,26,27
 322 1266 322 1266 252 1158 c 1,28,-1
 220 1074 l 2,29,30
 206 1040 206 1040 120 1040 c 0,31,32
 78 1040 78 1040 50 1066 c 1,33,34
 28 1094 28 1094 26 1110 c 0,35,36
 26 1196 26 1196 96 1276 c 0,37,38
 140 1322 140 1322 175 1349 c 128,-1,39
 210 1376 210 1376 252 1394 c 0,40,41
 312 1420 312 1420 410 1420 c 0,42,43
 700 1420 700 1420 864 1264 c 0,44,45
 1050 1090 1050 1090 1050 742 c 0,46,47
 1050 606 1050 606 1016 532 c 2,48,-1
 968 416 l 1,49,-1
 1134 416 l 1,50,-1
 1152 776 l 1,51,52
 1152 862 1152 862 1254 862 c 0,53,54
 1334 862 1334 862 1334 796 c 1,0,-1
638 282 m 1,55,-1
 290 282 l 2,56,57
 220 282 220 282 202 277 c 128,-1,58
 184 272 184 272 184 252 c 0,59,60
 184 230 184 230 252 204 c 0,61,62
 324 180 324 180 398 180 c 0,63,64
 530 180 530 180 638 282 c 1,55,-1
EndSplineSet
EndChar

StartChar: tm_aa
Encoding: 2950 2950 50
Width: 1668
GlyphClass: 2
Flags: W
LayerCount: 2
Fore
SplineSet
1342 806 m 1,0,-1
 1316 510 l 2,1,2
 1316 468 1316 468 1308 322 c 128,-1,3
 1300 176 1300 176 1300 72 c 0,4,5
 1300 -2 1300 -2 1202 -2 c 0,6,7
 1162 -2 1162 -2 1150 10 c 0,8,9
 1126 26 1126 26 1126 82 c 2,10,-1
 1126 272 l 1,11,-1
 884 272 l 1,12,13
 832 184 832 184 722 116 c 0,14,15
 570 16 570 16 392 16 c 0,16,17
 246 16 246 16 136 84 c 128,-1,18
 26 152 26 152 26 262 c 0,19,20
 26 318 26 318 74 366 c 0,21,22
 132 420 132 420 242 420 c 2,23,-1
 782 420 l 1,24,25
 816 460 816 460 847 561 c 128,-1,26
 878 662 878 662 878 784 c 0,27,28
 878 952 878 952 798 1084 c 0,29,30
 682 1266 682 1266 428 1266 c 0,31,32
 324 1266 324 1266 250 1154 c 1,33,34
 242 1132 242 1132 228 1107 c 128,-1,35
 214 1082 214 1082 206 1068 c 0,36,37
 182 1028 182 1028 118 1028 c 0,38,39
 78 1028 78 1028 48 1060 c 0,40,41
 30 1084 30 1084 26 1106 c 1,42,43
 26 1190 26 1190 101 1273 c 128,-1,44
 176 1356 176 1356 252 1390 c 0,45,46
 284 1404 284 1404 321 1411 c 128,-1,47
 358 1418 358 1418 412 1418 c 0,48,49
 700 1418 700 1418 864 1262 c 0,50,51
 1052 1086 1052 1086 1052 738 c 0,52,53
 1052 604 1052 604 1016 520 c 1,54,-1
 966 418 l 1,55,-1
 1144 418 l 1,56,-1
 1156 772 l 2,57,58
 1156 864 1156 864 1260 864 c 0,59,60
 1342 864 1342 864 1342 806 c 1,0,-1
1638 -36 m 0,61,62
 1638 -180 1638 -180 1520 -303 c 128,-1,63
 1402 -426 1402 -426 1254 -426 c 0,64,65
 1172 -426 1172 -426 1084 -394 c 0,66,67
 980 -354 980 -354 980 -296 c 0,68,69
 980 -208 980 -208 1070 -208 c 0,70,71
 1082 -208 1082 -208 1122 -234 c 0,72,73
 1134 -242 1134 -242 1161 -251 c 128,-1,74
 1188 -260 1188 -260 1230 -260 c 0,75,76
 1322 -260 1322 -260 1397 -182 c 128,-1,77
 1472 -104 1472 -104 1472 -12 c 0,78,79
 1472 44 1472 44 1410 89 c 128,-1,80
 1348 134 1348 134 1344 150 c 1,81,82
 1344 248 1344 248 1430 248 c 0,83,84
 1518 248 1518 248 1578 165 c 128,-1,85
 1638 82 1638 82 1638 -36 c 0,61,62
644 272 m 1,86,-1
 296 272 l 1,87,-1
 214 272 l 2,88,89
 192 270 192 270 188 250 c 1,90,91
 188 226 188 226 260 196 c 0,92,93
 302 180 302 180 335 173 c 128,-1,94
 368 166 368 166 404 166 c 0,95,96
 468 166 468 166 546 204 c 0,97,98
 606 234 606 234 644 272 c 1,86,-1
EndSplineSet
EndChar

StartChar: tm_i
Encoding: 2951 2951 51
Width: 1242
GlyphClass: 2
Flags: W
LayerCount: 2
Fore
SplineSet
1328 1022 m 0,0,1
 1328 950 1328 950 1232 950 c 0,2,3
 1188 950 1188 950 1152 1000 c 0,4,5
 1124 1044 1124 1044 1106 1068 c 128,-1,6
 1088 1092 1088 1092 1076 1106 c 0,7,8
 1012 1168 1012 1168 897 1217 c 128,-1,9
 782 1266 782 1266 692 1266 c 0,10,11
 554 1266 554 1266 406 1146 c 0,12,13
 226 998 226 998 226 772 c 0,14,15
 226 676 226 676 260 598 c 0,16,17
 284 552 284 552 324 510 c 0,18,19
 358 476 358 476 358 464 c 0,20,21
 358 372 358 372 284 372 c 0,22,23
 190 372 190 372 124 496 c 0,24,25
 66 612 66 612 66 768 c 0,26,27
 66 1054 66 1054 262 1248 c 1,28,29
 448 1424 448 1424 688 1424 c 0,30,31
 880 1424 880 1424 1036 1340 c 0,32,33
 1160 1270 1160 1270 1244 1176 c 128,-1,34
 1328 1082 1328 1082 1328 1022 c 0,0,1
1174 132 m 0,35,36
 1174 54 1174 54 1068 4 c 0,37,38
 986 -34 986 -34 932 -34 c 0,39,40
 808 -34 808 -34 624 74 c 1,41,-1
 526 38 l 1,42,43
 442 14 442 14 302 14 c 0,44,45
 248 14 248 14 194 48 c 128,-1,46
 140 82 140 82 140 120 c 0,47,48
 140 226 140 226 311 314 c 128,-1,49
 482 402 482 402 684 402 c 1,50,-1
 766 396 l 1,51,52
 790 436 790 436 811 475 c 128,-1,53
 832 514 832 514 840 532 c 0,54,55
 852 570 852 570 858 608 c 128,-1,56
 864 646 864 646 864 704 c 0,57,58
 864 946 864 946 696 946 c 0,59,60
 654 946 654 946 624 914 c 0,61,62
 606 892 606 892 604 866 c 0,63,64
 604 826 604 826 566 802 c 0,65,66
 538 784 538 784 502 784 c 0,67,68
 464 784 464 784 445 809 c 128,-1,69
 426 834 426 834 422 870 c 1,70,71
 422 948 422 948 496 1026 c 0,72,73
 578 1110 578 1110 698 1110 c 0,74,75
 858 1110 858 1110 950 996 c 128,-1,76
 1042 882 1042 882 1042 698 c 0,77,78
 1042 564 1042 564 928 366 c 1,79,80
 1006 348 1006 348 1084 286 c 0,81,82
 1174 214 1174 214 1174 132 c 0,35,36
652 258 m 1,83,84
 620 258 620 258 583 252 c 128,-1,85
 546 246 546 246 490 228 c 1,86,87
 378 202 378 202 374 172 c 0,88,89
 374 150 374 150 408 150 c 0,90,91
 456 150 456 150 540 186 c 0,92,93
 586 206 586 206 611 222 c 128,-1,94
 636 238 636 238 652 258 c 1,83,84
968 154 m 0,95,96
 968 186 968 186 926 216 c 1,97,-1
 864 252 l 1,98,-1
 760 150 l 1,99,100
 846 96 846 96 914 96 c 0,101,102
 932 96 932 96 950 115 c 128,-1,103
 968 134 968 134 968 154 c 0,95,96
EndSplineSet
EndChar

StartChar: tm_ii
Encoding: 2952 2952 52
Width: 932
GlyphClass: 2
Flags: W
LayerCount: 2
Fore
SplineSet
712 52 m 2,0,1
 712 22 712 22 688 3 c 128,-1,2
 664 -16 664 -16 638 -16 c 0,3,4
 606 -16 606 -16 571 13 c 128,-1,5
 536 42 536 42 536 64 c 2,6,-1
 536 258 l 1,7,-1
 536 290 l 1,8,-1
 536 316 l 2,9,10
 536 352 536 352 536 388 c 0,11,12
 532 424 532 424 532 434 c 0,13,14
 532 570 532 570 482 580 c 1,15,16
 308 534 308 534 232 236 c 1,17,-1
 204 62 l 1,18,19
 184 -14 184 -14 130 -14 c 0,20,21
 100 -14 100 -14 64 13 c 128,-1,22
 28 40 28 40 26 70 c 0,23,24
 26 162 26 162 88 336 c 1,25,26
 170 544 170 544 290 650 c 0,27,28
 390 740 390 740 558 740 c 0,29,30
 684 740 684 740 684 422 c 0,31,32
 684 360 684 360 686 308 c 128,-1,33
 688 256 688 256 696 188 c 2,34,-1
 712 52 l 2,0,1
916 314 m 0,35,36
 916 272 916 272 888 246 c 0,37,38
 860 216 860 216 818 216 c 0,39,40
 730 216 730 216 730 310 c 0,41,42
 730 352 730 352 758 380 c 1,43,44
 790 406 790 406 828 406 c 0,45,46
 916 406 916 406 916 314 c 0,35,36
484 280 m 0,47,48
 484 190 484 190 410 190 c 0,49,50
 316 190 316 190 316 284 c 0,51,52
 316 374 316 374 408 374 c 0,53,54
 484 374 484 374 484 280 c 0,47,48
EndSplineSet
EndChar

StartChar: tm_u
Encoding: 2953 2953 53
Width: 1486
GlyphClass: 2
Flags: W
LayerCount: 2
Fore
SplineSet
1474 86 m 0,0,1
 1474 -6 1474 -6 1390 -6 c 2,2,-1
 704 -6 l 1,3,-1
 526 -12 l 1,4,-1
 362 -16 l 2,5,6
 198 -16 198 -16 120 16 c 0,7,8
 24 58 24 58 24 160 c 0,9,10
 24 242 24 242 90 284 c 1,11,-1
 240 354 l 1,12,13
 408 418 408 418 490 450 c 0,14,15
 542 470 542 470 642 512 c 1,16,17
 870 622 870 622 870 816 c 0,18,19
 870 924 870 924 802 1010 c 1,20,21
 704 1124 704 1124 502 1124 c 0,22,23
 382 1124 382 1124 305 1073 c 128,-1,24
 228 1022 228 1022 228 956 c 0,25,26
 228 900 228 900 182 872 c 0,27,28
 148 850 148 850 114 850 c 0,29,30
 44 850 44 850 44 940 c 0,31,32
 44 1070 44 1070 182 1173 c 128,-1,33
 320 1276 320 1276 484 1276 c 0,34,35
 742 1276 742 1276 896 1144 c 0,36,37
 1038 1018 1038 1018 1038 830 c 0,38,39
 1038 488 1038 488 650 350 c 1,40,-1
 374 258 l 1,41,42
 240 208 240 208 240 166 c 0,43,44
 240 138 240 138 326 138 c 1,45,46
 290 138 290 138 283 138 c 128,-1,47
 276 138 276 138 268 140 c 1,48,49
 304 140 304 140 343 140 c 128,-1,50
 382 140 382 140 434 142 c 2,51,-1
 484 142 l 2,52,53
 550 142 550 142 702 150 c 128,-1,54
 854 158 854 158 942 158 c 0,55,56
 1040 158 1040 158 1189 167 c 128,-1,57
 1338 176 1338 176 1374 176 c 0,58,59
 1420 176 1420 176 1448 150 c 1,60,61
 1474 120 1474 120 1474 86 c 0,0,1
EndSplineSet
EndChar

StartChar: tm_uu
Encoding: 2954 2954 54
Width: 2042
GlyphClass: 2
Flags: W
LayerCount: 2
Fore
SplineSet
2028 92 m 0,0,1
 2028 36 2028 36 2018 20 c 0,2,3
 2000 -4 2000 -4 1938 -4 c 2,4,-1
 1684 0 l 1,5,-1
 1384 6 l 2,6,7
 1372 6 1372 6 1180 -4 c 0,8,9
 1104 -8 1104 -8 1020 -8 c 1,10,-1
 706 -24 l 1,11,-1
 526 -30 l 1,12,-1
 360 -36 l 1,13,14
 202 -36 202 -36 122 -2 c 0,15,16
 28 38 28 38 28 142 c 0,17,18
 28 220 28 220 94 266 c 1,19,-1
 242 334 l 1,20,-1
 634 490 l 1,21,22
 852 598 852 598 852 794 c 0,23,24
 852 906 852 906 776 990 c 0,25,26
 680 1098 680 1098 498 1098 c 0,27,28
 432 1098 432 1098 386 1088 c 128,-1,29
 340 1078 340 1078 296 1050 c 0,30,31
 216 1000 216 1000 216 936 c 0,32,33
 216 904 216 904 208 885 c 128,-1,34
 200 866 200 866 170 843 c 128,-1,35
 140 820 140 820 108 818 c 0,36,37
 24 818 24 818 24 902 c 0,38,39
 24 1028 24 1028 172 1141 c 128,-1,40
 320 1254 320 1254 484 1254 c 0,41,42
 718 1254 718 1254 874 1122 c 0,43,44
 1022 996 1022 996 1022 810 c 0,45,46
 1022 458 1022 458 650 334 c 2,47,-1
 376 240 l 2,48,49
 240 190 240 190 240 148 c 0,50,51
 240 132 240 132 284 120 c 1,52,-1
 382 118 l 1,53,-1
 488 122 l 1,54,55
 618 132 618 132 803 140 c 128,-1,56
 988 148 988 148 1134 148 c 1,57,-1
 1914 172 l 2,58,59
 1960 172 1960 172 1994 148 c 128,-1,60
 2028 124 2028 124 2028 92 c 0,0,1
1978 348 m 1,61,62
 1978 270 1978 270 1896 270 c 0,63,64
 1816 270 1816 270 1816 382 c 1,65,-1
 1820 438 l 1,66,-1
 1826 520 l 1,67,68
 1826 602 1826 602 1798 652 c 1,69,70
 1782 642 1782 642 1764 627 c 128,-1,71
 1746 612 1746 612 1716 582 c 0,72,73
 1668 524 1668 524 1650 514 c 1,74,-1
 1568 428 l 2,75,76
 1520 378 1520 378 1470 378 c 0,77,78
 1422 378 1422 378 1402 434 c 1,79,-1
 1380 542 l 2,80,81
 1368 598 1368 598 1328 598 c 0,82,83
 1276 598 1276 598 1226 542 c 128,-1,84
 1176 486 1176 486 1176 436 c 0,85,86
 1176 416 1176 416 1200 400 c 0,87,88
 1224 388 1224 388 1224 350 c 0,89,90
 1224 334 1224 334 1214 320 c 128,-1,91
 1204 306 1204 306 1192 296 c 0,92,93
 1164 274 1164 274 1140 270 c 1,94,95
 1090 270 1090 270 1050 304 c 0,96,97
 1004 338 1004 338 1004 402 c 0,98,99
 1004 512 1004 512 1105 623 c 128,-1,100
 1206 734 1206 734 1332 734 c 0,101,102
 1466 734 1466 734 1504 562 c 1,103,104
 1540 632 1540 632 1676 738 c 128,-1,105
 1812 844 1812 844 1870 844 c 0,106,107
 1942 844 1942 844 1958 742 c 1,108,-1
 1964 534 l 1,109,-1
 1970 422 l 1,110,-1
 1978 348 l 1,61,62
EndSplineSet
EndChar

StartChar: tm_e
Encoding: 2958 2958 55
Width: 1370
GlyphClass: 2
Flags: W
LayerCount: 2
Fore
SplineSet
1592 1098 m 0,0,1
 1592 1060 1592 1060 1528 1014 c 2,2,-1
 1406 920 l 2,3,4
 1386 900 1386 900 1367 876 c 128,-1,5
 1348 852 1348 852 1332 820 c 0,6,7
 1304 760 1304 760 1304 716 c 2,8,-1
 1304 84 l 2,9,10
 1304 52 1304 52 1260 28 c 0,11,12
 1234 12 1234 12 1196 12 c 0,13,14
 1098 12 1098 12 1098 60 c 2,15,-1
 1148 730 l 1,16,17
 1148 834 1148 834 1208 916 c 0,18,19
 1240 962 1240 962 1304 1014 c 0,20,21
 1348 1048 1348 1048 1352 1064 c 1,22,23
 1352 1104 1352 1104 1220 1140 c 0,24,25
 1154 1156 1154 1156 1081 1166 c 128,-1,26
 1008 1176 1008 1176 930 1176 c 0,27,28
 626 1176 626 1176 432 1052 c 0,29,30
 188 898 188 898 188 588 c 0,31,32
 188 392 188 392 320 266 c 0,33,34
 440 156 440 156 584 156 c 0,35,36
 666 156 666 156 733 215 c 128,-1,37
 800 274 800 274 800 380 c 0,38,39
 800 480 800 480 722 520 c 0,40,41
 674 546 674 546 624 546 c 0,42,43
 608 546 608 546 586 578 c 1,44,45
 570 610 570 610 570 634 c 0,46,47
 570 712 570 712 672 712 c 256,48,49
 774 712 774 712 864 628 c 0,50,51
 970 532 970 532 970 372 c 0,52,53
 970 230 970 230 848 113 c 128,-1,54
 726 -4 726 -4 584 -4 c 0,55,56
 370 -4 370 -4 204 162 c 0,57,58
 24 340 24 340 24 588 c 0,59,60
 24 914 24 914 265 1123 c 128,-1,61
 506 1332 506 1332 888 1332 c 0,62,63
 1150 1332 1150 1332 1371 1262 c 128,-1,64
 1592 1192 1592 1192 1592 1098 c 0,0,1
EndSplineSet
EndChar

StartChar: tm_ee
Encoding: 2959 2959 56
Width: 1652
GlyphClass: 2
Flags: W
LayerCount: 2
Fore
SplineSet
1598 1112 m 0,0,1
 1598 1074 1598 1074 1530 1026 c 0,2,3
 1422 954 1422 954 1402 934 c 0,4,5
 1362 898 1362 898 1338 833 c 128,-1,6
 1314 768 1314 768 1314 720 c 2,7,-1
 1314 98 l 2,8,9
 1314 20 1314 20 1234 20 c 0,10,11
 1186 20 1186 20 1170 26 c 0,12,13
 1142 38 1142 38 1142 98 c 2,14,-1
 1142 754 l 2,15,16
 1142 844 1142 844 1240 953 c 128,-1,17
 1338 1062 1338 1062 1342 1078 c 1,18,19
 1342 1104 1342 1104 1234 1144 c 0,20,21
 1174 1162 1174 1162 1108 1172 c 128,-1,22
 1042 1182 1042 1182 966 1182 c 0,23,24
 652 1182 652 1182 438 1044 c 0,25,26
 196 886 196 886 196 598 c 0,27,28
 196 432 196 432 300 298 c 0,29,30
 416 152 416 152 584 152 c 0,31,32
 810 152 810 152 810 378 c 0,33,34
 810 470 810 470 740 516 c 0,35,36
 694 544 694 544 632 544 c 0,37,38
 588 544 588 544 588 632 c 0,39,40
 588 714 588 714 684 714 c 0,41,42
 784 714 784 714 878 630 c 0,43,44
 982 532 982 532 982 392 c 0,45,46
 982 242 982 242 874 119 c 128,-1,47
 766 -4 766 -4 584 -4 c 0,48,49
 340 -4 340 -4 176 192 c 0,50,51
 26 372 26 372 26 584 c 0,52,53
 26 914 26 914 280 1125 c 128,-1,54
 534 1336 534 1336 966 1336 c 0,55,56
 1194 1336 1194 1336 1396 1264 c 128,-1,57
 1598 1192 1598 1192 1598 1112 c 0,0,1
1638 -24 m 0,58,59
 1638 -62 1638 -62 1522 -86 c 0,60,61
 1364 -122 1364 -122 1284 -172 c 0,62,63
 1218 -212 1218 -212 1090 -330 c 0,64,65
 984 -428 984 -428 964 -430 c 0,66,67
 888 -430 888 -430 888 -344 c 0,68,69
 888 -282 888 -282 1155 -92 c 128,-1,70
 1422 98 1422 98 1522 98 c 0,71,72
 1550 98 1550 98 1594 59 c 128,-1,73
 1638 20 1638 20 1638 -24 c 0,58,59
EndSplineSet
EndChar

StartChar: tm_ai
Encoding: 2960 2960 57
Width: 1594
GlyphClass: 2
Flags: W
LayerCount: 2
Fore
SplineSet
1650 -84 m 0,0,1
 1650 -134 1650 -134 1547 -198 c 128,-1,2
 1444 -262 1444 -262 1332 -262 c 0,3,4
 1198 -262 1198 -262 1045 -213 c 128,-1,5
 892 -164 892 -164 850 -164 c 0,6,7
 772 -164 772 -164 640 -198 c 0,8,9
 574 -216 574 -216 521 -225 c 128,-1,10
 468 -234 468 -234 430 -234 c 0,11,12
 312 -234 312 -234 242 -176 c 128,-1,13
 172 -118 172 -118 172 -42 c 0,14,15
 172 122 172 122 344 206 c 0,16,17
 498 278 498 278 740 278 c 0,18,19
 1386 278 1386 278 1386 520 c 0,20,21
 1386 606 1386 606 1350 630 c 0,22,23
 1314 658 1314 658 1210 658 c 0,24,25
 1154 658 1154 658 1090 588 c 128,-1,26
 1026 518 1026 518 990 424 c 1,27,28
 972 364 972 364 872 364 c 0,29,30
 780 364 780 364 780 434 c 0,31,32
 780 592 780 592 768 650 c 0,33,34
 742 774 742 774 666 856 c 0,35,36
 580 948 580 948 450 948 c 0,37,38
 368 948 368 948 286 884 c 0,39,40
 190 806 190 806 190 688 c 0,41,42
 190 492 190 492 374 492 c 0,43,44
 406 492 406 492 434 532 c 128,-1,45
 462 572 462 572 494 576 c 1,46,47
 538 576 538 576 572 548 c 1,48,49
 604 516 604 516 604 478 c 0,50,51
 604 412 604 412 538 374 c 128,-1,52
 472 336 472 336 382 336 c 0,53,54
 196 336 196 336 96 460 c 0,55,56
 24 554 24 554 24 672 c 0,57,58
 24 862 24 862 145 990 c 128,-1,59
 266 1118 266 1118 454 1118 c 0,60,61
 660 1118 660 1118 794 984 c 0,62,63
 862 916 862 916 899 837 c 128,-1,64
 936 758 936 758 936 664 c 1,65,66
 984 718 984 718 1076 773 c 128,-1,67
 1168 828 1168 828 1234 828 c 0,68,69
 1386 828 1386 828 1474 747 c 128,-1,70
 1562 666 1562 666 1562 526 c 0,71,72
 1562 134 1562 134 842 134 c 0,73,74
 628 134 628 134 478 83 c 128,-1,75
 328 32 328 32 328 -32 c 0,76,77
 328 -84 328 -84 464 -84 c 0,78,79
 498 -84 498 -84 621 -49 c 128,-1,80
 744 -14 744 -14 842 -14 c 0,81,82
 938 -14 938 -14 1048 -63 c 128,-1,83
 1158 -112 1158 -112 1274 -112 c 0,84,85
 1368 -112 1368 -112 1440 -60 c 128,-1,86
 1512 -8 1512 -8 1532 -8 c 0,87,88
 1582 -8 1582 -8 1615 -30 c 128,-1,89
 1648 -52 1648 -52 1650 -84 c 0,0,1
EndSplineSet
EndChar

StartChar: tm_o
Encoding: 2962 2962 58
Width: 1528
GlyphClass: 2
Flags: W
LayerCount: 2
Fore
SplineSet
1502 546 m 0,0,1
 1502 98 1502 98 1064 98 c 1,2,3
 1070 88 1070 88 1168 -8 c 0,4,5
 1242 -78 1242 -78 1242 -146 c 0,6,7
 1242 -232 1242 -232 1122 -285 c 128,-1,8
 1002 -338 1002 -338 860 -338 c 0,9,10
 448 -338 448 -338 448 -106 c 0,11,12
 448 2 448 2 522 2 c 0,13,14
 566 2 566 2 585 -17 c 128,-1,15
 604 -36 604 -36 604 -108 c 0,16,17
 604 -184 604 -184 806 -184 c 0,18,19
 1040 -184 1040 -184 1040 -88 c 0,20,21
 1040 -64 1040 -64 955 5 c 128,-1,22
 870 74 870 74 870 142 c 0,23,24
 870 216 870 216 1020 236 c 128,-1,25
 1170 256 1170 256 1212 282 c 0,26,27
 1330 348 1330 348 1330 558 c 0,28,29
 1330 712 1330 712 1176 840 c 0,30,31
 1010 976 1010 976 766 976 c 0,32,33
 488 976 488 976 326 790 c 0,34,35
 200 640 200 640 200 470 c 0,36,37
 200 232 200 232 390 232 c 0,38,39
 464 232 464 232 495 322 c 128,-1,40
 526 412 526 412 584 412 c 0,41,42
 678 412 678 412 678 298 c 0,43,44
 678 204 678 204 583 146 c 128,-1,45
 488 88 488 88 376 88 c 0,46,47
 210 88 210 88 116 196 c 0,48,49
 32 292 32 292 32 446 c 0,50,51
 32 718 32 718 226 918 c 0,52,53
 434 1132 434 1132 750 1132 c 0,54,55
 1126 1132 1126 1132 1328 942 c 0,56,57
 1502 780 1502 780 1502 546 c 0,0,1
EndSplineSet
EndChar

StartChar: tm_oo
Encoding: 2963 2963 59
Width: 1514
GlyphClass: 2
Flags: W
LayerCount: 2
Fore
SplineSet
1484 472 m 0,0,1
 1484 254 1484 254 1386 137 c 128,-1,2
 1288 20 1288 20 1114 20 c 1,3,-1
 1034 26 l 1,4,-1
 1150 -84 l 1,5,6
 1218 -162 1218 -162 1218 -218 c 0,7,8
 1218 -314 1218 -314 1082 -370 c 0,9,10
 966 -416 966 -416 814 -416 c 0,11,12
 640 -416 640 -416 534 -352 c 128,-1,13
 428 -288 428 -288 428 -180 c 0,14,15
 428 -110 428 -110 484 -54 c 1,16,17
 534 2 534 2 614 2 c 0,18,19
 682 2 682 2 738 -45 c 128,-1,20
 794 -92 794 -92 794 -160 c 0,21,22
 794 -214 794 -214 784 -230 c 2,23,-1
 770 -256 l 1,24,-1
 836 -262 l 1,25,26
 906 -262 906 -262 962 -240 c 128,-1,27
 1018 -218 1018 -218 1018 -170 c 0,28,29
 1018 -144 1018 -144 934 -72 c 128,-1,30
 850 0 850 0 850 72 c 0,31,32
 850 146 850 146 996 162 c 128,-1,33
 1142 178 1142 178 1190 206 c 0,34,35
 1310 272 1310 272 1310 472 c 0,36,37
 1310 658 1310 658 1150 778 c 0,38,39
 984 904 984 904 710 904 c 0,40,41
 530 904 530 904 376 778 c 0,42,43
 198 630 198 630 198 392 c 0,44,45
 198 336 198 336 213 292 c 128,-1,46
 228 248 228 248 258 216 c 0,47,48
 310 158 310 158 380 158 c 0,49,50
 440 158 440 158 484 250 c 128,-1,51
 528 342 528 342 558 344 c 0,52,53
 614 344 614 344 648 296 c 0,54,55
 668 262 668 262 668 226 c 0,56,57
 668 144 668 144 576 79 c 128,-1,58
 484 14 484 14 378 14 c 0,59,60
 266 14 266 14 164 84 c 0,61,62
 24 176 24 176 24 350 c 0,63,64
 24 638 24 638 206 838 c 0,65,66
 398 1054 398 1054 716 1054 c 0,67,68
 1084 1054 1084 1054 1292 884 c 0,69,70
 1484 728 1484 728 1484 472 c 0,0,1
662 -184 m 0,71,72
 662 -136 662 -136 622 -136 c 0,73,74
 578 -136 578 -136 578 -176 c 0,75,76
 578 -222 578 -222 616 -222 c 0,77,78
 662 -222 662 -222 662 -184 c 0,71,72
EndSplineSet
EndChar

StartChar: tm_ka
Encoding: 2965 2965 61
Width: 936
GlyphClass: 2
Flags: W
LayerCount: 2
Fore
SplineSet
908 180 m 0,0,1
 908 96 908 96 808 34 c 0,2,3
 768 12 768 12 727 -2 c 128,-1,4
 686 -16 686 -16 650 -16 c 0,5,6
 596 -16 596 -16 544 10 c 128,-1,7
 492 36 492 36 492 84 c 0,8,9
 492 112 492 112 524 138 c 0,10,11
 546 154 546 154 570 154 c 1,12,-1
 606 146 l 1,13,14
 630 136 630 136 664 136 c 0,15,16
 742 136 742 136 742 190 c 0,17,18
 742 262 742 262 580 262 c 0,19,20
 546 262 546 262 530 258 c 1,21,22
 512 200 512 200 432 132 c 0,23,24
 330 48 330 48 202 48 c 0,25,26
 26 48 26 48 26 140 c 256,27,28
 26 232 26 232 130 312 c 0,29,30
 192 358 192 358 267 384 c 128,-1,31
 342 410 342 410 432 410 c 1,32,33
 444 444 444 444 444 512 c 0,34,35
 444 546 444 546 422 580 c 0,36,37
 404 614 404 614 374 616 c 0,38,39
 346 616 346 616 300 542 c 1,40,41
 260 470 260 470 216 470 c 0,42,43
 190 470 190 470 160 493 c 128,-1,44
 130 516 130 516 130 548 c 0,45,46
 130 620 130 620 203 688 c 128,-1,47
 276 756 276 756 358 756 c 256,48,49
 440 756 440 756 515 681 c 128,-1,50
 590 606 590 606 590 498 c 1,51,-1
 572 400 l 1,52,53
 736 400 736 400 822 341 c 128,-1,54
 908 282 908 282 908 180 c 0,0,1
384 272 m 1,55,-1
 356 274 l 2,56,57
 306 274 306 274 254 238 c 0,58,59
 216 210 216 210 214 190 c 0,60,61
 214 170 214 170 250 170 c 256,62,63
 286 170 286 170 326 203 c 128,-1,64
 366 236 366 236 384 272 c 1,55,-1
EndSplineSet
EndChar

StartChar: tm_nga
Encoding: 2969 2969 62
Width: 1494
GlyphClass: 2
Flags: W
LayerCount: 2
Fore
SplineSet
1466 842 m 0,0,1
 1466 508 1466 508 1357 240 c 128,-1,2
 1248 -28 1248 -28 1116 -28 c 0,3,4
 1040 -28 1040 -28 986 38 c 0,5,6
 962 66 962 66 916 160 c 1,7,8
 890 224 890 224 868 226 c 0,9,10
 798 226 798 226 698 102 c 0,11,12
 624 10 624 10 564 10 c 0,13,14
 482 10 482 10 482 80 c 2,15,-1
 482 146 l 1,16,-1
 484 304 l 2,17,18
 484 506 484 506 452 540 c 1,19,20
 372 504 372 504 292 330 c 0,21,22
 238 204 238 204 216 84 c 0,23,24
 214 64 214 64 188 42 c 0,25,26
 156 10 156 10 106 10 c 0,27,28
 28 10 28 10 28 68 c 0,29,30
 28 116 28 116 96 272 c 0,31,32
 178 456 178 456 266 578 c 0,33,34
 380 734 380 734 484 734 c 0,35,36
 638 734 638 734 638 384 c 1,37,-1
 636 304 l 1,38,-1
 634 258 l 1,39,40
 764 390 764 390 888 390 c 0,41,42
 970 390 970 390 1032 296 c 1,43,-1
 1116 152 l 1,44,45
 1208 230 1208 230 1256 460 c 0,46,47
 1288 612 1288 612 1288 750 c 1,48,-1
 1282 816 l 1,49,-1
 1276 866 l 1,50,51
 1276 936 1276 936 1374 936 c 0,52,53
 1444 936 1444 936 1458 910 c 0,54,55
 1466 894 1466 894 1466 842 c 0,0,1
EndSplineSet
EndChar

StartChar: tm_ca
Encoding: 2970 2970 63
Width: 750
GlyphClass: 2
Flags: W
LayerCount: 2
Fore
SplineSet
738 286 m 0,0,1
 738 210 738 210 678 210 c 1,2,-1
 554 244 l 1,3,4
 546 158 546 158 437 71 c 128,-1,5
 328 -16 328 -16 214 -16 c 0,6,7
 110 -16 110 -16 62 44 c 0,8,9
 28 88 28 88 28 142 c 0,10,11
 28 260 28 260 204 340 c 0,12,13
 328 396 328 396 400 396 c 0,14,15
 416 396 416 396 424 394 c 1,16,-1
 430 444 l 1,17,18
 430 494 430 494 408 538 c 1,19,20
 382 580 382 580 350 580 c 0,21,22
 320 580 320 580 290 516 c 1,23,24
 268 452 268 452 204 452 c 0,25,26
 124 452 124 452 124 526 c 0,27,28
 124 594 124 594 210 666 c 0,29,30
 286 726 286 726 350 726 c 0,31,32
 444 726 444 726 514 624 c 0,33,34
 544 576 544 576 557 521 c 128,-1,35
 570 466 570 466 570 394 c 1,36,37
 596 390 596 390 623 383 c 128,-1,38
 650 376 650 376 674 362 c 0,39,40
 738 332 738 332 738 286 c 0,0,1
384 256 m 1,41,42
 330 256 330 256 244 218 c 128,-1,43
 158 180 158 180 158 136 c 0,44,45
 158 112 158 112 194 112 c 0,46,47
 240 112 240 112 303 156 c 128,-1,48
 366 200 366 200 384 256 c 1,41,42
EndSplineSet
EndChar

StartChar: tm_ja
Encoding: 2972 2972 64
Width: 1260
GlyphClass: 2
Flags: W
LayerCount: 2
Fore
SplineSet
1232 580 m 0,0,1
 1232 486 1232 486 1160 414 c 128,-1,2
 1088 342 1088 342 962 306 c 0,3,4
 916 294 916 294 850 288 c 1,5,-1
 730 288 l 1,6,-1
 608 290 l 2,7,8
 406 290 406 290 310 255 c 128,-1,9
 214 220 214 220 214 146 c 0,10,11
 214 116 214 116 242 96 c 128,-1,12
 270 76 270 76 312 76 c 0,13,14
 370 76 370 76 452 92 c 128,-1,15
 534 108 534 108 662 148 c 0,16,17
 908 218 908 218 986 218 c 0,18,19
 1066 218 1066 218 1129 175 c 128,-1,20
 1192 132 1192 132 1192 60 c 0,21,22
 1192 10 1192 10 1156 -18 c 1,23,24
 1124 -50 1124 -50 1074 -50 c 0,25,26
 1010 -50 1010 -50 978 0 c 128,-1,27
 946 50 946 50 916 52 c 1,28,-1
 688 -16 l 2,29,30
 466 -84 466 -84 312 -84 c 0,31,32
 198 -84 198 -84 116 -28 c 0,33,34
 26 36 26 36 26 150 c 0,35,36
 26 254 26 254 116 336 c 1,37,38
 202 406 202 406 326 440 c 1,39,40
 386 452 386 452 470 452 c 2,41,-1
 584 448 l 1,42,-1
 664 444 l 1,43,44
 830 444 830 444 906 456 c 0,45,46
 1040 484 1040 484 1040 566 c 0,47,48
 1040 616 1040 616 982 616 c 0,49,50
 890 616 890 616 746 556 c 128,-1,51
 602 496 602 496 566 496 c 0,52,53
 504 496 504 496 468 596 c 1,54,-1
 416 780 l 1,55,56
 380 880 380 880 310 880 c 0,57,58
 276 880 276 880 242 840 c 0,59,60
 212 800 212 800 212 762 c 0,61,62
 212 708 212 708 276 708 c 0,63,64
 358 708 358 708 358 634 c 0,65,66
 358 590 358 590 320 562 c 1,67,68
 278 538 278 538 232 538 c 0,69,70
 164 538 164 538 106 607 c 128,-1,71
 48 676 48 676 48 768 c 0,72,73
 48 856 48 856 116 950 c 1,74,75
 194 1050 194 1050 290 1050 c 0,76,77
 430 1050 430 1050 504 952 c 0,78,79
 522 926 522 926 539 880 c 128,-1,80
 556 834 556 834 577 752 c 128,-1,81
 598 670 598 670 640 670 c 0,82,83
 658 670 658 670 776 731 c 128,-1,84
 894 792 894 792 1000 792 c 0,85,86
 1092 792 1092 792 1162 728 c 128,-1,87
 1232 664 1232 664 1232 580 c 0,0,1
EndSplineSet
EndChar

StartChar: tm_nya
Encoding: 2974 2974 65
Width: 1104
GlyphClass: 2
Flags: W
LayerCount: 2
Fore
SplineSet
1076 18 m 0,0,1
 1076 -120 1076 -120 904 -222 c 0,2,3
 746 -314 746 -314 556 -314 c 0,4,5
 432 -314 432 -314 272 -268 c 0,6,7
 92 -216 92 -216 92 -146 c 0,8,9
 92 -72 92 -72 198 -72 c 0,10,11
 212 -72 212 -72 330 -110 c 128,-1,12
 448 -148 448 -148 542 -148 c 0,13,14
 680 -148 680 -148 798 -101 c 128,-1,15
 916 -54 916 -54 916 12 c 0,16,17
 916 92 916 92 790 92 c 0,18,19
 618 92 618 92 618 274 c 0,20,21
 618 602 618 602 572 608 c 1,22,23
 420 572 420 572 298 448 c 0,24,25
 188 332 188 332 188 250 c 0,26,27
 188 200 188 200 232 200 c 1,28,-1
 278 216 l 2,29,30
 312 232 312 232 340 236 c 0,31,32
 368 236 368 236 392 220 c 0,33,34
 434 198 434 198 434 148 c 0,35,36
 434 102 434 102 370 70 c 0,37,38
 316 46 316 46 252 46 c 0,39,40
 156 46 156 46 90 112 c 0,41,42
 28 178 28 178 28 274 c 0,43,44
 28 434 28 434 220 599 c 128,-1,45
 412 764 412 764 616 764 c 0,46,47
 762 764 762 764 762 642 c 0,48,49
 762 562 762 562 780 444 c 0,50,51
 788 392 788 392 790 348 c 128,-1,52
 792 304 792 304 792 246 c 1,53,-1
 830 248 l 1,54,55
 926 248 926 248 1001 183 c 128,-1,56
 1076 118 1076 118 1076 18 c 0,0,1
EndSplineSet
EndChar

StartChar: tm_tta
Encoding: 2975 2975 66
Width: 1124
GlyphClass: 2
Flags: W
LayerCount: 2
Fore
SplineSet
1112 112 m 0,0,1
 1112 56 1112 56 1060 32 c 0,2,3
 1024 18 1024 18 947 11 c 128,-1,4
 870 4 870 4 808 0 c 128,-1,5
 746 -4 746 -4 688 -4 c 0,6,7
 24 -4 24 -4 24 326 c 0,8,9
 24 466 24 466 103 657 c 128,-1,10
 182 848 182 848 252 848 c 0,11,12
 298 848 298 848 324 820 c 1,13,14
 350 800 350 800 350 764 c 0,15,16
 350 736 350 736 273 589 c 128,-1,17
 196 442 196 442 196 350 c 0,18,19
 196 244 196 244 362 188 c 1,20,21
 422 172 422 172 492 162 c 128,-1,22
 562 152 562 152 636 152 c 0,23,24
 786 152 786 152 898 174 c 2,25,-1
 1016 196 l 1,26,27
 1112 196 1112 196 1112 112 c 0,0,1
EndSplineSet
EndChar

StartChar: tm_nna
Encoding: 2979 2979 67
Width: 1672
GlyphClass: 2
Flags: W
LayerCount: 2
Fore
SplineSet
1606 -124 m 2,0,1
 1606 -220 1606 -220 1520 -220 c 256,2,3
 1434 -220 1434 -220 1434 -122 c 2,4,-1
 1434 370 l 1,5,-1
 1434 396 l 2,6,7
 1434 482 1434 482 1426 512 c 0,8,9
 1410 586 1410 586 1350 586 c 0,10,11
 1246 586 1246 586 1118 470 c 1,12,13
 1262 392 1262 392 1262 262 c 0,14,15
 1262 176 1262 176 1198 113 c 128,-1,16
 1134 50 1134 50 1046 50 c 0,17,18
 942 50 942 50 892 107 c 128,-1,19
 842 164 842 164 842 252 c 0,20,21
 842 330 842 330 870 400 c 1,22,-1
 698 400 l 1,23,24
 750 336 750 336 750 234 c 0,25,26
 750 134 750 134 684 80 c 1,27,28
 622 24 622 24 528 24 c 0,29,30
 450 24 450 24 398 79 c 128,-1,31
 346 134 346 134 346 228 c 0,32,33
 346 330 346 330 420 412 c 1,34,-1
 396 414 l 1,35,36
 326 414 326 414 256 360 c 0,37,38
 184 300 184 300 184 228 c 0,39,40
 184 186 184 186 232 156 c 1,41,42
 280 134 280 134 280 90 c 0,43,44
 280 58 280 58 249 29 c 128,-1,45
 218 0 218 0 182 0 c 0,46,47
 126 0 126 0 76 68 c 0,48,49
 50 106 50 106 39 139 c 128,-1,50
 28 172 28 172 28 214 c 0,51,52
 28 352 28 352 143 456 c 128,-1,53
 258 560 258 560 396 560 c 0,54,55
 520 560 520 560 586 508 c 1,56,57
 672 542 672 542 802 542 c 0,58,59
 864 542 864 542 893 540 c 128,-1,60
 922 538 922 538 972 526 c 1,61,62
 1030 596 1030 596 1132 660 c 0,63,64
 1262 742 1262 742 1384 742 c 0,65,66
 1474 742 1474 742 1540 676 c 128,-1,67
 1606 610 1606 610 1606 516 c 2,68,-1
 1606 -124 l 2,0,1
1096 258 m 0,69,70
 1096 296 1096 296 1032 346 c 1,71,72
 998 270 998 270 996 240 c 0,73,74
 996 198 996 198 1050 198 c 0,75,76
 1096 198 1096 198 1096 258 c 0,69,70
616 244 m 0,77,78
 616 292 616 292 582 348 c 1,79,80
 540 336 540 336 514 298 c 0,81,82
 490 268 490 268 486 230 c 1,83,84
 486 156 486 156 532 156 c 0,85,86
 562 156 562 156 588 184 c 1,87,88
 616 206 616 206 616 244 c 0,77,78
EndSplineSet
EndChar

StartChar: tm_ta
Encoding: 2980 2980 68
Width: 818
GlyphClass: 2
Flags: W
LayerCount: 2
Fore
SplineSet
790 142 m 0,0,1
 790 68 790 68 720 -178 c 0,2,3
 688 -298 688 -298 670 -395 c 128,-1,4
 652 -492 652 -492 652 -554 c 0,5,6
 652 -640 652 -640 638 -662 c 0,7,8
 624 -690 624 -690 578 -690 c 0,9,10
 534 -690 534 -690 510 -660 c 1,11,12
 484 -634 484 -634 484 -584 c 0,13,14
 484 -486 484 -486 552 -221 c 128,-1,15
 620 44 620 44 620 82 c 0,16,17
 620 136 620 136 595 183 c 128,-1,18
 570 230 570 230 528 230 c 1,19,20
 508 166 508 166 407 91 c 128,-1,21
 306 16 306 16 194 16 c 0,22,23
 28 16 28 16 28 136 c 0,24,25
 28 282 28 282 188 360 c 0,26,27
 306 416 306 416 428 416 c 1,28,-1
 432 456 l 2,29,30
 432 496 432 496 430 513 c 128,-1,31
 428 530 428 530 416 558 c 1,32,33
 402 608 402 608 372 612 c 0,34,35
 354 612 354 612 302 536 c 0,36,37
 254 460 254 460 188 460 c 0,38,39
 136 460 136 460 136 534 c 0,40,41
 136 598 136 598 205 674 c 128,-1,42
 274 750 274 750 348 750 c 0,43,44
 448 750 448 750 514 656 c 0,45,46
 542 612 542 612 556 563 c 128,-1,47
 570 514 570 514 570 450 c 2,48,-1
 570 426 l 2,49,50
 570 414 570 414 566 386 c 1,51,52
 664 370 664 370 724 298 c 1,53,54
 790 228 790 228 790 142 c 0,0,1
382 288 m 1,55,56
 332 288 332 288 249 243 c 128,-1,57
 166 198 166 198 166 164 c 0,58,59
 166 146 166 146 208 146 c 0,60,61
 230 146 230 146 252 155 c 128,-1,62
 274 164 274 164 304 188 c 0,63,64
 356 226 356 226 382 288 c 1,55,56
EndSplineSet
EndChar

StartChar: tm_na
Encoding: 2984 2984 69
Width: 922
GlyphClass: 2
Flags: W
LayerCount: 2
Fore
SplineSet
894 30 m 0,0,1
 894 -100 894 -100 812 -472 c 0,2,3
 774 -644 774 -644 756 -678 c 1,4,5
 722 -766 722 -766 656 -766 c 0,6,7
 592 -766 592 -766 592 -658 c 0,8,9
 592 -628 592 -628 660 -383 c 128,-1,10
 728 -138 728 -138 728 -12 c 0,11,12
 728 120 728 120 684 120 c 0,13,14
 652 120 652 120 590 70 c 128,-1,15
 528 20 528 20 492 20 c 0,16,17
 466 20 466 20 443 48 c 128,-1,18
 420 76 420 76 420 94 c 2,19,-1
 426 216 l 1,20,-1
 434 340 l 2,21,22
 434 388 434 388 432 413 c 128,-1,23
 430 438 430 438 420 488 c 1,24,25
 412 566 412 566 390 570 c 0,26,27
 372 570 372 570 325 479 c 128,-1,28
 278 388 278 388 244 284 c 1,29,-1
 202 86 l 1,30,31
 178 -4 178 -4 120 -4 c 0,32,33
 28 -4 28 -4 28 104 c 0,34,35
 28 254 28 254 150 518 c 0,36,37
 286 810 286 810 396 810 c 0,38,39
 498 810 498 810 548 664 c 0,40,41
 586 550 586 550 586 362 c 2,42,-1
 584 244 l 1,43,44
 656 282 656 282 690 282 c 0,45,46
 776 282 776 282 832 220 c 0,47,48
 894 156 894 156 894 30 c 0,0,1
EndSplineSet
EndChar

StartChar: tm_nnna
Encoding: 2985 2985 70
Width: 1114
GlyphClass: 2
Flags: W
LayerCount: 2
Fore
SplineSet
1084 -50 m 1,0,1
 1084 -220 1084 -220 988 -220 c 0,2,3
 920 -220 920 -220 904 -172 c 0,4,5
 896 -144 896 -144 896 -80 c 2,6,-1
 898 48 l 1,7,-1
 898 182 l 2,8,9
 898 562 898 562 814 562 c 0,10,11
 798 562 798 562 780 554 c 128,-1,12
 762 546 762 546 720 521 c 128,-1,13
 678 496 678 496 659 483 c 128,-1,14
 640 470 640 470 622 454 c 1,15,-1
 690 366 l 2,16,17
 724 318 724 318 724 258 c 0,18,19
 724 172 724 172 648 104 c 0,20,21
 582 50 582 50 524 50 c 0,22,23
 300 50 300 50 300 284 c 1,24,-1
 310 384 l 1,25,26
 264 378 264 378 226 340 c 128,-1,27
 188 302 188 302 188 250 c 0,28,29
 188 220 188 220 220 174 c 0,30,31
 254 132 254 132 254 94 c 0,32,33
 254 -4 254 -4 182 -4 c 0,34,35
 148 -4 148 -4 121 10 c 128,-1,36
 94 24 94 24 70 50 c 0,37,38
 24 108 24 108 24 210 c 0,39,40
 24 352 24 352 118 443 c 128,-1,41
 212 534 212 534 334 534 c 0,42,43
 384 534 384 534 436 516 c 1,44,45
 476 570 476 570 602 644 c 1,46,47
 756 728 756 728 884 728 c 0,48,49
 978 728 978 728 1024 598 c 0,50,51
 1042 544 1042 544 1053 478 c 128,-1,52
 1064 412 1064 412 1064 316 c 1,53,-1
 1084 -50 l 1,0,1
568 268 m 0,54,55
 568 290 568 290 542 318 c 1,56,57
 520 350 520 350 494 352 c 0,58,59
 480 350 480 350 462 316 c 0,60,61
 452 296 452 296 448 258 c 1,62,63
 448 186 448 186 496 186 c 0,64,65
 568 186 568 186 568 268 c 0,54,55
EndSplineSet
EndChar

StartChar: tm_pa
Encoding: 2986 2986 71
Width: 850
GlyphClass: 2
Flags: W
LayerCount: 2
Fore
SplineSet
820 276 m 0,0,1
 820 86 820 86 700 30 c 0,2,3
 664 16 664 16 595 8 c 128,-1,4
 526 0 526 0 420 0 c 0,5,6
 254 0 254 0 134 64 c 0,7,8
 28 118 28 118 28 172 c 0,9,10
 28 294 28 294 100 511 c 128,-1,11
 172 728 172 728 228 728 c 0,12,13
 270 728 270 728 298 700 c 128,-1,14
 326 672 326 672 326 636 c 0,15,16
 326 624 326 624 265 469 c 128,-1,17
 204 314 204 314 204 240 c 0,18,19
 204 200 204 200 292 176 c 0,20,21
 326 168 326 168 371 162 c 128,-1,22
 416 156 416 156 460 156 c 0,23,24
 534 156 534 156 594 184 c 1,25,26
 658 220 658 220 658 284 c 0,27,28
 658 376 658 376 585 553 c 128,-1,29
 512 730 512 730 508 754 c 1,30,31
 508 800 508 800 529 838 c 128,-1,32
 550 876 550 876 584 876 c 0,33,34
 636 876 636 876 676 810 c 1,35,-1
 732 660 l 2,36,37
 820 420 820 420 820 276 c 0,0,1
EndSplineSet
EndChar

StartChar: tm_ma
Encoding: 2990 2990 72
Width: 948
GlyphClass: 2
Flags: W
LayerCount: 2
Fore
SplineSet
918 402 m 256,0,1
 918 254 918 254 804 132 c 0,2,3
 678 0 678 0 504 0 c 0,4,5
 266 0 266 0 147 150 c 128,-1,6
 28 300 28 300 28 548 c 0,7,8
 28 724 28 724 150 724 c 0,9,10
 222 724 222 724 222 656 c 0,11,12
 222 632 222 632 210 586 c 2,13,-1
 198 538 l 1,14,15
 198 416 198 416 256 300 c 0,16,17
 334 142 334 142 470 142 c 0,18,19
 588 142 588 142 672 225 c 128,-1,20
 756 308 756 308 756 424 c 0,21,22
 756 582 756 582 646 582 c 0,23,24
 604 582 604 582 564 548 c 1,25,26
 530 512 530 512 528 480 c 0,27,28
 528 448 528 448 552 416 c 128,-1,29
 576 384 576 384 578 358 c 0,30,31
 578 326 578 326 556 302 c 128,-1,32
 534 278 534 278 498 274 c 1,33,34
 432 274 432 274 388 342 c 0,35,36
 350 406 350 406 350 484 c 0,37,38
 350 572 350 572 435 665 c 128,-1,39
 520 758 520 758 626 758 c 0,40,41
 758 758 758 758 838 654 c 128,-1,42
 918 550 918 550 918 402 c 256,0,1
EndSplineSet
EndChar

StartChar: tm_ya
Encoding: 2991 2991 73
Width: 978
GlyphClass: 2
Flags: W
LayerCount: 2
Fore
SplineSet
948 268 m 0,0,1
 948 158 948 158 916 76 c 0,2,3
 876 -20 876 -20 814 -20 c 0,4,5
 760 -20 760 -20 652 58 c 1,6,7
 548 140 548 140 502 140 c 0,8,9
 476 140 476 140 437 119 c 128,-1,10
 398 98 398 98 348 56 c 0,11,12
 248 -26 248 -26 134 -26 c 0,13,14
 24 -26 24 -26 24 122 c 0,15,16
 24 212 24 212 84 368 c 0,17,18
 154 544 154 544 222 544 c 0,19,20
 318 544 318 544 318 464 c 0,21,22
 318 444 318 444 313 430 c 128,-1,23
 308 416 308 416 293 393 c 128,-1,24
 278 370 278 370 265 350 c 128,-1,25
 252 330 252 330 248 316 c 0,26,27
 236 292 236 292 226 248 c 128,-1,28
 216 204 216 204 213 187 c 128,-1,29
 210 170 210 170 206 164 c 1,30,31
 234 152 234 152 346 245 c 128,-1,32
 458 338 458 338 502 338 c 0,33,34
 568 338 568 338 648 259 c 128,-1,35
 728 180 728 180 754 180 c 0,36,37
 784 180 784 180 784 264 c 0,38,39
 784 350 784 350 740 484 c 128,-1,40
 696 618 696 618 696 650 c 256,41,42
 696 682 696 682 718 716 c 1,43,44
 744 748 744 748 780 748 c 0,45,46
 828 748 828 748 856 700 c 1,47,-1
 892 586 l 2,48,49
 920 486 920 486 934 410 c 128,-1,50
 948 334 948 334 948 268 c 0,0,1
EndSplineSet
EndChar

StartChar: tm_ra
Encoding: 2992 2992 74
Width: 762
GlyphClass: 2
Flags: W
LayerCount: 2
Fore
SplineSet
750 52 m 0,0,1
 750 -4 750 -4 484 -198 c 0,2,3
 258 -364 258 -364 210 -364 c 0,4,5
 182 -364 182 -364 150 -344 c 0,6,7
 122 -322 122 -322 122 -300 c 0,8,9
 122 -232 122 -232 336 -88 c 128,-1,10
 550 56 550 56 550 116 c 0,11,12
 550 186 550 186 513 332 c 128,-1,13
 476 478 476 478 446 480 c 0,14,15
 394 480 394 480 304 286 c 1,16,-1
 220 92 l 1,17,18
 172 -2 172 -2 108 -2 c 0,19,20
 78 -2 78 -2 50 22 c 0,21,22
 44 30 44 30 34 49 c 128,-1,23
 24 68 24 68 24 96 c 0,24,25
 24 186 24 186 182 452 c 1,26,27
 350 744 350 744 456 744 c 0,28,29
 574 744 574 744 652 486 c 0,30,31
 750 152 750 152 750 52 c 0,0,1
EndSplineSet
EndChar

StartChar: tm_rra
Encoding: 2993 2993 75
Width: 1056
GlyphClass: 2
Flags: W
LayerCount: 2
Fore
SplineSet
1028 478 m 0,0,1
 1028 398 1028 398 962 203 c 128,-1,2
 896 8 896 8 804 -188 c 1,3,-1
 714 -420 l 2,4,5
 672 -520 672 -520 622 -520 c 0,6,7
 522 -520 522 -520 522 -448 c 0,8,9
 522 -418 522 -418 604 -218 c 1,10,-1
 770 166 l 1,11,12
 814 278 814 278 838 351 c 128,-1,13
 862 424 862 424 862 458 c 0,14,15
 862 582 862 582 734 582 c 0,16,17
 664 582 664 582 623 523 c 128,-1,18
 582 464 582 464 582 370 c 0,19,20
 582 286 582 286 576 258 c 0,21,22
 564 202 564 202 510 202 c 0,23,24
 462 202 462 202 416 285 c 128,-1,25
 370 368 370 368 302 368 c 0,26,27
 210 368 210 368 210 252 c 0,28,29
 210 208 210 208 232 162 c 128,-1,30
 254 116 254 116 254 80 c 0,31,32
 254 46 254 46 232 22 c 128,-1,33
 210 -2 210 -2 176 -4 c 0,34,35
 100 -4 100 -4 58 84 c 0,36,37
 44 120 44 120 36 162 c 128,-1,38
 28 204 28 204 28 260 c 0,39,40
 28 362 28 362 104 451 c 128,-1,41
 180 540 180 540 264 540 c 0,42,43
 366 540 366 540 430 490 c 1,44,45
 448 584 448 584 522 660 c 0,46,47
 612 756 612 756 728 756 c 0,48,49
 888 756 888 756 968 646 c 0,50,51
 1028 564 1028 564 1028 478 c 0,0,1
EndSplineSet
EndChar

StartChar: tm_la
Encoding: 2994 2994 76
Width: 1222
GlyphClass: 2
Flags: W
LayerCount: 2
Fore
SplineSet
1194 318 m 0,0,1
 1194 148 1194 148 1092 52 c 0,2,3
 1002 -38 1002 -38 856 -38 c 0,4,5
 752 -38 752 -38 634 48 c 1,6,-1
 452 206 l 2,7,8
 356 290 356 290 294 290 c 0,9,10
 216 290 216 290 216 206 c 0,11,12
 216 180 216 180 261 150 c 128,-1,13
 306 120 306 120 306 74 c 0,14,15
 306 46 306 46 270 18 c 0,16,17
 236 -4 236 -4 198 -4 c 0,18,19
 122 -4 122 -4 74 58 c 128,-1,20
 26 120 26 120 26 208 c 0,21,22
 26 308 26 308 106 385 c 128,-1,23
 186 462 186 462 288 462 c 0,24,25
 386 462 386 462 498 378 c 1,26,-1
 678 218 l 1,27,28
 780 134 780 134 864 134 c 0,29,30
 1030 134 1030 134 1030 298 c 0,31,32
 1030 340 1030 340 1015 378 c 128,-1,33
 1000 416 1000 416 964 460 c 1,34,35
 948 488 948 488 844 582 c 0,36,37
 784 638 784 638 780 672 c 0,38,39
 780 704 780 704 808 732 c 128,-1,40
 836 760 836 760 862 760 c 0,41,42
 924 760 924 760 1028 644 c 0,43,44
 1110 552 1110 552 1152 470 c 128,-1,45
 1194 388 1194 388 1194 318 c 0,0,1
EndSplineSet
EndChar

StartChar: tm_lla
Encoding: 2995 2995 77
Width: 1230
GlyphClass: 2
Flags: W
LayerCount: 2
Fore
SplineSet
1162 -118 m 2,0,1
 1162 -156 1162 -156 1141 -185 c 128,-1,2
 1120 -214 1120 -214 1086 -214 c 0,3,4
 982 -214 982 -214 982 -84 c 0,5,6
 982 564 982 564 926 564 c 0,7,8
 854 564 854 564 690 244 c 1,9,-1
 624 110 l 1,10,11
 586 50 586 50 530 50 c 0,12,13
 484 50 484 50 460 134 c 1,14,15
 440 220 440 220 428 264 c 0,16,17
 426 272 426 272 422 286 c 0,18,19
 388 370 388 370 300 370 c 0,20,21
 256 370 256 370 221 335 c 128,-1,22
 186 300 186 300 186 252 c 0,23,24
 186 188 186 188 222 188 c 0,25,26
 236 188 236 188 244 201 c 128,-1,27
 252 214 252 214 272 218 c 1,28,29
 364 218 364 218 364 120 c 0,30,31
 364 74 364 74 320 47 c 128,-1,32
 276 20 276 20 220 20 c 0,33,34
 136 20 136 20 82 78 c 0,35,36
 54 108 54 108 40 143 c 128,-1,37
 26 178 26 178 26 228 c 0,38,39
 26 352 26 352 110 437 c 128,-1,40
 194 522 194 522 296 522 c 0,41,42
 476 522 476 522 544 364 c 1,43,-1
 690 590 l 1,44,45
 794 720 794 720 896 720 c 0,46,47
 1056 720 1056 720 1110 562 c 0,48,49
 1124 520 1124 520 1135 425 c 128,-1,50
 1146 330 1146 330 1146 208 c 1,51,-1
 1154 40 l 1,52,-1
 1162 -118 l 2,0,1
EndSplineSet
EndChar

StartChar: tm_llla
Encoding: 2996 2996 78
Width: 1184
GlyphClass: 2
Flags: W
LayerCount: 2
Fore
SplineSet
1156 102 m 0,0,1
 1156 40 1156 40 1099 -2 c 128,-1,2
 1042 -44 1042 -44 978 -44 c 0,3,4
 954 -44 954 -44 942 -40 c 1,5,6
 906 -178 906 -178 804 -270 c 0,7,8
 690 -372 690 -372 546 -372 c 0,9,10
 474 -372 474 -372 416 -342 c 0,11,12
 352 -304 352 -304 352 -236 c 0,13,14
 352 -214 352 -214 371 -189 c 128,-1,15
 390 -164 390 -164 408 -164 c 0,16,17
 428 -164 428 -164 472 -186 c 1,18,19
 514 -212 514 -212 544 -212 c 0,20,21
 610 -212 610 -212 683 -163 c 128,-1,22
 756 -114 756 -114 780 -58 c 1,23,24
 732 -46 732 -46 694 -18 c 0,25,26
 644 14 644 14 638 44 c 1,27,28
 584 24 584 24 536 12 c 128,-1,29
 488 0 488 0 456 0 c 0,30,31
 266 0 266 0 145 160 c 128,-1,32
 24 320 24 320 24 548 c 0,33,34
 24 822 24 822 138 822 c 0,35,36
 216 822 216 822 216 734 c 0,37,38
 216 712 216 712 198 616 c 0,39,40
 192 588 192 588 187 551 c 128,-1,41
 182 514 182 514 182 504 c 0,42,43
 182 386 182 386 250 280 c 0,44,45
 338 148 338 148 476 148 c 0,46,47
 588 148 588 148 669 249 c 128,-1,48
 750 350 750 350 750 468 c 0,49,50
 750 522 750 522 716 568 c 1,51,52
 678 612 678 612 626 612 c 0,53,54
 580 612 580 612 546 580 c 128,-1,55
 512 548 512 548 512 498 c 0,56,57
 512 478 512 478 519 460 c 128,-1,58
 526 442 526 442 544 418 c 0,59,60
 578 378 578 378 578 352 c 0,61,62
 578 320 578 320 550 292 c 0,63,64
 522 268 522 268 490 268 c 0,65,66
 422 268 422 268 373 340 c 128,-1,67
 324 412 324 412 324 492 c 0,68,69
 324 608 324 608 403 699 c 128,-1,70
 482 790 482 790 588 790 c 0,71,72
 722 790 722 790 812 692 c 128,-1,73
 902 594 902 594 902 446 c 0,74,75
 902 288 902 288 776 146 c 1,76,77
 792 96 792 96 884 74 c 1,78,79
 884 124 884 124 925 171 c 128,-1,80
 966 218 966 218 1024 218 c 0,81,82
 1076 218 1076 218 1116 185 c 128,-1,83
 1156 152 1156 152 1156 102 c 0,0,1
EndSplineSet
EndChar

StartChar: tm_va
Encoding: 2997 2997 79
Width: 1166
GlyphClass: 2
Flags: W
LayerCount: 2
Fore
SplineSet
1138 218 m 0,0,1
 1138 0 1138 0 768 0 c 2,2,-1
 732 0 l 1,3,-1
 702 0 l 1,4,-1
 678 0 l 2,5,6
 596 0 596 0 566 8 c 0,7,8
 460 24 460 24 460 92 c 0,9,10
 460 130 460 130 516 182 c 1,11,12
 574 228 574 228 574 268 c 0,13,14
 574 322 574 322 517 353 c 128,-1,15
 460 384 460 384 382 384 c 0,16,17
 296 384 296 384 236 336 c 128,-1,18
 176 288 176 288 176 210 c 0,19,20
 176 164 176 164 216 164 c 2,21,-1
 248 166 l 1,22,-1
 280 170 l 2,23,24
 308 170 308 170 330 147 c 128,-1,25
 352 124 352 124 352 88 c 0,26,27
 352 42 352 42 319 15 c 128,-1,28
 286 -12 286 -12 236 -12 c 0,29,30
 24 -12 24 -12 24 206 c 0,31,32
 24 332 24 332 124 430 c 0,33,34
 236 538 236 538 412 538 c 0,35,36
 540 538 540 538 636 466 c 0,37,38
 740 386 740 386 740 270 c 0,39,40
 740 230 740 230 694 160 c 1,41,-1
 740 156 l 1,42,-1
 794 154 l 1,43,44
 954 154 954 154 954 250 c 0,45,46
 954 356 954 356 884 510 c 0,47,48
 852 584 852 584 834 644 c 128,-1,49
 816 704 816 704 816 738 c 0,50,51
 816 774 816 774 837 803 c 128,-1,52
 858 832 858 832 892 836 c 1,53,54
 954 836 954 836 988 764 c 0,55,56
 1002 738 1002 738 1048 602 c 0,57,58
 1138 328 1138 328 1138 218 c 0,0,1
EndSplineSet
EndChar

StartChar: tm_ssa
Encoding: 2999 2999 80
Width: 1396
GlyphClass: 2
Flags: W
LayerCount: 2
Fore
SplineSet
1382 66 m 0,0,1
 1382 42 1382 42 1356 18 c 0,2,3
 1336 4 1336 4 1302 0 c 1,4,-1
 1156 0 l 1,5,-1
 1106 -288 l 2,6,7
 1098 -324 1098 -324 1090 -365 c 128,-1,8
 1082 -406 1082 -406 1072 -428 c 0,9,10
 1048 -488 1048 -488 994 -488 c 0,11,12
 906 -488 906 -488 906 -376 c 0,13,14
 906 -246 906 -246 970 -4 c 1,15,-1
 550 -4 l 2,16,17
 422 -4 422 -4 422 84 c 0,18,19
 422 118 422 118 448 147 c 128,-1,20
 474 176 474 176 474 216 c 256,21,22
 474 256 474 256 438 302 c 0,23,24
 396 350 396 350 338 350 c 0,25,26
 210 350 210 350 210 222 c 0,27,28
 210 202 210 202 227 177 c 128,-1,29
 244 152 244 152 264 152 c 0,30,31
 296 152 296 152 318 134 c 128,-1,32
 340 116 340 116 342 84 c 0,33,34
 342 40 342 40 308 12 c 0,35,36
 300 6 300 6 280 -4 c 128,-1,37
 260 -14 260 -14 236 -14 c 0,38,39
 168 -14 168 -14 106 36 c 0,40,41
 28 100 28 100 28 216 c 0,42,43
 28 344 28 344 100 418 c 1,44,45
 178 506 178 506 318 506 c 0,46,47
 444 506 444 506 538 430 c 128,-1,48
 632 354 632 354 632 236 c 0,49,50
 632 188 632 188 620 152 c 1,51,-1
 998 152 l 1,52,53
 1008 234 1008 234 1036 356 c 1,54,-1
 1058 486 l 1,55,56
 1058 610 1058 610 974 610 c 0,57,58
 878 610 878 610 878 510 c 0,59,60
 878 482 878 482 895 434 c 128,-1,61
 912 386 912 386 916 350 c 0,62,63
 916 328 916 328 889 297 c 128,-1,64
 862 266 862 266 832 266 c 0,65,66
 710 266 710 266 710 502 c 0,67,68
 710 632 710 632 786 711 c 128,-1,69
 862 790 862 790 980 790 c 0,70,71
 1086 790 1086 790 1162 719 c 128,-1,72
 1238 648 1238 648 1238 546 c 0,73,74
 1238 510 1238 510 1232 460 c 128,-1,75
 1226 410 1226 410 1212 340 c 0,76,77
 1184 206 1184 206 1184 162 c 1,78,-1
 1280 162 l 2,79,80
 1324 162 1324 162 1352 132 c 0,81,82
 1382 104 1382 104 1382 66 c 0,0,1
EndSplineSet
EndChar

StartChar: tm_sa
Encoding: 3000 3000 81
Width: 1582
GlyphClass: 2
Flags: W
LayerCount: 2
Fore
SplineSet
1552 296 m 0,0,1
 1552 138 1552 138 1470 57 c 128,-1,2
 1388 -24 1388 -24 1254 -24 c 0,3,4
 1206 -24 1206 -24 1166 -13 c 128,-1,5
 1126 -2 1126 -2 1084 24 c 1,6,-1
 970 116 l 2,7,8
 910 164 910 164 864 164 c 0,9,10
 848 164 848 164 828 154 c 128,-1,11
 808 144 808 144 772 116 c 0,12,13
 706 66 706 66 650 66 c 0,14,15
 588 66 588 66 488 183 c 128,-1,16
 388 300 388 300 324 300 c 0,17,18
 274 300 274 300 228 268 c 0,19,20
 184 242 184 242 184 192 c 0,21,22
 184 166 184 166 204 144 c 128,-1,23
 224 122 224 122 246 122 c 1,24,25
 254 126 254 126 258 128 c 0,26,27
 272 136 272 136 286 148 c 0,28,29
 318 170 318 170 330 172 c 0,30,31
 416 172 416 172 416 84 c 0,32,33
 416 34 416 34 362 -2 c 1,34,35
 310 -42 310 -42 254 -42 c 0,36,37
 168 -42 168 -42 96 14 c 128,-1,38
 24 70 24 70 24 164 c 0,39,40
 24 288 24 288 122 374 c 0,41,42
 212 452 212 452 316 452 c 0,43,44
 412 452 412 452 488 402 c 0,45,46
 506 390 506 390 537 361 c 128,-1,47
 568 332 568 332 594 306 c 0,48,49
 640 254 640 254 662 254 c 0,50,51
 690 254 690 254 747 306 c 128,-1,52
 804 358 804 358 852 358 c 0,53,54
 940 358 940 358 1066 240 c 128,-1,55
 1192 122 1192 122 1264 122 c 0,56,57
 1318 122 1318 122 1352 180 c 0,58,59
 1382 226 1382 226 1382 282 c 0,60,61
 1382 348 1382 348 1334 426 c 0,62,63
 1294 496 1294 496 1236 546 c 2,64,-1
 1180 590 l 2,65,66
 1150 614 1150 614 1150 668 c 0,67,68
 1150 694 1150 694 1170 714 c 128,-1,69
 1190 734 1190 734 1216 736 c 0,70,71
 1312 736 1312 736 1432 588 c 128,-1,72
 1552 440 1552 440 1552 296 c 0,0,1
EndSplineSet
EndChar

StartChar: tm_ha
Encoding: 3001 3001 82
Width: 1626
GlyphClass: 2
Flags: W
LayerCount: 2
Fore
SplineSet
1596 456 m 0,0,1
 1596 382 1596 382 1532 214 c 0,2,3
 1508 148 1508 148 1466 44 c 0,4,5
 1442 -14 1442 -14 1386 -146 c 1,6,-1
 1294 -384 l 1,7,8
 1250 -486 1250 -486 1212 -486 c 0,9,10
 1122 -486 1122 -486 1122 -408 c 0,11,12
 1122 -358 1122 -358 1194 -184 c 0,13,14
 1442 408 1442 408 1442 466 c 0,15,16
 1442 606 1442 606 1326 606 c 0,17,18
 1262 606 1262 606 1210 540 c 0,19,20
 1186 506 1186 506 1174 473 c 128,-1,21
 1162 440 1162 440 1162 400 c 0,22,23
 1162 382 1162 382 1176 338 c 1,24,-1
 1190 268 l 1,25,26
 1190 240 1190 240 1165 218 c 128,-1,27
 1140 196 1140 196 1108 192 c 1,28,29
 1064 192 1064 192 1014 232 c 128,-1,30
 964 272 964 272 936 276 c 1,31,32
 896 276 896 276 896 214 c 0,33,34
 896 196 896 196 916 164 c 1,35,36
 940 134 940 134 940 100 c 0,37,38
 940 58 940 58 904 34 c 0,39,40
 890 24 890 24 868 18 c 128,-1,41
 846 12 846 12 824 12 c 2,42,-1
 536 12 l 2,43,44
 420 12 420 12 420 80 c 0,45,46
 420 124 420 124 449 159 c 128,-1,47
 478 194 478 194 480 226 c 0,48,49
 480 276 480 276 440 308 c 128,-1,50
 400 340 400 340 338 340 c 0,51,52
 192 340 192 340 192 218 c 0,53,54
 192 186 192 186 261 157 c 128,-1,55
 330 128 330 128 330 70 c 0,56,57
 330 34 330 34 301 10 c 128,-1,58
 272 -14 272 -14 230 -14 c 0,59,60
 144 -14 144 -14 84 50 c 128,-1,61
 24 114 24 114 24 216 c 0,62,63
 24 492 24 492 344 492 c 0,64,65
 466 492 466 492 544 429 c 128,-1,66
 622 366 622 366 622 250 c 0,67,68
 622 202 622 202 604 150 c 1,69,-1
 720 150 l 1,70,-1
 714 204 l 1,71,72
 714 294 714 294 774 361 c 128,-1,73
 834 428 834 428 906 428 c 0,74,75
 942 428 942 428 1006 410 c 1,76,-1
 1004 434 l 1,77,78
 1004 538 1004 538 1094 646 c 0,79,80
 1192 760 1192 760 1304 760 c 0,81,82
 1596 760 1596 760 1596 456 c 0,0,1
EndSplineSet
EndChar

StartChar: tm_aakaar
Encoding: 3006 3006 83
Width: 774
GlyphClass: 2
Flags: W
LayerCount: 2
Fore
SplineSet
706 84 m 0,0,1
 706 50 706 50 676 26 c 0,2,3
 652 10 652 10 628 8 c 0,4,5
 604 8 604 8 574 33 c 128,-1,6
 544 58 544 58 544 96 c 2,7,-1
 540 154 l 1,8,-1
 530 262 l 1,9,-1
 516 424 l 2,10,11
 502 550 502 550 448 562 c 1,12,13
 388 534 388 534 262 274 c 1,14,-1
 190 112 l 2,15,16
 158 38 158 38 116 38 c 0,17,18
 96 38 96 38 60 54 c 0,19,20
 28 72 28 72 24 106 c 1,21,22
 24 202 24 202 186 472 c 1,23,24
 364 758 364 758 478 758 c 0,25,26
 552 758 552 758 610 652 c 0,27,28
 660 564 660 564 678 428 c 0,29,30
 706 200 706 200 706 84 c 0,0,1
EndSplineSet
EndChar

StartChar: tm_ikaar
Encoding: 3007 3007 84
Width: 836
GlyphClass: 2
Flags: W
LayerCount: 2
Fore
SplineSet
804 1084 m 0,0,1
 804 1036 804 1036 783 1003 c 128,-1,2
 762 970 762 970 724 970 c 0,3,4
 688 970 688 970 650 1042 c 0,5,6
 628 1086 628 1086 603 1124 c 128,-1,7
 578 1162 578 1162 564 1178 c 0,8,9
 488 1250 488 1250 372 1250 c 0,10,11
 278 1250 278 1250 190 1183 c 128,-1,12
 102 1116 102 1116 102 1022 c 0,13,14
 102 952 102 952 138 894 c 0,15,16
 158 866 158 866 204 830 c 0,17,18
 238 806 238 806 240 788 c 0,19,20
 240 760 240 760 204 730 c 1,21,22
 172 710 172 710 148 706 c 1,23,24
 88 706 88 706 18 788 c 0,25,26
 -60 884 -60 884 -60 1016 c 0,27,28
 -60 1190 -60 1190 66 1301 c 128,-1,29
 192 1412 192 1412 368 1412 c 0,30,31
 554 1412 554 1412 690 1278 c 0,32,33
 804 1170 804 1170 804 1084 c 0,0,1
EndSplineSet
EndChar

StartChar: tm_iikaar
Encoding: 3008 3008 85
Width: 890
GlyphClass: 4
Flags: W
LayerCount: 2
Fore
SplineSet
798 1152 m 0,0,1
 798 1032 798 1032 725 948 c 128,-1,2
 652 864 652 864 538 864 c 0,3,4
 446 864 446 864 384 926 c 1,5,6
 332 984 332 984 332 1046 c 0,7,8
 332 1094 332 1094 359 1134 c 128,-1,9
 386 1174 386 1174 432 1174 c 0,10,11
 510 1174 510 1174 510 1100 c 0,12,13
 510 1082 510 1082 502 1072 c 128,-1,14
 494 1062 494 1062 490 1046 c 1,15,16
 490 1016 490 1016 546 1016 c 0,17,18
 598 1016 598 1016 630 1062 c 0,19,20
 640 1076 640 1076 647 1098 c 128,-1,21
 654 1120 654 1120 656 1134 c 0,22,23
 656 1172 656 1172 647 1196 c 128,-1,24
 638 1220 638 1220 614 1246 c 0,25,26
 562 1298 562 1298 472 1298 c 0,27,28
 380 1298 380 1298 308 1234 c 0,29,30
 216 1158 216 1158 216 1034 c 0,31,32
 216 954 216 954 254 910 c 1,33,34
 294 872 294 872 294 850 c 0,35,36
 294 770 294 770 212 770 c 0,37,38
 148 770 148 770 100 854 c 0,39,40
 58 934 58 934 58 1018 c 0,41,42
 58 1192 58 1192 183 1319 c 128,-1,43
 308 1446 308 1446 488 1446 c 0,44,45
 636 1446 636 1446 722 1352 c 0,46,47
 798 1270 798 1270 798 1152 c 0,0,1
EndSplineSet
EndChar

StartChar: tm_ukaar
Encoding: 3009 3009 86
Width: 669
GlyphClass: 4
Flags: W
LayerCount: 2
Fore
SplineSet
670 602 m 0,0,1
 670 512 670 512 612 441 c 128,-1,2
 554 370 554 370 474 370 c 256,3,4
 394 370 394 370 336 414 c 0,5,6
 272 466 272 466 272 532 c 0,7,8
 272 616 272 616 358 616 c 0,9,10
 386 616 386 616 408 571 c 128,-1,11
 430 526 430 526 462 526 c 0,12,13
 514 526 514 526 514 590 c 0,14,15
 514 644 514 644 462 668 c 0,16,17
 432 680 432 680 358 680 c 2,18,-1
 -326 680 l 2,19,20
 -374 680 -374 680 -406 710 c 0,21,22
 -412 720 -412 720 -412 750 c 0,23,24
 -412 782 -412 782 -386 814 c 1,25,26
 -358 842 -358 842 -324 842 c 2,27,-1
 392 842 l 2,28,29
 506 842 506 842 588 783 c 128,-1,30
 670 724 670 724 670 602 c 0,0,1
EndSplineSet
EndChar

StartChar: tm_uukaar
Encoding: 3010 3010 87
Width: 929
GlyphClass: 4
Flags: W
LayerCount: 2
Fore
SplineSet
902 418 m 0,0,1
 902 330 902 330 842 270 c 128,-1,2
 782 210 782 210 690 210 c 0,3,4
 590 210 590 210 590 314 c 0,5,6
 590 346 590 346 609 366 c 128,-1,7
 628 386 628 386 656 386 c 2,8,-1
 736 386 l 1,9,-1
 736 446 l 2,10,11
 736 480 736 480 692 480 c 2,12,-1
 596 480 l 1,13,14
 608 436 608 436 547 384 c 128,-1,15
 486 332 486 332 424 332 c 0,16,17
 346 332 346 332 283 383 c 128,-1,18
 220 434 220 434 220 504 c 0,19,20
 220 584 220 584 302 584 c 0,21,22
 336 584 336 584 352 541 c 128,-1,23
 368 498 368 498 404 494 c 1,24,25
 458 494 458 494 458 568 c 0,26,27
 458 654 458 654 296 654 c 2,28,-1
 -370 654 l 2,29,30
 -458 654 -458 654 -458 740 c 0,31,32
 -458 822 -458 822 -364 822 c 2,33,-1
 302 822 l 2,34,35
 544 822 544 822 610 638 c 1,36,-1
 702 638 l 2,37,38
 808 638 808 638 860 554 c 1,39,40
 902 494 902 494 902 418 c 0,0,1
EndSplineSet
EndChar

StartChar: tm_ekaar
Encoding: 3014 3014 88
Width: 1344
GlyphClass: 2
Flags: W
LayerCount: 2
Fore
SplineSet
1278 754 m 0,0,1
 1278 612 1278 612 1254 366 c 1,2,-1
 1234 84 l 2,3,4
 1234 56 1234 56 1198 22 c 1,5,6
 1164 -2 1164 -2 1122 -2 c 0,7,8
 1084 -2 1084 -2 1053 24 c 128,-1,9
 1022 50 1022 50 1022 86 c 1,10,-1
 1062 282 l 2,11,12
 1082 380 1082 380 1092 474 c 128,-1,13
 1102 568 1102 568 1102 670 c 0,14,15
 1102 1002 1102 1002 1086 1080 c 0,16,17
 1050 1296 1050 1296 898 1296 c 0,18,19
 788 1296 788 1296 617 1150 c 128,-1,20
 446 1004 446 1004 314 803 c 128,-1,21
 182 602 182 602 182 450 c 0,22,23
 182 348 182 348 226 278 c 0,24,25
 278 190 278 190 374 190 c 0,26,27
 466 190 466 190 510 240 c 1,28,-1
 564 328 l 2,29,30
 596 378 596 378 638 378 c 0,31,32
 678 378 678 378 712 350 c 1,33,34
 746 328 746 328 746 288 c 0,35,36
 746 186 746 186 630 100 c 128,-1,37
 514 14 514 14 352 14 c 0,38,39
 206 14 206 14 115 135 c 128,-1,40
 24 256 24 256 24 426 c 0,41,42
 24 616 24 616 157 863 c 128,-1,43
 290 1110 290 1110 490 1272 c 0,44,45
 720 1454 720 1454 954 1454 c 0,46,47
 1154 1454 1154 1454 1228 1216 c 0,48,49
 1278 1056 1278 1056 1278 754 c 0,0,1
EndSplineSet
EndChar

StartChar: tm_eekaar
Encoding: 3015 3015 89
Width: 1202
GlyphClass: 2
Flags: W
LayerCount: 2
Fore
SplineSet
1260 982 m 0,0,1
 1260 808 1260 808 1142 660 c 1,2,3
 1012 504 1012 504 824 504 c 0,4,5
 694 504 694 504 596 560 c 0,6,7
 542 590 542 590 514 628 c 128,-1,8
 486 666 486 666 486 716 c 0,9,10
 486 800 486 800 572 800 c 0,11,12
 612 800 612 800 671 733 c 128,-1,13
 730 666 730 666 800 666 c 0,14,15
 924 666 924 666 1007 755 c 128,-1,16
 1090 844 1090 844 1090 970 c 0,17,18
 1090 1118 1090 1118 977 1211 c 128,-1,19
 864 1304 864 1304 710 1304 c 0,20,21
 502 1304 502 1304 348 1114 c 0,22,23
 268 1018 268 1018 229 912 c 128,-1,24
 190 806 190 806 190 682 c 0,25,26
 190 472 190 472 328 304 c 0,27,28
 474 128 474 128 680 128 c 0,29,30
 758 128 758 128 828 162 c 128,-1,31
 898 196 898 196 898 246 c 0,32,33
 898 288 898 288 840 288 c 0,34,35
 790 288 790 288 755 259 c 128,-1,36
 720 230 720 230 698 230 c 0,37,38
 620 230 620 230 620 300 c 0,39,40
 620 372 620 372 687 417 c 128,-1,41
 754 462 754 462 842 462 c 0,42,43
 928 462 928 462 997 395 c 128,-1,44
 1066 328 1066 328 1066 250 c 0,45,46
 1066 110 1066 110 950 32 c 0,47,48
 848 -34 848 -34 698 -34 c 0,49,50
 396 -34 396 -34 204 186 c 0,51,52
 26 392 26 392 26 672 c 0,53,54
 26 996 26 996 208 1222 c 0,55,56
 400 1464 400 1464 698 1464 c 0,57,58
 934 1464 934 1464 1097 1331 c 128,-1,59
 1260 1198 1260 1198 1260 982 c 0,0,1
EndSplineSet
EndChar

StartChar: tm_aikaar
Encoding: 3016 3016 90
Width: 1154
GlyphClass: 2
Flags: W
LayerCount: 2
Fore
SplineSet
1124 328 m 0,0,1
 1124 202 1124 202 1041 111 c 128,-1,2
 958 20 958 20 870 20 c 0,3,4
 840 20 840 20 819 44 c 128,-1,5
 798 68 798 68 794 104 c 1,6,7
 794 158 794 158 840 188 c 2,8,-1
 920 242 l 1,9,10
 966 278 966 278 966 352 c 0,11,12
 966 392 966 392 930 444 c 0,13,14
 884 506 884 506 812 506 c 0,15,16
 786 506 786 506 772 502 c 1,17,18
 800 456 800 456 800 380 c 0,19,20
 800 294 800 294 739 239 c 128,-1,21
 678 184 678 184 572 184 c 0,22,23
 502 184 502 184 446 247 c 128,-1,24
 390 310 390 310 390 374 c 0,25,26
 390 482 390 482 448 536 c 1,27,-1
 416 540 l 1,28,29
 324 540 324 540 248 434 c 0,30,31
 184 346 184 346 184 276 c 0,32,33
 184 172 184 172 296 172 c 0,34,35
 366 172 366 172 386 162 c 0,36,37
 428 144 428 144 428 88 c 0,38,39
 428 12 428 12 282 12 c 0,40,41
 192 12 192 12 116 68 c 0,42,43
 28 138 28 138 28 256 c 0,44,45
 28 428 28 428 140 562 c 128,-1,46
 252 696 252 696 394 696 c 0,47,48
 574 696 574 696 644 626 c 1,49,50
 686 648 686 648 735 662 c 128,-1,51
 784 676 784 676 830 676 c 0,52,53
 966 676 966 676 1050 562 c 0,54,55
 1124 464 1124 464 1124 328 c 0,0,1
640 374 m 0,56,57
 640 452 640 452 606 456 c 0,58,59
 580 456 580 456 558 434 c 1,60,61
 542 412 542 412 540 386 c 0,62,63
 540 338 540 338 590 338 c 256,64,65
 640 338 640 338 640 374 c 0,56,57
EndSplineSet
EndChar

StartChar: tm_halant
Encoding: 3021 3021 94
Width: 20
GlyphClass: 4
Flags: W
LayerCount: 2
Fore
SplineSet
-370 938 m 0,0,1
 -370 894 -370 894 -408 854 c 1,2,3
 -448 820 -448 820 -496 820 c 0,4,5
 -542 820 -542 820 -582 854 c 1,6,7
 -620 892 -620 892 -620 938 c 0,8,9
 -620 992 -620 992 -580 1036 c 128,-1,10
 -540 1080 -540 1080 -492 1080 c 0,11,12
 -446 1080 -446 1080 -406 1040 c 0,13,14
 -370 1000 -370 1000 -370 938 c 0,0,1
EndSplineSet
EndChar

StartChar: tm_au_lengthmk
Encoding: 3031 3031 95
Width: 1192
GlyphClass: 2
Flags: W
LayerCount: 2
Fore
SplineSet
1162 -118 m 2,0,1
 1162 -156 1162 -156 1141 -185 c 128,-1,2
 1120 -214 1120 -214 1086 -214 c 0,3,4
 982 -214 982 -214 982 -84 c 0,5,6
 982 564 982 564 926 564 c 0,7,8
 854 564 854 564 690 244 c 1,9,-1
 624 110 l 1,10,11
 586 50 586 50 530 50 c 0,12,13
 484 50 484 50 460 134 c 1,14,15
 440 220 440 220 428 264 c 0,16,17
 426 272 426 272 422 286 c 0,18,19
 388 370 388 370 300 370 c 0,20,21
 256 370 256 370 221 335 c 128,-1,22
 186 300 186 300 186 252 c 0,23,24
 186 188 186 188 222 188 c 0,25,26
 236 188 236 188 244 201 c 128,-1,27
 252 214 252 214 272 218 c 1,28,29
 364 218 364 218 364 120 c 0,30,31
 364 74 364 74 320 47 c 128,-1,32
 276 20 276 20 220 20 c 0,33,34
 136 20 136 20 82 78 c 0,35,36
 54 108 54 108 40 143 c 128,-1,37
 26 178 26 178 26 228 c 0,38,39
 26 352 26 352 110 437 c 128,-1,40
 194 522 194 522 296 522 c 0,41,42
 476 522 476 522 544 364 c 1,43,-1
 690 590 l 1,44,45
 794 720 794 720 896 720 c 0,46,47
 1056 720 1056 720 1110 562 c 0,48,49
 1124 520 1124 520 1135 425 c 128,-1,50
 1146 330 1146 330 1146 208 c 1,51,-1
 1154 40 l 1,52,-1
 1162 -118 l 2,0,1
EndSplineSet
EndChar

StartChar: tm_two
Encoding: 3048 3048 97
Width: 1425
GlyphClass: 2
Flags: W
LayerCount: 2
Fore
SplineSet
1244 70 m 1,0,-1
 1226 0 l 1,1,-1
 586 0 l 2,2,3
 429 0 429 0 429 106 c 0,4,5
 429 153 429 153 478 181.5 c 128,-1,6
 527 210 527 210 586 210 c 2,7,-1
 779 210 l 2,8,9
 867 210 867 210 928 271.5 c 128,-1,10
 989 333 989 333 989 420 c 0,11,12
 989 500 989 500 945 560.5 c 128,-1,13
 901 621 901 621 831 621 c 0,14,15
 793 621 793 621 744 595 c 1,16,17
 814 555 814 555 814 437 c 0,18,19
 814 382 814 382 772.5 344.5 c 128,-1,20
 731 307 731 307 675 307 c 0,21,22
 618 307 618 307 580 351 c 128,-1,23
 542 395 542 395 542 455 c 0,24,25
 542 565 542 565 646.5 632.5 c 128,-1,26
 751 700 751 700 884 700 c 0,27,28
 987 700 987 700 1058 629 c 128,-1,29
 1129 558 1129 558 1129 455 c 0,30,31
 1129 321 1129 321 1025.5 230.5 c 128,-1,32
 922 140 922 140 779 140 c 2,33,-1
 595 140 l 2,34,35
 551 140 551 140 551 106 c 0,36,37
 551 70 551 70 604 70 c 2,38,-1
 1244 70 l 1,0,-1
675 560 m 1,39,40
 621 516 621 516 621 473 c 0,41,42
 621 386 621 386 666 386 c 0,43,44
 709 386 709 386 709 473 c 0,45,46
 709 518 709 518 675 560 c 1,39,40
EndSplineSet
EndChar

StartChar: tm_three
Encoding: 3049 3049 98
Width: 1424
GlyphClass: 2
Flags: W
LayerCount: 2
Fore
SplineSet
1270 70 m 1,0,-1
 1252 0 l 1,1,-1
 640 0 l 1,2,-1
 657 70 l 1,3,-1
 780 70 l 2,4,5
 874 70 874 70 941 130.5 c 128,-1,6
 1008 191 1008 191 1008 280 c 0,7,8
 1008 317 1008 317 982.5 342.5 c 128,-1,9
 957 368 957 368 920 368 c 0,10,11
 890 368 890 368 865 341 c 128,-1,12
 840 314 840 314 833 280 c 2,13,-1
 815 193 l 1,14,-1
 675 193 l 1,15,-1
 764 630 l 1,16,-1
 571 630 l 1,17,-1
 444 0 l 1,18,-1
 378 0 l 1,19,-1
 517 700 l 1,20,-1
 1095 700 l 1,21,-1
 1077 630 l 1,22,-1
 902 630 l 1,23,-1
 859 403 l 1,24,25
 918 455 918 455 990 455 c 0,26,27
 1057 455 1057 455 1102.5 403.5 c 128,-1,28
 1148 352 1148 352 1148 280 c 0,29,30
 1148 209 1148 209 1090 151 c 128,-1,31
 1032 93 1032 93 947 70 c 1,32,-1
 1270 70 l 1,0,-1
EndSplineSet
EndChar

StartChar: tm_four
Encoding: 3050 3050 99
Width: 1427
GlyphClass: 2
Flags: W
LayerCount: 2
Fore
SplineSet
915 316 m 1,0,-1
 644 316 l 2,1,2
 601 316 601 316 570.5 291 c 128,-1,3
 540 266 540 266 540 228 c 0,4,5
 540 158 540 158 609.5 114 c 128,-1,6
 679 70 679 70 766 70 c 0,7,8
 811 70 811 70 844 99.5 c 128,-1,9
 877 129 877 129 887 175 c 2,10,-1
 915 316 l 1,0,-1
979 630 m 1,11,-1
 784 630 l 1,12,-1
 735 386 l 1,13,-1
 930 386 l 1,14,-1
 979 630 l 1,11,-1
1042 245 m 2,15,16
 1017 125 1017 125 940 62.5 c 128,-1,17
 863 0 863 0 766 0 c 0,18,19
 651 0 651 0 559.5 64 c 128,-1,20
 468 128 468 128 468 228 c 0,21,22
 468 294 468 294 520.5 340 c 128,-1,23
 573 386 573 386 644 386 c 2,24,-1
 669 386 l 1,25,-1
 731 700 l 1,26,-1
 1344 700 l 1,27,-1
 1329 630 l 1,28,-1
 1118 630 l 1,29,-1
 1068 386 l 1,30,-1
 1232 386 l 1,31,-1
 1248 464 l 1,32,-1
 1309 464 l 1,33,-1
 1279 316 l 1,34,-1
 1055 316 l 1,35,-1
 1042 245 l 2,15,16
EndSplineSet
EndChar

StartChar: tm_five
Encoding: 3051 3051 100
Width: 1424
GlyphClass: 2
Flags: W
LayerCount: 2
Fore
SplineSet
1412 517 m 1,0,-1
 1359 526 l 1,1,2
 1369 563 1369 563 1369 598 c 0,3,4
 1369 723 1369 723 1253.5 825.5 c 128,-1,5
 1138 928 1138 928 965 928 c 0,6,7
 728 928 728 928 575.5 716 c 128,-1,8
 423 504 423 504 423 228 c 0,9,10
 423 -43 423 -43 515 -179.5 c 128,-1,11
 607 -316 607 -316 790 -316 c 0,12,13
 979 -316 979 -316 1103.5 -163.5 c 128,-1,14
 1228 -11 1228 -11 1228 193 c 0,15,16
 1228 257 1228 257 1200 304.5 c 128,-1,17
 1172 352 1172 352 1126 352 c 0,18,19
 1099 352 1099 352 1072.5 336.5 c 128,-1,20
 1046 321 1046 321 1039 298 c 2,21,-1
 980 0 l 1,22,-1
 840 0 l 1,23,-1
 965 630 l 1,24,-1
 759 630 l 1,25,-1
 634 0 l 1,26,-1
 566 0 l 1,27,-1
 706 700 l 1,28,-1
 1237 700 l 1,29,-1
 1219 630 l 1,30,-1
 1105 630 l 1,31,-1
 1057 386 l 1,32,33
 1101 437 1101 437 1171 437 c 0,34,35
 1261 437 1261 437 1314.5 368.5 c 128,-1,36
 1368 300 1368 300 1368 193 c 0,37,38
 1368 -47 1368 -47 1202.5 -216 c 128,-1,39
 1037 -385 1037 -385 799 -385 c 0,40,41
 589 -385 589 -385 471.5 -223 c 128,-1,42
 354 -61 354 -61 354 193 c 0,43,44
 354 513 354 513 519 764 c 128,-1,45
 684 1015 684 1015 948 1015 c 0,46,47
 1152 1015 1152 1015 1288.5 889.5 c 128,-1,48
 1425 764 1425 764 1425 613 c 0,49,50
 1425 566 1425 566 1412 517 c 1,0,-1
EndSplineSet
EndChar

StartChar: tm_six
Encoding: 3052 3052 101
Width: 1424
GlyphClass: 2
Flags: W
LayerCount: 2
Fore
SplineSet
784 316 m 1,0,-1
 513 316 l 2,1,2
 469 316 469 316 438 291 c 128,-1,3
 407 266 407 266 407 228 c 0,4,5
 407 158 407 158 477 114 c 128,-1,6
 547 70 547 70 635 70 c 0,7,8
 680 70 680 70 713 99.5 c 128,-1,9
 746 129 746 129 756 175 c 2,10,-1
 784 316 l 1,0,-1
846 630 m 1,11,-1
 653 630 l 1,12,-1
 603 386 l 1,13,-1
 798 386 l 1,14,-1
 846 630 l 1,11,-1
910 245 m 2,15,16
 884 125 884 125 808 62.5 c 128,-1,17
 732 0 732 0 635 0 c 0,18,19
 518 0 518 0 428 64 c 128,-1,20
 338 128 338 128 338 228 c 0,21,22
 338 294 338 294 389.5 340 c 128,-1,23
 441 386 441 386 513 386 c 2,24,-1
 537 386 l 1,25,-1
 600 700 l 1,26,-1
 1229 700 l 1,27,-1
 1213 630 l 1,28,-1
 988 630 l 1,29,-1
 938 386 l 1,30,-1
 1422 386 l 1,31,-1
 1410 316 l 1,32,-1
 1353 316 l 1,33,-1
 1291 0 l 1,34,-1
 1151 0 l 1,35,-1
 1213 316 l 1,36,-1
 1116 316 l 1,37,-1
 1055 0 l 1,38,-1
 967 0 l 1,39,-1
 1028 316 l 1,40,-1
 924 316 l 1,41,-1
 910 245 l 2,15,16
EndSplineSet
EndChar

StartChar: tm_seven
Encoding: 3053 3053 102
Width: 1425
GlyphClass: 2
Flags: W
LayerCount: 2
Fore
SplineSet
643 88 m 1,0,1
 706 88 706 88 753 128 c 128,-1,2
 800 168 800 168 800 228 c 0,3,4
 800 269 800 269 781 301 c 128,-1,5
 762 333 762 333 729 333 c 0,6,7
 684 333 684 333 654.5 296.5 c 128,-1,8
 625 260 625 260 625 210 c 0,9,10
 625 135 625 135 643 88 c 1,0,1
1042 0 m 1,11,-1
 1167 630 l 1,12,-1
 852 630 l 2,13,14
 704 630 704 630 594.5 540.5 c 128,-1,15
 485 451 485 451 485 316 c 0,16,17
 485 247 485 247 507 194.5 c 128,-1,18
 529 142 529 142 572 106 c 1,19,20
 555 135 555 135 555 228 c 256,21,22
 555 321 555 321 614.5 388 c 128,-1,23
 674 455 674 455 765 455 c 0,24,25
 837 455 837 455 884 398 c 128,-1,26
 931 341 931 341 931 263 c 0,27,28
 931 155 931 155 863 77.5 c 128,-1,29
 795 0 795 0 695 0 c 0,30,31
 576 0 576 0 495.5 94 c 128,-1,32
 415 188 415 188 415 316 c 0,33,34
 415 481 415 481 545.5 590.5 c 128,-1,35
 676 700 676 700 852 700 c 2,36,-1
 1430 700 l 1,37,-1
 1412 630 l 1,38,-1
 1307 630 l 1,39,-1
 1181 0 l 1,40,-1
 1042 0 l 1,11,-1
EndSplineSet
EndChar

StartChar: tm_eight
Encoding: 3054 3054 103
Width: 1427
GlyphClass: 2
Flags: W
LayerCount: 2
Fore
SplineSet
849 629 m 1,0,1
 745 611 745 611 670 548.5 c 128,-1,2
 595 486 595 486 595 402 c 0,3,4
 595 338 595 338 638.5 291 c 128,-1,5
 682 244 682 244 744 244 c 0,6,7
 817 244 817 244 864 307.5 c 128,-1,8
 911 371 911 371 911 454 c 0,9,10
 911 580 911 580 849 629 c 1,0,1
1024 140 m 1,11,-1
 411 140 l 2,12,13
 381 140 381 140 357 125 c 128,-1,14
 333 110 333 110 333 87 c 0,15,16
 333 43 333 43 412 -13.5 c 128,-1,17
 491 -70 491 -70 639 -70 c 0,18,19
 743 -70 743 -70 839.5 -18 c 128,-1,20
 936 34 936 34 1024 140 c 1,11,-1
1414 -245 m 1,21,-1
 1269 -245 l 1,22,-1
 1348 140 l 1,23,-1
 1164 140 l 1,24,25
 1051 4 1051 4 915 -63.5 c 128,-1,26
 779 -131 779 -131 621 -131 c 0,27,28
 421 -131 421 -131 311.5 -52.5 c 128,-1,29
 202 26 202 26 202 123 c 0,30,31
 202 160 202 160 233 184.5 c 128,-1,32
 264 209 264 209 307 209 c 2,33,-1
 666 209 l 1,34,35
 604 231 604 231 565 284.5 c 128,-1,36
 526 338 526 338 526 402 c 0,37,38
 526 534 526 534 652 617 c 128,-1,39
 778 700 778 700 937 700 c 0,40,41
 1069 700 1069 700 1169 620.5 c 128,-1,42
 1269 541 1269 541 1269 420 c 0,43,44
 1269 306 1269 306 1213 209 c 1,45,-1
 1364 209 l 1,46,-1
 1463 700 l 1,47,-1
 1603 700 l 1,48,-1
 1414 -245 l 1,21,-1
989 620 m 1,49,50
 1042 530 1042 530 1042 411 c 0,51,52
 1042 267 1042 267 919 209 c 1,53,-1
 1077 209 l 1,54,55
 1146 308 1146 308 1146 402 c 0,56,57
 1146 486 1146 486 1103 553 c 128,-1,58
 1060 620 1060 620 989 620 c 1,49,50
EndSplineSet
EndChar

StartChar: tm_nine
Encoding: 3055 3055 104
Width: 1427
GlyphClass: 2
Flags: W
LayerCount: 2
Fore
SplineSet
692 316 m 1,0,-1
 422 316 l 2,1,2
 379 316 379 316 348 291 c 128,-1,3
 317 266 317 266 317 228 c 0,4,5
 317 158 317 158 387 114 c 128,-1,6
 457 70 457 70 544 70 c 0,7,8
 589 70 589 70 622 99.5 c 128,-1,9
 655 129 655 129 665 175 c 2,10,-1
 692 316 l 1,0,-1
756 630 m 1,11,-1
 562 630 l 1,12,-1
 513 386 l 1,13,-1
 707 386 l 1,14,-1
 756 630 l 1,11,-1
1157 175 m 0,15,16
 1157 259 1157 259 1052 298 c 1,17,18
 982 240 982 240 982 158 c 0,19,20
 982 121 982 121 1007.5 95.5 c 128,-1,21
 1033 70 1033 70 1068 70 c 0,22,23
 1107 70 1107 70 1132 101.5 c 128,-1,24
 1157 133 1157 133 1157 175 c 0,15,16
1297 0 m 1,25,26
 1375 93 1375 93 1375 193 c 0,27,28
 1375 263 1375 263 1332.5 315.5 c 128,-1,29
 1290 368 1290 368 1226 368 c 0,30,31
 1163 368 1163 368 1113 342 c 1,32,33
 1167 322 1167 322 1201 276.5 c 128,-1,34
 1235 231 1235 231 1235 175 c 0,35,36
 1235 104 1235 104 1187 52 c 128,-1,37
 1139 0 1139 0 1068 0 c 0,38,39
 1005 0 1005 0 958.5 46.5 c 128,-1,40
 912 93 912 93 912 158 c 0,41,42
 912 257 912 257 982 316 c 1,43,-1
 833 316 l 1,44,-1
 819 245 l 2,45,46
 795 125 795 125 718.5 62.5 c 128,-1,47
 642 0 642 0 544 0 c 0,48,49
 428 0 428 0 337 64 c 128,-1,50
 246 128 246 128 246 228 c 0,51,52
 246 294 246 294 299 340 c 128,-1,53
 352 386 352 386 422 386 c 2,54,-1
 446 386 l 1,55,-1
 508 700 l 1,56,-1
 1122 700 l 1,57,-1
 1104 630 l 1,58,-1
 896 630 l 1,59,-1
 847 386 l 1,60,-1
 947 386 l 2,61,62
 1014 386 1014 386 1052 368 c 1,63,64
 1111 420 1111 420 1226 420 c 0,65,66
 1327 420 1327 420 1399.5 354.5 c 128,-1,67
 1472 289 1472 289 1472 193 c 0,68,69
 1472 109 1472 109 1410 0 c 1,70,-1
 1297 0 l 1,25,26
EndSplineSet
EndChar

StartChar: tm_ten
Encoding: 3056 3056 105
Width: 1260
GlyphClass: 2
Flags: W
LayerCount: 2
Fore
SplineSet
597 149 m 1,0,1
 558 74 558 74 508 37 c 128,-1,2
 458 0 458 0 395 0 c 0,3,4
 302 0 302 0 242 64 c 128,-1,5
 182 128 182 128 182 200 c 0,6,7
 182 224 182 224 186 244 c 2,8,-1
 279 700 l 1,9,-1
 419 700 l 1,10,-1
 325 244 l 2,11,12
 320 223 320 223 320 205 c 0,13,14
 320 155 320 155 346.5 112.5 c 128,-1,15
 373 70 373 70 413 70 c 0,16,17
 472 70 472 70 525 146 c 128,-1,18
 578 222 578 222 606 359 c 2,19,-1
 675 700 l 1,20,-1
 815 700 l 1,21,-1
 746 351 l 2,22,23
 728 262 728 262 728 204 c 0,24,25
 728 150 728 150 760.5 110 c 128,-1,26
 793 70 793 70 841 70 c 0,27,28
 957 70 957 70 1026 204 c 128,-1,29
 1095 338 1095 338 1095 500 c 0,30,31
 1095 691 1095 691 995.5 840 c 128,-1,32
 896 989 896 989 737 989 c 1,33,-1
 755 1042 l 1,34,35
 960 1042 960 1042 1097.5 880.5 c 128,-1,36
 1235 719 1235 719 1235 500 c 0,37,38
 1235 300 1235 300 1118.5 150 c 128,-1,39
 1002 0 1002 0 824 0 c 0,40,41
 739 0 739 0 673.5 40.5 c 128,-1,42
 608 81 608 81 597 149 c 1,0,1
EndSplineSet
EndChar

StartChar: tm_hundred
Encoding: 3057 3057 106
Width: 1166
GlyphClass: 2
Flags: W
LayerCount: 2
Fore
SplineSet
1284 700 m 1,0,-1
 1267 629 l 1,1,-1
 1117 629 l 1,2,-1
 991 0 l 1,3,-1
 851 0 l 1,4,-1
 977 629 l 1,5,-1
 770 629 l 1,6,-1
 644 0 l 1,7,-1
 504 0 l 1,8,-1
 599 472 l 2,9,10
 606 507 606 507 606 534 c 0,11,12
 606 579 606 579 589 613 c 128,-1,13
 572 647 572 647 540 647 c 0,14,15
 483 647 483 647 440 595.5 c 128,-1,16
 397 544 397 544 382 472 c 2,17,-1
 285 0 l 1,18,-1
 146 0 l 1,19,-1
 242 472 l 2,20,21
 263 577 263 577 336.5 647 c 128,-1,22
 410 717 410 717 503 717 c 0,23,24
 567 717 567 717 614 679.5 c 128,-1,25
 661 642 661 642 661 585 c 1,26,-1
 685 700 l 1,27,-1
 1284 700 l 1,0,-1
EndSplineSet
EndChar

StartChar: tm_thousand
Encoding: 3058 3058 107
Width: 1256
GlyphClass: 2
Flags: W
LayerCount: 2
Fore
SplineSet
551 316 m 1,0,-1
 280 316 l 2,1,2
 237 316 237 316 206 291 c 128,-1,3
 175 266 175 266 175 228 c 0,4,5
 175 158 175 158 245.5 114 c 128,-1,6
 316 70 316 70 402 70 c 0,7,8
 447 70 447 70 480 99.5 c 128,-1,9
 513 129 513 129 523 175 c 2,10,-1
 551 316 l 1,0,-1
615 630 m 1,11,-1
 420 630 l 1,12,-1
 371 386 l 1,13,-1
 565 386 l 1,14,-1
 615 630 l 1,11,-1
677 245 m 2,15,16
 653 125 653 125 576 62.5 c 128,-1,17
 499 0 499 0 402 0 c 0,18,19
 285 0 285 0 195 64 c 128,-1,20
 105 128 105 128 105 228 c 0,21,22
 105 294 105 294 156.5 340 c 128,-1,23
 208 386 208 386 280 386 c 2,24,-1
 304 386 l 1,25,-1
 367 700 l 1,26,-1
 997 700 l 1,27,-1
 983 630 l 1,28,-1
 755 630 l 1,29,-1
 705 386 l 1,30,-1
 1120 386 l 1,31,-1
 1105 316 l 1,32,-1
 971 316 l 1,33,-1
 945 175 l 1,34,35
 990 228 990 228 1067 228 c 0,36,37
 1134 228 1134 228 1179.5 176 c 128,-1,38
 1225 124 1225 124 1225 53 c 0,39,40
 1225 -78 1225 -78 1108 -161 c 128,-1,41
 991 -244 991 -244 840 -244 c 0,42,43
 740 -244 740 -244 542 -205 c 0,44,45
 346 -167 346 -167 244 -167 c 0,46,47
 181 -167 181 -167 134 -206.5 c 128,-1,48
 87 -246 87 -246 87 -307 c 0,49,50
 87 -384 87 -384 158 -411 c 1,51,-1
 149 -445 l 1,52,53
 82 -433 82 -433 36.5 -387 c 128,-1,54
 -9 -341 -9 -341 -9 -280 c 0,55,56
 -9 -205 -9 -205 70.5 -159.5 c 128,-1,57
 150 -114 150 -114 244 -114 c 0,58,59
 346 -114 346 -114 542 -153 c 0,60,61
 740 -192 740 -192 840 -192 c 0,62,63
 938 -192 938 -192 1011.5 -135 c 128,-1,64
 1085 -78 1085 -78 1085 9 c 0,65,66
 1085 61 1085 61 1061 100.5 c 128,-1,67
 1037 140 1037 140 997 140 c 256,68,69
 957 140 957 140 927 88 c 1,70,-1
 910 0 l 1,71,-1
 769 0 l 1,72,-1
 831 316 l 1,73,-1
 691 316 l 1,74,-1
 677 245 l 2,15,16
EndSplineSet
EndChar

StartChar: zerowidthnonjoiner
Encoding: 8204 8204 108
Width: 0
GlyphClass: 2
Flags: W
LayerCount: 2
Fore
SplineSet
315 1225 m 1,0,-1
 -34 -516 l 1,1,-1
 -103 -516 l 1,2,-1
 244 1225 l 1,3,-1
 315 1225 l 1,0,-1
EndSplineSet
EndChar

StartChar: zerowidthjoiner
Encoding: 8205 8205 109
Width: 0
GlyphClass: 2
Flags: W
LayerCount: 2
Fore
SplineSet
415 997 m 1,0,-1
 363 953 l 1,1,-1
 270 1073 l 1,2,-1
 -24 -441 l 1,3,-1
 -87 -441 l 1,4,-1
 206 1073 l 1,5,-1
 65 953 l 1,6,-1
 32 997 l 1,7,-1
 210 1145 l 1,8,-1
 89 1292 l 1,9,-1
 140 1334 l 1,10,-1
 260 1185 l 1,11,-1
 437 1334 l 1,12,-1
 472 1292 l 1,13,-1
 294 1145 l 1,14,-1
 415 997 l 1,0,-1
EndSplineSet
EndChar

StartChar: u2013
Encoding: 8211 8211 110
Width: 722
GlyphClass: 2
Flags: W
LayerCount: 2
Fore
SplineSet
733 319 m 1,0,-1
 -12 319 l 1,1,-1
 -12 370 l 1,2,-1
 733 370 l 1,3,-1
 733 319 l 1,0,-1
EndSplineSet
EndChar

StartChar: u2014
Encoding: 8212 8212 111
Width: 1284
GlyphClass: 2
Flags: W
LayerCount: 2
Fore
SplineSet
1296 318 m 1,0,-1
 -13 319 l 1,1,-1
 -13 371 l 1,2,-1
 1296 370 l 1,3,-1
 1296 318 l 1,0,-1
EndSplineSet
EndChar

StartChar: u2018
Encoding: 8216 8216 112
Width: 330
GlyphClass: 2
Flags: W
LayerCount: 2
Fore
SplineSet
316 732 m 0,0,1
 316 672 316 672 270 626 c 0,2,3
 248 606 248 606 224 596 c 128,-1,4
 200 586 200 586 166 586 c 0,5,6
 112 586 112 586 62 630 c 128,-1,7
 12 674 12 674 12 742 c 0,8,9
 12 802 12 802 65 874 c 128,-1,10
 118 946 118 946 172 946 c 0,11,12
 218 946 218 946 218 906 c 0,13,14
 218 872 218 872 174 836 c 1,15,-1
 210 842 l 1,16,17
 250 842 250 842 284 812 c 0,18,19
 300 796 300 796 308 778 c 128,-1,20
 316 760 316 760 316 732 c 0,0,1
EndSplineSet
EndChar

StartChar: u2019
Encoding: 8217 8217 113
Width: 330
GlyphClass: 2
Flags: W
LayerCount: 2
Fore
SplineSet
316 776 m 0,0,1
 316 714 316 714 264 643 c 128,-1,2
 212 572 212 572 156 572 c 0,3,4
 110 572 110 572 110 612 c 0,5,6
 110 644 110 644 154 682 c 1,7,-1
 118 676 l 1,8,9
 74 676 74 676 44 704 c 128,-1,10
 14 732 14 732 14 784 c 0,11,12
 14 848 14 848 58 889 c 128,-1,13
 102 930 102 930 162 930 c 0,14,15
 216 930 216 930 266 887 c 128,-1,16
 316 844 316 844 316 776 c 0,0,1
EndSplineSet
EndChar

StartChar: u2026
Encoding: 8230 8230 116
Width: 1283
GlyphClass: 2
Flags: W
LayerCount: 2
Fore
SplineSet
265 136 m 0,0,1
 298 136 298 136 320.5 114 c 128,-1,2
 343 92 343 92 343 58 c 0,3,4
 343 26 343 26 320.5 3 c 128,-1,5
 298 -20 298 -20 265 -20 c 0,6,7
 233 -20 233 -20 210 3 c 128,-1,8
 187 26 187 26 187 58 c 0,9,10
 187 92 187 92 210 114 c 128,-1,11
 233 136 233 136 265 136 c 0,0,1
638 136 m 256,12,13
 670 136 670 136 693 114 c 128,-1,14
 716 92 716 92 716 58 c 0,15,16
 716 26 716 26 692.5 3 c 128,-1,17
 669 -20 669 -20 638 -20 c 0,18,19
 606 -20 606 -20 583 3 c 128,-1,20
 560 26 560 26 560 58 c 0,21,22
 560 92 560 92 583 114 c 128,-1,23
 606 136 606 136 638 136 c 256,12,13
1010 136 m 0,24,25
 1043 136 1043 136 1066 114 c 128,-1,26
 1089 92 1089 92 1089 58 c 0,27,28
 1089 26 1089 26 1065.5 3 c 128,-1,29
 1042 -20 1042 -20 1010 -20 c 256,30,31
 978 -20 978 -20 955.5 3 c 128,-1,32
 933 26 933 26 933 58 c 0,33,34
 933 92 933 92 955.5 114 c 128,-1,35
 978 136 978 136 1010 136 c 0,24,25
EndSplineSet
EndChar

StartChar: u2212
Encoding: 8722 8722 117
Width: 974
GlyphClass: 2
Flags: W
LayerCount: 2
Fore
SplineSet
133 450 m 1,0,-1
 133 508 l 1,1,-1
 894 508 l 1,2,-1
 894 450 l 1,3,-1
 133 450 l 1,0,-1
EndSplineSet
EndChar

StartChar: u25CC
Encoding: 9676 9676 118
Width: 1167
GlyphClass: 2
Flags: W
LayerCount: 2
Fore
SplineSet
654 665 m 0,0,1
 626 665 626 665 612 679 c 128,-1,2
 598 693 598 693 598 724 c 0,3,4
 598 746 598 746 615 762.5 c 128,-1,5
 632 779 632 779 654 779 c 0,6,7
 683 779 683 779 697.5 765 c 128,-1,8
 712 751 712 751 712 724 c 0,9,10
 712 693 712 693 697.5 679 c 128,-1,11
 683 665 683 665 654 665 c 0,0,1
840 616 m 0,12,13
 811 616 811 616 796.5 630.5 c 128,-1,14
 782 645 782 645 782 674 c 0,15,16
 782 701 782 701 796.5 715 c 128,-1,17
 811 729 811 729 840 729 c 0,18,19
 862 729 862 729 879 713 c 128,-1,20
 896 697 896 697 896 674 c 0,21,22
 896 645 896 645 882 630.5 c 128,-1,23
 868 616 868 616 840 616 c 0,12,13
470 616 m 0,24,25
 442 616 442 616 428 630.5 c 128,-1,26
 414 645 414 645 414 674 c 0,27,28
 414 697 414 697 431 713 c 128,-1,29
 448 729 448 729 470 729 c 0,30,31
 494 729 494 729 510 713 c 128,-1,32
 526 697 526 697 526 674 c 0,33,34
 526 645 526 645 512.5 630.5 c 128,-1,35
 499 616 499 616 470 616 c 0,24,25
973 482 m 0,36,37
 951 482 951 482 933.5 498 c 128,-1,38
 916 514 916 514 916 538 c 0,39,40
 916 567 916 567 930.5 581 c 128,-1,41
 945 595 945 595 973 595 c 256,42,43
 1001 595 1001 595 1014.5 581 c 128,-1,44
 1028 567 1028 567 1028 538 c 0,45,46
 1028 514 1028 514 1012 498 c 128,-1,47
 996 482 996 482 973 482 c 0,36,37
336 482 m 0,48,49
 307 482 307 482 293 495.5 c 128,-1,50
 279 509 279 509 279 538 c 256,51,52
 279 567 279 567 293 581 c 128,-1,53
 307 595 307 595 336 595 c 0,54,55
 364 595 364 595 378 581 c 128,-1,56
 392 567 392 567 392 538 c 0,57,58
 392 514 392 514 375 498 c 128,-1,59
 358 482 358 482 336 482 c 0,48,49
1024 298 m 0,60,61
 994 298 994 298 979.5 311.5 c 128,-1,62
 965 325 965 325 965 354 c 0,63,64
 965 382 965 382 979.5 396 c 128,-1,65
 994 410 994 410 1024 410 c 0,66,67
 1046 410 1046 410 1063 393 c 128,-1,68
 1080 376 1080 376 1080 354 c 0,69,70
 1080 331 1080 331 1063 314.5 c 128,-1,71
 1046 298 1046 298 1024 298 c 0,60,61
287 298 m 0,72,73
 257 298 257 298 243 311.5 c 128,-1,74
 229 325 229 325 229 354 c 0,75,76
 229 382 229 382 243 396 c 128,-1,77
 257 410 257 410 287 410 c 0,78,79
 310 410 310 410 326.5 393 c 128,-1,80
 343 376 343 376 343 354 c 0,81,82
 343 331 343 331 326.5 314.5 c 128,-1,83
 310 298 310 298 287 298 c 0,72,73
973 112 m 256,84,85
 945 112 945 112 930.5 126.5 c 128,-1,86
 916 141 916 141 916 169 c 0,87,88
 916 193 916 193 933.5 209.5 c 128,-1,89
 951 226 951 226 973 226 c 0,90,91
 996 226 996 226 1012 209.5 c 128,-1,92
 1028 193 1028 193 1028 169 c 0,93,94
 1028 141 1028 141 1014.5 126.5 c 128,-1,95
 1001 112 1001 112 973 112 c 256,84,85
336 112 m 0,96,97
 307 112 307 112 293 126.5 c 128,-1,98
 279 141 279 141 279 169 c 0,99,100
 279 198 279 198 293 212 c 128,-1,101
 307 226 307 226 336 226 c 0,102,103
 358 226 358 226 375 209.5 c 128,-1,104
 392 193 392 193 392 169 c 0,105,106
 392 141 392 141 378 126.5 c 128,-1,107
 364 112 364 112 336 112 c 0,96,97
840 -22 m 0,108,109
 811 -22 811 -22 796.5 -8 c 128,-1,110
 782 6 782 6 782 34 c 0,111,112
 782 63 782 63 796.5 78 c 128,-1,113
 811 93 811 93 840 93 c 0,114,115
 863 93 863 93 879.5 75 c 128,-1,116
 896 57 896 57 896 34 c 256,117,118
 896 11 896 11 879 -5.5 c 128,-1,119
 862 -22 862 -22 840 -22 c 0,108,109
470 -22 m 0,120,121
 448 -22 448 -22 431 -5.5 c 128,-1,122
 414 11 414 11 414 34 c 256,123,124
 414 57 414 57 430.5 75 c 128,-1,125
 447 93 447 93 470 93 c 0,126,127
 495 93 495 93 510.5 75 c 128,-1,128
 526 57 526 57 526 34 c 256,129,130
 526 11 526 11 510 -5.5 c 128,-1,131
 494 -22 494 -22 470 -22 c 0,120,121
654 -72 m 0,132,133
 632 -72 632 -72 615 -55 c 128,-1,134
 598 -38 598 -38 598 -16 c 0,135,136
 598 14 598 14 612 28.5 c 128,-1,137
 626 43 626 43 654 43 c 0,138,139
 683 43 683 43 697.5 28.5 c 128,-1,140
 712 14 712 14 712 -16 c 0,141,142
 712 -44 712 -44 697.5 -58 c 128,-1,143
 683 -72 683 -72 654 -72 c 0,132,133
EndSplineSet
EndChar

StartChar: tm_k_ikaar
Encoding: 65540 -1 119
Width: 928
GlyphClass: 2
Flags: W
LayerCount: 2
Fore
SplineSet
804 1084 m 0,0,1
 804 1036 804 1036 783 1003 c 128,-1,2
 762 970 762 970 724 970 c 0,3,4
 688 970 688 970 650 1042 c 0,5,6
 628 1086 628 1086 603 1124 c 128,-1,7
 578 1162 578 1162 564 1178 c 0,8,9
 488 1250 488 1250 372 1250 c 0,10,11
 278 1250 278 1250 190 1183 c 128,-1,12
 102 1116 102 1116 102 1022 c 0,13,14
 102 952 102 952 138 894 c 0,15,16
 158 866 158 866 204 830 c 0,17,18
 238 806 238 806 240 788 c 0,19,20
 240 760 240 760 204 730 c 1,21,22
 172 710 172 710 148 706 c 1,23,24
 88 706 88 706 18 788 c 0,25,26
 -60 884 -60 884 -60 1016 c 0,27,28
 -60 1190 -60 1190 66 1301 c 128,-1,29
 192 1412 192 1412 368 1412 c 0,30,31
 554 1412 554 1412 690 1278 c 0,32,33
 804 1170 804 1170 804 1084 c 0,0,1
900 178 m 0,34,35
 900 92 900 92 800 34 c 0,36,37
 714 -14 714 -14 642 -14 c 0,38,39
 584 -14 584 -14 546 8 c 1,40,41
 494 32 494 32 494 84 c 0,42,43
 494 112 494 112 524 136 c 0,44,45
 546 152 546 152 568 152 c 1,46,-1
 602 144 l 1,47,48
 626 134 626 134 656 134 c 0,49,50
 734 134 734 134 734 190 c 0,51,52
 734 260 734 260 578 260 c 0,53,54
 546 260 546 260 528 256 c 1,55,56
 510 198 510 198 430 130 c 0,57,58
 322 44 322 44 196 44 c 0,59,60
 110 44 110 44 62 78 c 0,61,62
 28 102 28 102 24 132 c 1,63,64
 24 226 24 226 130 308 c 0,65,66
 192 356 192 356 266 382 c 128,-1,67
 340 408 340 408 424 408 c 1,68,69
 436 436 436 436 436 510 c 0,70,71
 436 542 436 542 416 580 c 0,72,73
 394 614 394 614 366 614 c 256,74,75
 338 614 338 614 292 540 c 1,76,77
 254 466 254 466 210 466 c 0,78,79
 186 466 186 466 152 488 c 1,80,81
 122 514 122 514 122 546 c 0,82,83
 122 608 122 608 194 684 c 1,84,85
 270 754 270 754 350 754 c 0,86,87
 432 754 432 754 504 684 c 0,88,89
 584 604 584 604 584 496 c 0,90,91
 584 476 584 476 564 398 c 1,92,93
 672 398 672 398 762 358 c 0,94,95
 900 300 900 300 900 178 c 0,34,35
378 270 m 1,96,97
 328 280 328 280 264 240 c 0,98,99
 212 206 212 206 210 186 c 0,100,101
 210 166 210 166 246 166 c 0,102,103
 280 166 280 166 326 200 c 128,-1,104
 372 234 372 234 378 270 c 1,96,97
EndSplineSet
Ligature2: "'psts' Post Base Substitutions lookup 8 subtable" tm_ka tm_ikaar
EndChar

StartChar: tm_ng_ikaar
Encoding: 65541 -1 120
Width: 1562
GlyphClass: 2
Flags: W
LayerCount: 2
Fore
SplineSet
1466 842 m 0,0,1
 1466 508 1466 508 1357 240 c 128,-1,2
 1248 -28 1248 -28 1116 -28 c 0,3,4
 1040 -28 1040 -28 986 38 c 0,5,6
 962 66 962 66 916 160 c 1,7,8
 890 224 890 224 868 226 c 0,9,10
 798 226 798 226 698 102 c 0,11,12
 624 10 624 10 564 10 c 0,13,14
 482 10 482 10 482 80 c 2,15,-1
 482 146 l 1,16,-1
 484 304 l 2,17,18
 484 506 484 506 452 540 c 1,19,20
 372 504 372 504 292 330 c 0,21,22
 238 204 238 204 216 84 c 0,23,24
 214 64 214 64 188 42 c 0,25,26
 156 10 156 10 106 10 c 0,27,28
 28 10 28 10 28 68 c 0,29,30
 28 116 28 116 96 272 c 0,31,32
 178 456 178 456 266 578 c 0,33,34
 380 734 380 734 484 734 c 0,35,36
 638 734 638 734 638 384 c 1,37,-1
 636 304 l 1,38,-1
 634 258 l 1,39,40
 764 390 764 390 888 390 c 0,41,42
 970 390 970 390 1032 296 c 1,43,-1
 1116 152 l 1,44,45
 1208 230 1208 230 1256 460 c 0,46,47
 1288 612 1288 612 1288 750 c 1,48,-1
 1282 816 l 1,49,-1
 1276 866 l 1,50,51
 1276 936 1276 936 1374 936 c 0,52,53
 1444 936 1444 936 1458 910 c 0,54,55
 1466 894 1466 894 1466 842 c 0,0,1
1678 1230 m 0,56,57
 1678 1194 1678 1194 1654 1168 c 0,58,59
 1632 1138 1632 1138 1586 1138 c 0,60,61
 1550 1138 1550 1138 1518 1176 c 2,62,-1
 1450 1252 l 1,63,64
 1398 1292 1398 1292 1326 1292 c 0,65,66
 1206 1292 1206 1292 1126 1222 c 128,-1,67
 1046 1152 1046 1152 1046 1056 c 0,68,69
 1046 986 1046 986 1080 946 c 1,70,-1
 1160 902 l 1,71,-1
 1226 872 l 1,72,73
 1258 850 1258 850 1258 806 c 0,74,75
 1258 776 1258 776 1223 753 c 128,-1,76
 1188 730 1188 730 1160 726 c 1,77,78
 1062 726 1062 726 976 804 c 0,79,80
 872 896 872 896 872 1064 c 0,81,82
 872 1236 872 1236 1009 1349 c 128,-1,83
 1146 1462 1146 1462 1302 1462 c 0,84,85
 1486 1462 1486 1462 1590 1378 c 0,86,87
 1678 1312 1678 1312 1678 1230 c 0,56,57
EndSplineSet
Ligature2: "'psts' Post Base Substitutions lookup 8 subtable" tm_nga tm_ikaar
EndChar

StartChar: tm_c_ikaar
Encoding: 65542 -1 121
Width: 764
GlyphClass: 2
Flags: W
LayerCount: 2
Fore
SplineSet
762 1014 m 0,0,1
 762 904 762 904 684 904 c 0,2,3
 638 904 638 904 600 980 c 0,4,5
 546 1090 546 1090 518 1116 c 1,6,7
 452 1192 452 1192 330 1192 c 0,8,9
 232 1192 232 1192 147 1118 c 128,-1,10
 62 1044 62 1044 62 950 c 0,11,12
 62 876 62 876 94 820 c 0,13,14
 112 794 112 794 152 756 c 0,15,16
 184 730 184 730 184 714 c 0,17,18
 184 682 184 682 152 658 c 128,-1,19
 120 634 120 634 96 632 c 0,20,21
 36 632 36 632 -30 716 c 1,22,23
 -110 810 -110 810 -110 944 c 0,24,25
 -110 1118 -110 1118 15 1232 c 128,-1,26
 140 1346 140 1346 316 1346 c 0,27,28
 498 1346 498 1346 644 1210 c 0,29,30
 762 1098 762 1098 762 1014 c 0,0,1
750 288 m 0,31,32
 750 214 750 214 692 214 c 0,33,34
 682 214 682 214 665 216 c 128,-1,35
 648 218 648 218 626 226 c 2,36,-1
 560 246 l 1,37,38
 548 162 548 162 440 75 c 128,-1,39
 332 -12 332 -12 216 -12 c 0,40,41
 116 -12 116 -12 64 50 c 1,42,43
 28 102 28 102 28 150 c 0,44,45
 28 270 28 270 206 350 c 0,46,47
 326 404 326 404 400 404 c 0,48,49
 420 404 420 404 428 402 c 1,50,-1
 434 452 l 1,51,52
 434 506 434 506 412 548 c 128,-1,53
 390 590 390 590 354 590 c 0,54,55
 328 590 328 590 301 525 c 128,-1,56
 274 460 274 460 210 460 c 0,57,58
 168 460 168 460 147 484 c 128,-1,59
 126 508 126 508 126 532 c 0,60,61
 126 602 126 602 214 678 c 0,62,63
 296 744 296 744 354 744 c 0,64,65
 454 744 454 744 520 642 c 0,66,67
 550 594 550 594 565 532 c 128,-1,68
 580 470 580 470 580 396 c 1,69,70
 608 392 608 392 634 385 c 128,-1,71
 660 378 660 378 684 364 c 0,72,73
 750 334 750 334 750 288 c 0,31,32
390 262 m 1,74,75
 344 262 344 262 251 225 c 128,-1,76
 158 188 158 188 158 148 c 0,77,78
 158 122 158 122 198 122 c 256,79,80
 238 122 238 122 306 168 c 128,-1,81
 374 214 374 214 390 262 c 1,74,75
EndSplineSet
Ligature2: "'psts' Post Base Substitutions lookup 8 subtable" tm_ca tm_ikaar
EndChar

StartChar: tm_j_ikaar
Encoding: 65543 -1 122
Width: 1246
GlyphClass: 2
Flags: W
LayerCount: 2
Fore
SplineSet
1390 1162 m 0,0,1
 1390 1122 1390 1122 1367 1086 c 128,-1,2
 1344 1050 1344 1050 1308 1050 c 0,3,4
 1260 1050 1260 1050 1238 1080 c 1,5,-1
 1194 1162 l 2,6,7
 1130 1284 1130 1284 974 1284 c 0,8,9
 868 1284 868 1284 788 1214 c 1,10,11
 716 1144 716 1144 716 1062 c 0,12,13
 716 1004 716 1004 756 966 c 1,14,-1
 830 914 l 2,15,16
 870 890 870 890 872 866 c 0,17,18
 872 818 872 818 838 784 c 1,19,20
 802 754 802 754 760 754 c 0,21,22
 694 754 694 754 624 826 c 0,23,24
 538 918 538 918 538 1064 c 0,25,26
 538 1214 538 1214 660 1337 c 128,-1,27
 782 1460 782 1460 950 1460 c 0,28,29
 1138 1460 1138 1460 1276 1352 c 0,30,31
 1390 1260 1390 1260 1390 1162 c 0,0,1
1216 556 m 0,32,33
 1216 474 1216 474 1142 401 c 128,-1,34
 1068 328 1068 328 946 292 c 0,35,36
 906 282 906 282 815 276 c 128,-1,37
 724 270 724 270 588 270 c 0,38,39
 410 270 410 270 316 242 c 1,40,41
 212 206 212 206 212 120 c 0,42,43
 212 54 212 54 294 54 c 0,44,45
 416 54 416 54 668 130 c 128,-1,46
 920 206 920 206 974 206 c 0,47,48
 1068 206 1068 206 1126 160 c 0,49,50
 1184 118 1184 118 1184 44 c 0,51,52
 1184 -6 1184 -6 1152 -33 c 128,-1,53
 1120 -60 1120 -60 1072 -60 c 0,54,55
 1008 -60 1008 -60 976 -11 c 128,-1,56
 944 38 944 38 916 40 c 1,57,-1
 680 -34 l 2,58,59
 456 -108 456 -108 294 -108 c 0,60,61
 190 -108 190 -108 109 -44 c 128,-1,62
 28 20 28 20 28 126 c 256,63,64
 28 232 28 232 107 309 c 128,-1,65
 186 386 186 386 310 416 c 0,66,67
 338 420 338 420 372 426 c 128,-1,68
 406 432 406 432 438 432 c 2,69,-1
 560 432 l 1,70,-1
 648 430 l 1,71,72
 826 430 826 430 890 442 c 0,73,74
 1024 466 1024 466 1024 556 c 0,75,76
 1024 606 1024 606 964 606 c 0,77,78
 876 606 876 606 736 541 c 128,-1,79
 596 476 596 476 558 476 c 0,80,81
 488 476 488 476 450 574 c 1,82,-1
 400 756 l 1,83,84
 366 854 366 854 292 854 c 0,85,86
 262 854 262 854 226 816 c 1,87,88
 196 772 196 772 196 740 c 0,89,90
 196 684 196 684 260 684 c 0,91,92
 344 684 344 684 344 608 c 0,93,94
 344 516 344 516 216 516 c 0,95,96
 150 516 150 516 92 582 c 128,-1,97
 34 648 34 648 34 744 c 0,98,99
 34 832 34 832 104 929 c 128,-1,100
 174 1026 174 1026 274 1026 c 0,101,102
 408 1026 408 1026 484 930 c 1,103,104
 516 882 516 882 558 752 c 0,105,106
 588 656 588 656 622 656 c 0,107,108
 652 656 652 656 770 716 c 0,109,110
 828 748 828 748 880 764 c 128,-1,111
 932 780 932 780 984 780 c 0,112,113
 1094 780 1094 780 1158 712 c 0,114,115
 1216 650 1216 650 1216 556 c 0,32,33
EndSplineSet
Ligature2: "'psts' Post Base Substitutions lookup 8 subtable" tm_ja tm_ikaar
EndChar

StartChar: tm_ny_ikaar
Encoding: 65544 -1 123
Width: 1214
GlyphClass: 2
Flags: W
LayerCount: 2
Fore
SplineSet
990 1152 m 0,0,1
 990 1112 990 1112 967 1076 c 128,-1,2
 944 1040 944 1040 908 1040 c 0,3,4
 860 1040 860 1040 838 1070 c 1,5,-1
 794 1152 l 2,6,7
 730 1274 730 1274 574 1274 c 0,8,9
 468 1274 468 1274 388 1204 c 1,10,11
 316 1134 316 1134 316 1052 c 0,12,13
 316 994 316 994 356 956 c 1,14,-1
 430 904 l 2,15,16
 470 880 470 880 472 856 c 0,17,18
 472 808 472 808 438 774 c 1,19,20
 402 744 402 744 360 744 c 0,21,22
 294 744 294 744 224 816 c 0,23,24
 138 908 138 908 138 1054 c 0,25,26
 138 1204 138 1204 260 1327 c 128,-1,27
 382 1450 382 1450 550 1450 c 0,28,29
 738 1450 738 1450 876 1342 c 0,30,31
 990 1250 990 1250 990 1152 c 0,0,1
1076 18 m 0,32,33
 1076 -120 1076 -120 904 -222 c 0,34,35
 746 -314 746 -314 556 -314 c 0,36,37
 432 -314 432 -314 272 -268 c 0,38,39
 92 -216 92 -216 92 -146 c 0,40,41
 92 -72 92 -72 198 -72 c 0,42,43
 212 -72 212 -72 330 -110 c 128,-1,44
 448 -148 448 -148 542 -148 c 0,45,46
 680 -148 680 -148 798 -101 c 128,-1,47
 916 -54 916 -54 916 12 c 0,48,49
 916 92 916 92 790 92 c 0,50,51
 618 92 618 92 618 274 c 0,52,53
 618 602 618 602 572 608 c 1,54,55
 420 572 420 572 298 448 c 0,56,57
 188 332 188 332 188 250 c 0,58,59
 188 200 188 200 232 200 c 1,60,-1
 278 216 l 2,61,62
 312 232 312 232 340 236 c 0,63,64
 368 236 368 236 392 220 c 0,65,66
 434 198 434 198 434 148 c 0,67,68
 434 102 434 102 370 70 c 0,69,70
 316 46 316 46 252 46 c 0,71,72
 156 46 156 46 90 112 c 0,73,74
 28 178 28 178 28 274 c 0,75,76
 28 434 28 434 220 599 c 128,-1,77
 412 764 412 764 616 764 c 0,78,79
 762 764 762 764 762 642 c 0,80,81
 762 562 762 562 780 444 c 0,82,83
 788 392 788 392 790 348 c 128,-1,84
 792 304 792 304 792 246 c 1,85,-1
 830 248 l 1,86,87
 926 248 926 248 1001 183 c 128,-1,88
 1076 118 1076 118 1076 18 c 0,32,33
EndSplineSet
Ligature2: "'psts' Post Base Substitutions lookup 8 subtable" tm_nya tm_ikaar
EndChar

StartChar: tm_tt_ikaar
Encoding: 65545 -1 124
Width: 1138
GlyphClass: 2
Flags: W
LayerCount: 2
Fore
SplineSet
1124 124 m 0,0,1
 1124 64 1124 64 1086 42 c 0,2,3
 1064 32 1064 32 976 16 c 1,4,-1
 838 6 l 1,5,-1
 752 -316 l 2,6,7
 746 -352 746 -352 740 -371 c 128,-1,8
 734 -390 734 -390 718 -440 c 1,9,10
 704 -502 704 -502 640 -502 c 0,11,12
 614 -502 614 -502 582 -478 c 128,-1,13
 550 -454 550 -454 550 -418 c 0,14,15
 550 -352 550 -352 586 -246 c 0,16,17
 604 -188 604 -188 627 -117 c 128,-1,18
 650 -46 650 -46 660 0 c 1,19,20
 28 0 28 0 28 324 c 0,21,22
 28 472 28 472 108 658 c 128,-1,23
 188 844 188 844 250 844 c 0,24,25
 288 844 288 844 320 818 c 0,26,27
 348 800 348 800 352 774 c 1,28,29
 352 738 352 738 284 608 c 0,30,31
 200 446 200 446 200 346 c 256,32,33
 200 246 200 246 348 198 c 0,34,35
 400 182 400 182 467 172 c 128,-1,36
 534 162 534 162 608 162 c 0,37,38
 664 162 664 162 700 168 c 1,39,40
 716 198 716 198 716 256 c 0,41,42
 716 370 716 370 636 370 c 0,43,44
 572 370 572 370 572 260 c 0,45,46
 572 244 572 244 544 222 c 1,47,48
 516 206 516 206 494 206 c 0,49,50
 402 206 402 206 402 320 c 0,51,52
 402 436 402 436 478 504 c 0,53,54
 536 558 536 558 614 558 c 0,55,56
 748 558 748 558 820 456 c 0,57,58
 848 416 848 416 862 368 c 128,-1,59
 876 320 876 320 876 256 c 0,60,61
 876 204 876 204 866 172 c 1,62,-1
 964 190 l 2,63,64
 968 192 968 192 1001 199 c 128,-1,65
 1034 206 1034 206 1042 206 c 0,66,67
 1068 206 1068 206 1092 188 c 0,68,69
 1124 168 1124 168 1124 124 c 0,0,1
EndSplineSet
Ligature2: "'psts' Post Base Substitutions lookup 8 subtable" tm_tta tm_ikaar
EndChar

StartChar: tm_nn_ikaar
Encoding: 65546 -1 125
Width: 1672
GlyphClass: 2
Flags: W
LayerCount: 2
Fore
SplineSet
1700 1046 m 0,0,1
 1700 930 1700 930 1616 930 c 0,2,3
 1578 930 1578 930 1554 966 c 1,4,-1
 1516 1040 l 2,5,6
 1484 1100 1484 1100 1416 1148 c 128,-1,7
 1348 1196 1348 1196 1272 1196 c 0,8,9
 1176 1196 1176 1196 1095 1127 c 128,-1,10
 1014 1058 1014 1058 1014 960 c 0,11,12
 1014 884 1014 884 1048 830 c 0,13,14
 1068 800 1068 800 1114 760 c 0,15,16
 1148 732 1148 732 1148 716 c 0,17,18
 1148 686 1148 686 1106 656 c 0,19,20
 1072 634 1072 634 1048 634 c 0,21,22
 990 634 990 634 920 722 c 0,23,24
 842 824 842 824 842 956 c 0,25,26
 842 1132 842 1132 965 1242 c 128,-1,27
 1088 1352 1088 1352 1264 1352 c 0,28,29
 1362 1352 1362 1352 1439 1323 c 128,-1,30
 1516 1294 1516 1294 1586 1230 c 0,31,32
 1700 1128 1700 1128 1700 1046 c 0,0,1
1606 -130 m 2,33,34
 1606 -240 1606 -240 1518 -240 c 0,35,36
 1440 -240 1440 -240 1440 -132 c 2,37,-1
 1440 358 l 2,38,39
 1440 568 1440 568 1356 568 c 0,40,41
 1244 568 1244 568 1122 452 c 1,42,43
 1264 380 1264 380 1264 250 c 0,44,45
 1264 166 1264 166 1201 103 c 128,-1,46
 1138 40 1138 40 1048 40 c 0,47,48
 948 40 948 40 892 102 c 0,49,50
 844 160 844 160 844 248 c 0,51,52
 844 304 844 304 878 386 c 1,53,-1
 706 386 l 1,54,55
 752 330 752 330 752 230 c 256,56,57
 752 130 752 130 693 75 c 128,-1,58
 634 20 634 20 544 20 c 0,59,60
 456 20 456 20 398 80 c 0,61,62
 350 132 350 132 350 222 c 0,63,64
 350 322 350 322 430 404 c 1,65,-1
 400 406 l 1,66,67
 328 406 328 406 262 358 c 0,68,69
 190 302 190 302 190 222 c 0,70,71
 190 180 190 180 236 152 c 1,72,73
 284 130 284 130 284 84 c 0,74,75
 284 54 284 54 252 27 c 128,-1,76
 220 0 220 0 182 0 c 0,77,78
 130 0 130 0 78 66 c 1,79,80
 28 138 28 138 28 208 c 0,81,82
 28 350 28 350 148 450 c 1,83,84
 258 550 258 550 398 550 c 0,85,86
 532 550 532 550 592 496 c 1,87,88
 668 526 668 526 794 526 c 0,89,90
 900 526 900 526 984 512 c 1,91,92
 1042 584 1042 584 1140 642 c 0,93,94
 1266 716 1266 716 1386 716 c 0,95,96
 1478 716 1478 716 1542 658 c 128,-1,97
 1606 600 1606 600 1606 512 c 2,98,-1
 1606 -130 l 2,33,34
1098 246 m 0,99,100
 1098 284 1098 284 1034 334 c 1,101,102
 998 256 998 256 998 226 c 0,103,104
 998 184 998 184 1052 184 c 0,105,106
 1098 184 1098 184 1098 246 c 0,99,100
622 240 m 0,107,108
 622 256 622 256 616 279 c 128,-1,109
 610 302 610 302 586 344 c 1,110,111
 550 334 550 334 516 292 c 0,112,113
 490 256 490 256 490 226 c 0,114,115
 490 152 490 152 538 152 c 0,116,117
 568 152 568 152 594 178 c 1,118,119
 622 200 622 200 622 240 c 0,107,108
EndSplineSet
Ligature2: "'psts' Post Base Substitutions lookup 8 subtable" tm_nna tm_ikaar
EndChar

StartChar: tm_t_ikaar
Encoding: 65547 -1 126
Width: 814
GlyphClass: 2
Flags: W
LayerCount: 2
Fore
SplineSet
716 1020 m 0,0,1
 716 906 716 906 628 906 c 0,2,3
 588 906 588 906 564 944 c 2,4,-1
 522 1020 l 2,5,6
 484 1092 484 1092 444 1122 c 0,7,8
 382 1168 382 1168 282 1168 c 256,9,10
 182 1168 182 1168 98 1097 c 128,-1,11
 14 1026 14 1026 14 930 c 0,12,13
 14 856 14 856 52 804 c 0,14,15
 70 780 70 780 124 740 c 0,16,17
 164 710 164 710 164 688 c 0,18,19
 164 652 164 652 124 624 c 0,20,21
 98 610 98 610 68 606 c 1,22,23
 -2 606 -2 606 -74 696 c 0,24,25
 -152 796 -152 796 -152 930 c 0,26,27
 -152 1110 -152 1110 -30 1218 c 128,-1,28
 92 1326 92 1326 272 1326 c 0,29,30
 458 1326 458 1326 598 1210 c 0,31,32
 716 1112 716 1112 716 1020 c 0,0,1
784 136 m 0,33,34
 784 60 784 60 714 -187 c 128,-1,35
 644 -434 644 -434 644 -558 c 0,36,37
 644 -634 644 -634 628 -663 c 128,-1,38
 612 -692 612 -692 566 -692 c 0,39,40
 474 -692 474 -692 474 -588 c 0,41,42
 474 -480 474 -480 545 -220 c 128,-1,43
 616 40 616 40 616 68 c 0,44,45
 616 128 616 128 594 172 c 0,46,47
 572 224 572 224 528 224 c 1,48,49
 510 156 510 156 414 88 c 0,50,51
 306 10 306 10 194 10 c 0,52,53
 28 10 28 10 28 130 c 0,54,55
 28 276 28 276 178 352 c 0,56,57
 228 378 228 378 296 392 c 128,-1,58
 364 406 364 406 428 406 c 1,59,-1
 432 448 l 2,60,61
 432 466 432 466 431 490 c 128,-1,62
 430 514 430 514 416 550 c 0,63,64
 402 598 402 598 372 602 c 0,65,66
 352 602 352 602 302 528 c 0,67,68
 256 454 256 454 190 454 c 0,69,70
 136 454 136 454 136 532 c 0,71,72
 136 586 136 586 200 658 c 0,73,74
 272 742 272 742 348 742 c 0,75,76
 448 742 448 742 514 650 c 1,77,78
 570 560 570 560 570 442 c 2,79,-1
 570 418 l 2,80,81
 570 404 570 404 566 380 c 1,82,83
 660 358 660 358 720 290 c 0,84,85
 784 222 784 222 784 136 c 0,33,34
382 284 m 1,86,87
 334 284 334 284 250 237 c 128,-1,88
 166 190 166 190 166 156 c 0,89,90
 166 142 166 142 208 142 c 0,91,92
 230 142 230 142 252 151 c 128,-1,93
 274 160 274 160 304 184 c 0,94,95
 358 224 358 224 382 284 c 1,86,87
EndSplineSet
Ligature2: "'psts' Post Base Substitutions lookup 8 subtable" tm_ta tm_ikaar
EndChar

StartChar: tm_n_ikaar
Encoding: 65548 -1 127
Width: 928
GlyphClass: 2
Flags: W
LayerCount: 2
Fore
SplineSet
786 1196 m 0,0,1
 786 1086 786 1086 704 1086 c 0,2,3
 664 1086 664 1086 624 1140 c 0,4,5
 572 1214 572 1214 546 1240 c 0,6,7
 484 1292 484 1292 386 1292 c 0,8,9
 272 1292 272 1292 189 1224 c 128,-1,10
 106 1156 106 1156 106 1054 c 0,11,12
 106 964 106 964 152 918 c 1,13,-1
 242 864 l 2,14,15
 288 836 288 836 288 784 c 0,16,17
 288 752 288 752 248 724 c 0,18,19
 210 702 210 702 188 702 c 0,20,21
 104 702 104 702 17 810 c 128,-1,22
 -70 918 -70 918 -70 1054 c 0,23,24
 -70 1224 -70 1224 66 1348 c 1,25,26
 196 1460 196 1460 366 1460 c 0,27,28
 548 1460 548 1460 678 1362 c 0,29,30
 786 1280 786 1280 786 1196 c 0,0,1
900 12 m 0,31,32
 900 -190 900 -190 806 -484 c 1,33,-1
 742 -702 l 1,34,35
 702 -806 702 -806 644 -806 c 0,36,37
 568 -806 568 -806 568 -706 c 1,38,-1
 652 -412 l 1,39,40
 738 -134 738 -134 738 -34 c 0,41,42
 738 92 738 92 698 92 c 0,43,44
 670 92 670 92 600 46 c 128,-1,45
 530 0 530 0 492 0 c 0,46,47
 470 0 470 0 449 30 c 128,-1,48
 428 60 428 60 428 80 c 2,49,-1
 436 206 l 1,50,-1
 446 334 l 1,51,52
 446 408 446 408 434 478 c 128,-1,53
 422 548 422 548 406 552 c 1,54,55
 372 552 372 552 252 276 c 1,56,-1
 200 76 l 2,57,58
 178 -14 178 -14 124 -14 c 0,59,60
 88 -14 88 -14 58 13 c 128,-1,61
 28 40 28 40 28 94 c 0,62,63
 28 226 28 226 156 494 c 0,64,65
 298 794 298 794 418 794 c 0,66,67
 602 794 602 794 602 380 c 1,68,-1
 596 220 l 1,69,70
 662 254 662 254 714 254 c 0,71,72
 786 254 786 254 843 190 c 128,-1,73
 900 126 900 126 900 12 c 0,31,32
EndSplineSet
Ligature2: "'psts' Post Base Substitutions lookup 8 subtable" tm_na tm_ikaar
EndChar

StartChar: tm_nnn_ikaar
Encoding: 65549 -1 128
Width: 1110
GlyphClass: 2
Flags: W
LayerCount: 2
Fore
SplineSet
1182 1028 m 0,0,1
 1182 980 1182 980 1152 944 c 1,2,3
 1128 908 1128 908 1086 908 c 0,4,5
 1028 908 1028 908 1014 956 c 2,6,-1
 980 1058 l 1,7,8
 914 1184 914 1184 754 1184 c 0,9,10
 644 1184 644 1184 572 1119 c 128,-1,11
 500 1054 500 1054 500 970 c 0,12,13
 500 904 500 904 562 836 c 128,-1,14
 624 768 624 768 626 750 c 0,15,16
 626 712 626 712 597 682 c 128,-1,17
 568 652 568 652 528 652 c 0,18,19
 470 652 470 652 400 732 c 1,20,21
 322 832 322 832 322 972 c 0,22,23
 322 1120 322 1120 442 1238 c 128,-1,24
 562 1356 562 1356 730 1356 c 0,25,26
 914 1356 914 1356 1056 1234 c 0,27,28
 1182 1126 1182 1126 1182 1028 c 0,0,1
1082 -38 m 1,29,30
 1082 -224 1082 -224 994 -224 c 0,31,32
 928 -224 928 -224 908 -170 c 0,33,34
 896 -140 896 -140 896 -72 c 2,35,-1
 898 68 l 1,36,-1
 900 216 l 1,37,38
 900 570 900 570 816 570 c 0,39,40
 796 570 796 570 720 528 c 0,41,42
 696 514 696 514 674 502 c 0,43,44
 642 482 642 482 620 462 c 1,45,46
 720 372 720 372 720 270 c 0,47,48
 720 170 720 170 644 102 c 0,49,50
 582 50 582 50 522 50 c 0,51,52
 426 50 426 50 364 111 c 128,-1,53
 302 172 302 172 302 296 c 0,54,55
 302 344 302 344 316 386 c 1,56,57
 272 386 272 386 233 344 c 128,-1,58
 194 302 194 302 194 254 c 0,59,60
 194 222 194 222 226 172 c 0,61,62
 260 126 260 126 260 90 c 0,63,64
 260 58 260 58 236 24 c 1,65,66
 212 0 212 0 178 0 c 0,67,68
 110 0 110 0 69 61 c 128,-1,69
 28 122 28 122 28 220 c 0,70,71
 28 366 28 366 121 456 c 128,-1,72
 214 546 214 546 334 546 c 0,73,74
 388 546 388 546 436 526 c 1,75,76
 476 586 476 586 604 652 c 0,77,78
 760 736 760 736 886 736 c 0,79,80
 982 736 982 736 1026 608 c 0,81,82
 1040 564 1040 564 1051 491 c 128,-1,83
 1062 418 1062 418 1062 328 c 1,84,-1
 1082 -38 l 1,29,30
568 272 m 0,85,86
 568 294 568 294 545 325 c 128,-1,87
 522 356 522 356 494 358 c 1,88,89
 450 342 450 342 450 262 c 0,90,91
 450 192 450 192 500 192 c 0,92,93
 568 192 568 192 568 272 c 0,85,86
EndSplineSet
Ligature2: "'psts' Post Base Substitutions lookup 8 subtable" tm_nnna tm_ikaar
EndChar

StartChar: tm_p_ikaar
Encoding: 65550 -1 129
Width: 846
GlyphClass: 2
Flags: W
LayerCount: 2
Fore
SplineSet
888 1240 m 0,0,1
 888 1204 888 1204 864 1178 c 0,2,3
 842 1148 842 1148 796 1148 c 0,4,5
 760 1148 760 1148 728 1186 c 2,6,-1
 660 1262 l 1,7,8
 608 1302 608 1302 536 1302 c 0,9,10
 416 1302 416 1302 336 1232 c 128,-1,11
 256 1162 256 1162 256 1066 c 0,12,13
 256 996 256 996 290 956 c 1,14,-1
 370 912 l 1,15,-1
 436 882 l 1,16,17
 468 860 468 860 468 816 c 0,18,19
 468 786 468 786 433 763 c 128,-1,20
 398 740 398 740 370 736 c 1,21,22
 272 736 272 736 186 814 c 0,23,24
 82 906 82 906 82 1074 c 0,25,26
 82 1246 82 1246 219 1359 c 128,-1,27
 356 1472 356 1472 512 1472 c 0,28,29
 696 1472 696 1472 800 1388 c 0,30,31
 888 1322 888 1322 888 1240 c 0,0,1
816 274 m 0,32,33
 816 82 816 82 680 26 c 1,34,35
 606 0 606 0 406 0 c 0,36,37
 242 0 242 0 126 62 c 0,38,39
 28 114 28 114 28 168 c 0,40,41
 28 300 28 300 102 524 c 0,42,43
 162 712 162 712 218 712 c 0,44,45
 260 712 260 712 290 681 c 128,-1,46
 320 650 320 650 320 614 c 1,47,-1
 262 470 l 2,48,49
 204 324 204 324 204 236 c 0,50,51
 204 196 204 196 292 172 c 0,52,53
 326 164 326 164 371 158 c 128,-1,54
 416 152 416 152 462 152 c 0,55,56
 536 152 536 152 594 183 c 128,-1,57
 652 214 652 214 652 280 c 0,58,59
 652 388 652 388 574 562 c 0,60,61
 536 650 536 650 517 696 c 128,-1,62
 498 742 498 742 496 750 c 0,63,64
 496 862 496 862 570 862 c 0,65,66
 628 862 628 862 662 802 c 0,67,68
 674 784 674 784 722 656 c 0,69,70
 816 398 816 398 816 274 c 0,32,33
EndSplineSet
Ligature2: "'psts' Post Base Substitutions lookup 8 subtable" tm_pa tm_ikaar
EndChar

StartChar: tm_m_ikaar
Encoding: 65551 -1 130
Width: 934
GlyphClass: 2
Flags: W
LayerCount: 2
Fore
SplineSet
1012 1092 m 0,0,1
 1012 1054 1012 1054 990 1017 c 128,-1,2
 968 980 968 980 916 980 c 256,3,4
 864 980 864 980 848 1022 c 2,5,-1
 812 1112 l 1,6,7
 748 1236 748 1236 606 1236 c 0,8,9
 498 1236 498 1236 418 1180 c 1,10,11
 336 1116 336 1116 336 1006 c 0,12,13
 336 934 336 934 370 884 c 1,14,-1
 434 828 l 1,15,16
 468 804 468 804 468 766 c 0,17,18
 468 738 468 738 438 714 c 128,-1,19
 408 690 408 690 384 690 c 0,20,21
 344 690 344 690 308 710 c 128,-1,22
 272 730 272 730 234 774 c 0,23,24
 156 870 156 870 156 1010 c 0,25,26
 156 1188 156 1188 292 1308 c 0,27,28
 354 1360 354 1360 424 1386 c 128,-1,29
 494 1412 494 1412 576 1412 c 0,30,31
 758 1412 758 1412 892 1290 c 1,32,33
 1012 1188 1012 1188 1012 1092 c 0,0,1
906 396 m 0,34,35
 906 244 906 244 783 122 c 128,-1,36
 660 0 660 0 480 0 c 0,37,38
 258 0 258 0 136 166 c 0,39,40
 28 314 28 314 28 536 c 0,41,42
 28 716 28 716 150 716 c 0,43,44
 222 716 222 716 222 648 c 1,45,-1
 210 588 l 1,46,-1
 198 528 l 1,47,48
 198 478 198 478 212 421 c 128,-1,49
 226 364 226 364 256 304 c 0,50,51
 338 138 338 138 468 138 c 0,52,53
 574 138 574 138 661 220 c 128,-1,54
 748 302 748 302 748 414 c 0,55,56
 748 580 748 580 636 580 c 0,57,58
 594 580 594 580 554 542 c 1,59,60
 518 502 518 502 518 472 c 0,61,62
 518 456 518 456 524 442 c 128,-1,63
 530 428 530 428 546 410 c 0,64,65
 570 378 570 378 572 352 c 0,66,67
 572 322 572 322 542 294 c 1,68,69
 512 272 512 272 488 270 c 0,70,71
 430 270 430 270 389 335 c 128,-1,72
 348 400 348 400 348 482 c 0,73,74
 348 572 348 572 430 661 c 128,-1,75
 512 750 512 750 616 750 c 0,76,77
 748 750 748 750 827 654 c 128,-1,78
 906 558 906 558 906 396 c 0,34,35
EndSplineSet
Ligature2: "'psts' Post Base Substitutions lookup 8 subtable" tm_ma tm_ikaar
EndChar

StartChar: tm_y_ikaar
Encoding: 65552 -1 131
Width: 984
GlyphClass: 2
Flags: W
LayerCount: 2
Fore
SplineSet
1034 1188 m 0,0,1
 1034 1170 1034 1170 1012 1136 c 1,2,3
 980 1100 980 1100 950 1100 c 0,4,5
 916 1100 916 1100 852 1166 c 0,6,7
 792 1232 792 1232 694 1232 c 0,8,9
 580 1232 580 1232 496 1154 c 128,-1,10
 412 1076 412 1076 412 978 c 0,11,12
 412 858 412 858 568 796 c 0,13,14
 618 776 618 776 630 768 c 0,15,16
 666 742 666 742 666 698 c 0,17,18
 666 664 666 664 630 636 c 0,19,20
 600 608 600 608 558 608 c 0,21,22
 464 608 464 608 358 704 c 0,23,24
 236 820 236 820 236 984 c 0,25,26
 236 1152 236 1152 372 1282 c 1,27,28
 504 1398 504 1398 672 1398 c 0,29,30
 852 1398 852 1398 952 1328 c 0,31,32
 1034 1270 1034 1270 1034 1188 c 0,0,1
954 280 m 0,33,34
 954 -10 954 -10 816 -10 c 0,35,36
 764 -10 764 -10 658 69 c 128,-1,37
 552 148 552 148 508 148 c 0,38,39
 450 148 450 148 348 66 c 128,-1,40
 246 -16 246 -16 138 -16 c 0,41,42
 28 -16 28 -16 28 136 c 0,43,44
 28 226 28 226 88 380 c 0,45,46
 158 552 158 552 226 552 c 0,47,48
 322 552 322 552 322 476 c 0,49,50
 322 456 322 456 317 441 c 128,-1,51
 312 426 312 426 298 406 c 2,52,-1
 250 328 l 1,53,-1
 226 244 l 1,54,-1
 210 170 l 1,55,56
 238 158 238 158 350 250 c 0,57,58
 470 348 470 348 510 348 c 0,59,60
 574 348 574 348 656 267 c 128,-1,61
 738 186 738 186 762 184 c 0,62,63
 794 184 794 184 794 270 c 0,64,65
 794 358 794 358 747 491 c 128,-1,66
 700 624 700 624 700 664 c 0,67,68
 700 692 700 692 722 722 c 128,-1,69
 744 752 744 752 784 752 c 0,70,71
 834 752 834 752 860 710 c 1,72,-1
 896 600 l 1,73,74
 954 390 954 390 954 280 c 0,33,34
EndSplineSet
Ligature2: "'psts' Post Base Substitutions lookup 8 subtable" tm_ya tm_ikaar
EndChar

StartChar: tm_r_ikaar
Encoding: 65553 -1 132
Width: 732
GlyphClass: 2
Flags: W
LayerCount: 2
Fore
SplineSet
750 52 m 0,0,1
 750 -4 750 -4 484 -198 c 0,2,3
 258 -364 258 -364 210 -364 c 0,4,5
 182 -364 182 -364 150 -344 c 0,6,7
 122 -322 122 -322 122 -300 c 0,8,9
 122 -232 122 -232 336 -88 c 0,10,11
 477 7 477 7 525 65 c 1,12,13
 514 252 514 252 496 390 c 0,14,15
 495 392 495 392 495 395 c 0,16,17
 468 478 468 478 446 480 c 0,18,19
 407 480 407 480 348 373 c 0,20,21
 335 347 335 347 320 316 c 2,22,-1
 238 120 l 2,23,24
 224 92 224 92 209 73 c 0,25,26
 165 -2 165 -2 108 -2 c 0,27,28
 78 -2 78 -2 50 22 c 0,29,30
 44 30 44 30 34 49 c 0,31,32
 25 66 25 66 24 91 c 0,33,34
 22 95 22 95 22 100 c 0,35,36
 22 107 22 107 27 123 c 0,37,38
 43 213 43 213 159 413 c 0,39,40
 187 464 187 464 215 508 c 0,41,42
 361 744 361 744 456 744 c 0,43,44
 467 744 467 744 477 742 c 2,45,-1
 484 742 l 2,46,47
 550 742 550 742 592 678 c 0,48,49
 620 636 620 636 654 516 c 0,50,51
 673 450 673 450 685 370 c 1,52,53
 750 133 750 133 750 52 c 0,0,1
836 1168 m 0,54,55
 836 1146 836 1146 812 1112 c 0,56,57
 782 1070 782 1070 750 1070 c 0,58,59
 702 1070 702 1070 666 1120 c 0,60,61
 610 1204 610 1204 596 1216 c 0,62,63
 540 1266 540 1266 444 1266 c 0,64,65
 324 1266 324 1266 244 1196 c 128,-1,66
 164 1126 164 1126 164 1030 c 0,67,68
 164 958 164 958 214 908 c 1,69,-1
 306 844 l 2,70,71
 354 810 354 810 354 770 c 0,72,73
 354 732 354 732 324 702 c 128,-1,74
 294 672 294 672 258 672 c 0,75,76
 174 672 174 672 84 760 c 1,77,78
 -20 870 -20 870 -20 1034 c 0,79,80
 -20 1210 -20 1210 111 1324 c 128,-1,81
 242 1438 242 1438 414 1438 c 0,82,83
 592 1438 592 1438 722 1348 c 1,84,85
 836 1264 836 1264 836 1168 c 0,54,55
EndSplineSet
Ligature2: "'psts' Post Base Substitutions lookup 8 subtable" tm_ra tm_ikaar
EndChar

StartChar: tm_rr_ikaar
Encoding: 65554 -1 133
Width: 1064
GlyphClass: 2
Flags: W
LayerCount: 2
Fore
SplineSet
1084 1068 m 0,0,1
 1084 1024 1084 1024 1050 988 c 1,2,3
 1012 954 1012 954 984 954 c 0,4,5
 944 954 944 954 910 1024 c 0,6,7
 868 1116 868 1116 836 1150 c 0,8,9
 770 1220 770 1220 646 1220 c 0,10,11
 538 1220 538 1220 463 1146 c 128,-1,12
 388 1072 388 1072 388 998 c 0,13,14
 388 920 388 920 426 874 c 0,15,16
 442 852 442 852 494 814 c 0,17,18
 530 790 530 790 532 770 c 0,19,20
 532 670 532 670 430 670 c 0,21,22
 366 670 366 670 294 750 c 1,23,24
 210 852 210 852 210 1004 c 0,25,26
 210 1148 210 1148 328 1272 c 1,27,28
 456 1394 456 1394 624 1394 c 0,29,30
 822 1394 822 1394 964 1274 c 0,31,32
 1084 1172 1084 1172 1084 1068 c 0,0,1
1036 482 m 0,33,34
 1036 402 1036 402 968 204 c 0,35,36
 894 -12 894 -12 812 -184 c 1,37,-1
 720 -418 l 2,38,39
 680 -522 680 -522 634 -522 c 0,40,41
 526 -522 526 -522 526 -450 c 0,42,43
 526 -412 526 -412 610 -220 c 0,44,45
 650 -122 650 -122 690 -26 c 0,46,47
 720 44 720 44 778 172 c 1,48,49
 870 398 870 398 870 464 c 0,50,51
 870 586 870 586 742 586 c 0,52,53
 670 586 670 586 628 524 c 0,54,55
 608 494 608 494 597 456 c 128,-1,56
 586 418 586 418 586 372 c 2,57,-1
 582 262 l 1,58,59
 568 206 568 206 514 206 c 0,60,61
 464 206 464 206 418 288 c 1,62,63
 376 372 376 372 306 372 c 0,64,65
 214 372 214 372 214 258 c 0,66,67
 214 216 214 216 236 164 c 128,-1,68
 258 112 258 112 258 84 c 0,69,70
 258 54 258 54 234 26 c 128,-1,71
 210 -2 210 -2 176 -4 c 0,72,73
 100 -4 100 -4 58 84 c 0,74,75
 42 122 42 122 34 164 c 128,-1,76
 26 206 26 206 26 264 c 0,77,78
 26 366 26 366 106 455 c 128,-1,79
 186 544 186 544 272 544 c 0,80,81
 366 544 366 544 438 490 c 1,82,83
 454 582 454 582 528 662 c 0,84,85
 620 760 620 760 736 760 c 0,86,87
 892 760 892 760 976 650 c 0,88,89
 1036 568 1036 568 1036 482 c 0,33,34
EndSplineSet
Ligature2: "'psts' Post Base Substitutions lookup 8 subtable" tm_rra tm_ikaar
EndChar

StartChar: tm_l_ikaar
Encoding: 65555 -1 134
Width: 1212
GlyphClass: 2
Flags: W
LayerCount: 2
Fore
SplineSet
1116 1174 m 0,0,1
 1116 1152 1116 1152 1095 1119 c 128,-1,2
 1074 1086 1074 1086 1042 1082 c 0,3,4
 1014 1082 1014 1082 997 1088 c 128,-1,5
 980 1094 980 1094 960 1114 c 2,6,-1
 898 1180 l 1,7,8
 848 1214 848 1214 766 1214 c 0,9,10
 654 1214 654 1214 573 1136 c 128,-1,11
 492 1058 492 1058 492 958 c 0,12,13
 492 874 492 874 556 820 c 1,14,-1
 678 758 l 2,15,16
 742 726 742 726 742 680 c 0,17,18
 742 646 742 646 705 616 c 128,-1,19
 668 586 668 586 628 586 c 0,20,21
 540 586 540 586 438 682 c 0,22,23
 316 792 316 792 316 958 c 0,24,25
 316 1136 316 1136 448 1259 c 128,-1,26
 580 1382 580 1382 746 1382 c 0,27,28
 926 1382 926 1382 1028 1316 c 0,29,30
 1116 1262 1116 1262 1116 1174 c 0,0,1
1184 318 m 0,31,32
 1184 148 1184 148 1084 52 c 0,33,34
 992 -36 992 -36 852 -36 c 0,35,36
 748 -36 748 -36 632 50 c 1,37,-1
 450 208 l 2,38,39
 354 292 354 292 292 292 c 0,40,41
 216 292 216 292 216 206 c 0,42,43
 216 182 216 182 263 149 c 128,-1,44
 310 116 310 116 310 72 c 0,45,46
 310 44 310 44 270 16 c 0,47,48
 258 10 258 10 238 4 c 128,-1,49
 218 -2 218 -2 202 -2 c 0,50,51
 126 -2 126 -2 76 56 c 1,52,53
 28 120 28 120 28 210 c 0,54,55
 28 310 28 310 107 388 c 128,-1,56
 186 466 186 466 286 466 c 0,57,58
 384 466 384 466 496 382 c 1,59,-1
 674 222 l 1,60,61
 776 138 776 138 858 138 c 0,62,63
 1020 138 1020 138 1020 298 c 0,64,65
 1020 386 1020 386 956 468 c 0,66,67
 932 498 932 498 836 584 c 0,68,69
 774 640 774 640 772 672 c 0,70,71
 772 704 772 704 800 732 c 128,-1,72
 828 760 828 760 858 764 c 1,73,74
 908 764 908 764 1020 646 c 0,75,76
 1102 556 1102 556 1136 498 c 0,77,78
 1160 452 1160 452 1172 411 c 128,-1,79
 1184 370 1184 370 1184 318 c 0,31,32
EndSplineSet
Ligature2: "'psts' Post Base Substitutions lookup 8 subtable" tm_la tm_ikaar
EndChar

StartChar: tm_ll_ikaar
Encoding: 65556 -1 135
Width: 1192
GlyphClass: 2
Flags: W
LayerCount: 2
Fore
SplineSet
1198 1078 m 0,0,1
 1198 1034 1198 1034 1170 1004 c 128,-1,2
 1142 974 1142 974 1110 970 c 1,3,4
 1068 970 1068 970 1032 1026 c 0,5,6
 1006 1070 1006 1070 989 1095 c 128,-1,7
 972 1120 972 1120 962 1132 c 0,8,9
 906 1188 906 1188 800 1188 c 0,10,11
 702 1188 702 1188 619 1126 c 128,-1,12
 536 1064 536 1064 536 992 c 0,13,14
 536 902 536 902 580 850 c 1,15,16
 594 824 594 824 660 782 c 1,17,18
 702 750 702 750 704 720 c 0,19,20
 704 676 704 676 674 646 c 128,-1,21
 644 616 644 616 606 616 c 0,22,23
 538 616 538 616 454 696 c 1,24,25
 356 804 356 804 356 980 c 0,26,27
 356 1124 356 1124 482 1240 c 128,-1,28
 608 1356 608 1356 778 1356 c 0,29,30
 958 1356 958 1356 1086 1258 c 0,31,32
 1198 1174 1198 1174 1198 1078 c 0,0,1
1162 -116 m 0,33,34
 1162 -156 1162 -156 1142 -186 c 128,-1,35
 1122 -216 1122 -216 1088 -216 c 0,36,37
 982 -216 982 -216 982 -84 c 0,38,39
 982 574 982 574 916 574 c 0,40,41
 856 574 856 574 688 246 c 0,42,43
 664 194 664 194 658 178 c 0,44,45
 642 146 642 146 622 110 c 0,46,47
 586 50 586 50 530 50 c 0,48,49
 484 50 484 50 460 132 c 2,50,-1
 420 284 l 1,51,52
 386 368 386 368 298 368 c 0,53,54
 254 368 254 368 223 335 c 128,-1,55
 192 302 192 302 192 254 c 0,56,57
 192 184 192 184 222 184 c 0,58,59
 236 184 236 184 245 198 c 128,-1,60
 254 212 254 212 272 216 c 1,61,62
 366 216 366 216 366 122 c 0,63,64
 366 16 366 16 222 16 c 0,65,66
 136 16 136 16 82 76 c 128,-1,67
 28 136 28 136 28 226 c 0,68,69
 28 360 28 360 116 448 c 0,70,71
 192 524 192 524 296 524 c 0,72,73
 470 524 470 524 538 366 c 1,74,-1
 682 594 l 1,75,76
 784 728 784 728 880 728 c 0,77,78
 1042 728 1042 728 1098 568 c 0,79,80
 1116 518 1116 518 1127 425 c 128,-1,81
 1138 332 1138 332 1138 210 c 0,82,83
 1138 156 1138 156 1150 46 c 128,-1,84
 1162 -64 1162 -64 1162 -116 c 0,33,34
EndSplineSet
Ligature2: "'psts' Post Base Substitutions lookup 8 subtable" tm_lla tm_ikaar
EndChar

StartChar: tm_lll_ikaar
Encoding: 65557 -1 136
Width: 1192
GlyphClass: 2
Flags: W
LayerCount: 2
Fore
SplineSet
1032 1074 m 0,0,1
 1032 1014 1032 1014 1001 977 c 128,-1,2
 970 940 970 940 928 940 c 0,3,4
 870 940 870 940 852 1002 c 1,5,6
 832 1112 832 1112 820 1126 c 1,7,8
 794 1182 794 1182 728 1218 c 0,9,10
 668 1254 668 1254 600 1254 c 0,11,12
 474 1254 474 1254 404 1184 c 0,13,14
 346 1130 346 1130 346 1048 c 0,15,16
 346 990 346 990 396 920 c 0,17,18
 448 854 448 854 450 832 c 0,19,20
 450 806 450 806 422 776 c 1,21,22
 402 748 402 748 364 744 c 1,23,24
 300 744 300 744 238 812 c 0,25,26
 164 894 164 894 164 1050 c 0,27,28
 164 1198 164 1198 279 1313 c 128,-1,29
 394 1428 394 1428 566 1428 c 0,30,31
 766 1428 766 1428 910 1290 c 0,32,33
 1032 1178 1032 1178 1032 1074 c 0,0,1
1162 104 m 0,34,35
 1162 30 1162 30 1098 -10 c 0,36,37
 1070 -28 1070 -28 1033 -36 c 128,-1,38
 996 -44 996 -44 952 -44 c 1,39,40
 918 -180 918 -180 803 -279 c 128,-1,41
 688 -378 688 -378 550 -378 c 0,42,43
 488 -378 488 -378 432 -346 c 0,44,45
 366 -306 366 -306 366 -244 c 0,46,47
 366 -172 366 -172 422 -172 c 0,48,49
 456 -172 456 -172 489 -194 c 128,-1,50
 522 -216 522 -216 548 -216 c 0,51,52
 616 -216 616 -216 689 -168 c 128,-1,53
 762 -120 762 -120 784 -62 c 1,54,55
 764 -56 764 -56 746 -46 c 128,-1,56
 728 -36 728 -36 704 -18 c 0,57,58
 658 14 658 14 638 38 c 1,59,60
 584 20 584 20 536 8 c 128,-1,61
 488 -4 488 -4 456 -4 c 0,62,63
 268 -4 268 -4 147 168 c 128,-1,64
 26 340 26 340 26 572 c 0,65,66
 26 816 26 816 136 816 c 0,67,68
 166 816 166 816 199 784 c 128,-1,69
 232 752 232 752 232 704 c 0,70,71
 232 678 232 678 214 590 c 2,72,-1
 194 484 l 1,73,74
 194 374 194 374 260 268 c 0,75,76
 342 144 342 144 482 144 c 0,77,78
 592 144 592 144 674 242 c 128,-1,79
 756 340 756 340 756 460 c 0,80,81
 756 522 756 522 722 562 c 0,82,83
 690 606 690 606 634 606 c 0,84,85
 588 606 588 606 552 575 c 128,-1,86
 516 544 516 544 516 494 c 0,87,88
 516 462 516 462 550 416 c 0,89,90
 584 376 584 376 584 350 c 0,91,92
 584 312 584 312 562 284 c 0,93,94
 542 264 542 264 506 260 c 1,95,96
 422 260 422 260 372 344 c 0,97,98
 332 412 332 412 332 504 c 0,99,100
 332 622 332 622 412 708 c 128,-1,101
 492 794 492 794 610 794 c 0,102,103
 746 794 746 794 825 694 c 128,-1,104
 904 594 904 594 904 440 c 256,105,106
 904 286 904 286 776 138 c 1,107,108
 788 90 788 90 892 70 c 1,109,110
 892 128 892 128 934 173 c 128,-1,111
 976 218 976 218 1032 218 c 0,112,113
 1086 218 1086 218 1122 184 c 1,114,115
 1162 156 1162 156 1162 104 c 0,34,35
EndSplineSet
Ligature2: "'psts' Post Base Substitutions lookup 8 subtable" tm_llla tm_ikaar
EndChar

StartChar: tm_v_ikaar
Encoding: 65558 -1 137
Width: 1182
GlyphClass: 2
Flags: W
LayerCount: 2
Fore
SplineSet
1168 1254 m 0,0,1
 1168 1236 1168 1236 1146 1202 c 1,2,3
 1116 1168 1116 1168 1088 1166 c 0,4,5
 1042 1166 1042 1166 1006 1202 c 2,6,-1
 942 1272 l 1,7,8
 892 1310 892 1310 810 1310 c 0,9,10
 698 1310 698 1310 612 1227 c 128,-1,11
 526 1144 526 1144 526 1062 c 0,12,13
 526 966 526 966 588 916 c 1,14,-1
 708 858 l 1,15,16
 770 834 770 834 770 780 c 0,17,18
 770 744 770 744 734 713 c 128,-1,19
 698 682 698 682 658 682 c 0,20,21
 554 682 554 682 456 782 c 0,22,23
 346 896 346 896 346 1064 c 0,24,25
 346 1226 346 1226 479 1350 c 128,-1,26
 612 1474 612 1474 800 1474 c 0,27,28
 978 1474 978 1474 1082 1404 c 0,29,30
 1168 1346 1168 1346 1168 1254 c 0,0,1
1152 212 m 0,31,32
 1152 -4 1152 -4 770 -4 c 2,33,-1
 734 -4 l 1,34,-1
 704 -4 l 1,35,-1
 680 -4 l 2,36,37
 648 -4 648 -4 623 -3 c 128,-1,38
 598 -2 598 -2 574 4 c 0,39,40
 472 20 472 20 472 84 c 0,41,42
 472 136 472 136 526 174 c 128,-1,43
 580 212 580 212 580 264 c 0,44,45
 580 380 580 380 384 380 c 0,46,47
 308 380 308 380 244 330 c 128,-1,48
 180 280 180 280 180 202 c 0,49,50
 180 154 180 154 224 154 c 2,51,-1
 250 156 l 1,52,-1
 282 158 l 2,53,54
 306 158 306 158 334 136 c 0,55,56
 354 116 354 116 358 84 c 1,57,58
 358 34 358 34 326 6 c 128,-1,59
 294 -22 294 -22 242 -22 c 0,60,61
 26 -22 26 -22 26 198 c 0,62,63
 26 324 26 324 128 424 c 0,64,65
 244 534 244 534 416 534 c 0,66,67
 546 534 546 534 647 457 c 128,-1,68
 748 380 748 380 748 264 c 0,69,70
 748 232 748 232 696 152 c 1,71,-1
 742 150 l 1,72,-1
 796 148 l 1,73,74
 966 148 966 148 966 242 c 0,75,76
 966 352 966 352 883 545 c 128,-1,77
 800 738 800 738 800 780 c 0,78,79
 800 812 800 812 832 851 c 128,-1,80
 864 890 864 890 898 890 c 0,81,82
 948 890 948 890 994 788 c 1,83,-1
 1058 594 l 2,84,85
 1102 458 1102 458 1127 360 c 128,-1,86
 1152 262 1152 262 1152 212 c 0,31,32
EndSplineSet
Ligature2: "'psts' Post Base Substitutions lookup 8 subtable" tm_va tm_ikaar
EndChar

StartChar: tm_ss_ikaar
Encoding: 65559 -1 138
Width: 1396
GlyphClass: 2
Flags: W
LayerCount: 2
Fore
SplineSet
1248 1148 m 0,0,1
 1248 1116 1248 1116 1217 1085 c 128,-1,2
 1186 1054 1186 1054 1150 1054 c 0,3,4
 1100 1054 1100 1054 1042 1156 c 128,-1,5
 984 1258 984 1258 844 1258 c 0,6,7
 738 1258 738 1258 656 1186 c 128,-1,8
 574 1114 574 1114 574 1030 c 0,9,10
 574 948 574 948 622 900 c 0,11,12
 640 878 640 878 712 834 c 0,13,14
 756 806 756 806 760 776 c 1,15,16
 760 726 760 726 730 696 c 128,-1,17
 700 666 700 666 656 666 c 0,18,19
 570 666 570 666 484 764 c 0,20,21
 390 876 390 876 390 1028 c 256,22,23
 390 1180 390 1180 506 1302 c 0,24,25
 630 1430 630 1430 816 1430 c 0,26,27
 1012 1430 1012 1430 1138 1336 c 0,28,29
 1248 1254 1248 1254 1248 1148 c 0,0,1
1382 66 m 0,30,31
 1382 42 1382 42 1356 18 c 0,32,33
 1336 4 1336 4 1302 0 c 1,34,-1
 1156 0 l 1,35,-1
 1106 -288 l 2,36,37
 1098 -324 1098 -324 1090 -365 c 128,-1,38
 1082 -406 1082 -406 1072 -428 c 0,39,40
 1048 -488 1048 -488 994 -488 c 0,41,42
 906 -488 906 -488 906 -376 c 0,43,44
 906 -246 906 -246 970 -4 c 1,45,-1
 550 -4 l 2,46,47
 422 -4 422 -4 422 84 c 0,48,49
 422 118 422 118 448 147 c 128,-1,50
 474 176 474 176 474 216 c 256,51,52
 474 256 474 256 438 302 c 0,53,54
 396 350 396 350 338 350 c 0,55,56
 210 350 210 350 210 222 c 0,57,58
 210 202 210 202 227 177 c 128,-1,59
 244 152 244 152 264 152 c 0,60,61
 296 152 296 152 318 134 c 128,-1,62
 340 116 340 116 342 84 c 0,63,64
 342 40 342 40 308 12 c 0,65,66
 300 6 300 6 280 -4 c 128,-1,67
 260 -14 260 -14 236 -14 c 0,68,69
 168 -14 168 -14 106 36 c 0,70,71
 28 100 28 100 28 216 c 0,72,73
 28 344 28 344 100 418 c 1,74,75
 178 506 178 506 318 506 c 0,76,77
 444 506 444 506 538 430 c 128,-1,78
 632 354 632 354 632 236 c 0,79,80
 632 188 632 188 620 152 c 1,81,-1
 998 152 l 1,82,83
 1008 234 1008 234 1036 356 c 1,84,-1
 1058 486 l 1,85,86
 1058 610 1058 610 974 610 c 0,87,88
 878 610 878 610 878 510 c 0,89,90
 878 482 878 482 895 434 c 128,-1,91
 912 386 912 386 916 350 c 0,92,93
 916 328 916 328 889 297 c 128,-1,94
 862 266 862 266 832 266 c 0,95,96
 710 266 710 266 710 502 c 0,97,98
 710 632 710 632 786 711 c 128,-1,99
 862 790 862 790 980 790 c 0,100,101
 1086 790 1086 790 1162 719 c 128,-1,102
 1238 648 1238 648 1238 546 c 0,103,104
 1238 510 1238 510 1232 460 c 128,-1,105
 1226 410 1226 410 1212 340 c 0,106,107
 1184 206 1184 206 1184 162 c 1,108,-1
 1280 162 l 2,109,110
 1324 162 1324 162 1352 132 c 0,111,112
 1382 104 1382 104 1382 66 c 0,30,31
EndSplineSet
Ligature2: "'psts' Post Base Substitutions lookup 8 subtable" tm_ssa tm_ikaar
EndChar

StartChar: tm_s_ikaar
Encoding: 65560 -1 139
Width: 1584
GlyphClass: 2
Flags: W
LayerCount: 2
Fore
SplineSet
1586 1046 m 0,0,1
 1586 1010 1586 1010 1562 980 c 1,2,3
 1542 948 1542 948 1502 948 c 0,4,5
 1446 948 1446 948 1404 1020 c 0,6,7
 1346 1128 1346 1128 1194 1128 c 0,8,9
 1084 1128 1084 1128 1007 1055 c 128,-1,10
 930 982 930 982 930 898 c 0,11,12
 930 822 930 822 982 760 c 0,13,14
 1008 730 1008 730 1078 680 c 0,15,16
 1128 642 1128 642 1130 616 c 0,17,18
 1130 576 1130 576 1094 552 c 0,19,20
 1058 532 1058 532 1016 532 c 0,21,22
 930 532 930 532 846 634 c 0,23,24
 752 750 752 750 752 902 c 0,25,26
 752 1050 752 1050 873 1174 c 128,-1,27
 994 1298 994 1298 1166 1298 c 0,28,29
 1360 1298 1360 1298 1484 1214 c 1,30,31
 1586 1136 1586 1136 1586 1046 c 0,0,1
1556 290 m 0,32,33
 1556 132 1556 132 1475 44 c 128,-1,34
 1394 -44 1394 -44 1258 -44 c 0,35,36
 1172 -44 1172 -44 1086 8 c 1,37,-1
 972 102 l 2,38,39
 916 152 916 152 868 152 c 0,40,41
 832 152 832 152 778 104 c 0,42,43
 746 78 746 78 718 67 c 128,-1,44
 690 56 690 56 654 56 c 0,45,46
 592 56 592 56 494 173 c 128,-1,47
 396 290 396 290 334 290 c 0,48,49
 280 290 280 290 238 262 c 1,50,51
 186 234 186 234 186 186 c 0,52,53
 186 164 186 164 204 140 c 128,-1,54
 222 116 222 116 250 116 c 0,55,56
 258 118 258 118 266 122 c 128,-1,57
 274 126 274 126 288 142 c 0,58,59
 318 166 318 166 332 168 c 0,60,61
 416 168 416 168 416 80 c 0,62,63
 416 28 416 28 364 -6 c 0,64,65
 336 -26 336 -26 312 -35 c 128,-1,66
 288 -44 288 -44 258 -44 c 0,67,68
 168 -44 168 -44 100 6 c 0,69,70
 24 64 24 64 24 158 c 0,71,72
 24 280 24 280 124 368 c 0,73,74
 216 448 216 448 318 448 c 0,75,76
 414 448 414 448 492 394 c 0,77,78
 526 374 526 374 596 298 c 0,79,80
 640 248 640 248 672 246 c 0,81,82
 700 246 700 246 756 296 c 128,-1,83
 812 346 812 346 860 346 c 0,84,85
 940 346 940 346 1067 225 c 128,-1,86
 1194 104 1194 104 1272 104 c 0,87,88
 1326 104 1326 104 1358 168 c 0,89,90
 1384 218 1384 218 1384 276 c 256,91,92
 1384 334 1384 334 1339 409 c 128,-1,93
 1294 484 1294 484 1240 530 c 2,94,-1
 1188 572 l 2,95,96
 1164 592 1164 592 1164 640 c 0,97,98
 1164 670 1164 670 1185 693 c 128,-1,99
 1206 716 1206 716 1228 716 c 0,100,101
 1272 716 1272 716 1322 681 c 128,-1,102
 1372 646 1372 646 1434 572 c 0,103,104
 1556 424 1556 424 1556 290 c 0,32,33
EndSplineSet
Ligature2: "'psts' Post Base Substitutions lookup 8 subtable" tm_sa tm_ikaar
EndChar

StartChar: tm_h_ikaar
Encoding: 65561 -1 140
Width: 1626
GlyphClass: 2
Flags: W
LayerCount: 2
Fore
SplineSet
1572 1058 m 0,0,1
 1572 1028 1572 1028 1548 988 c 0,2,3
 1520 948 1520 948 1484 948 c 0,4,5
 1458 948 1458 948 1443 953 c 128,-1,6
 1428 958 1428 958 1417 974 c 128,-1,7
 1406 990 1406 990 1398 1006 c 0,8,9
 1384 1032 1384 1032 1378 1046 c 0,10,11
 1308 1166 1308 1166 1166 1166 c 0,12,13
 1058 1166 1058 1166 978 1095 c 128,-1,14
 898 1024 898 1024 898 938 c 0,15,16
 898 870 898 870 942 820 c 0,17,18
 950 810 950 810 967 796 c 128,-1,19
 984 782 984 782 1020 754 c 1,20,21
 1060 730 1060 730 1064 706 c 1,22,23
 1064 594 1064 594 970 594 c 0,24,25
 886 594 886 594 808 686 c 0,26,27
 724 786 724 786 724 920 c 0,28,29
 724 1086 724 1086 836 1206 c 0,30,31
 958 1334 958 1334 1144 1334 c 0,32,33
 1334 1334 1334 1334 1464 1230 c 0,34,35
 1572 1146 1572 1146 1572 1058 c 0,0,1
1598 448 m 0,36,37
 1598 374 1598 374 1532 214 c 2,38,-1
 1386 -140 l 1,39,-1
 1294 -384 l 2,40,41
 1252 -496 1252 -496 1212 -496 c 0,42,43
 1118 -496 1118 -496 1118 -424 c 0,44,45
 1118 -366 1118 -366 1196 -180 c 0,46,47
 1446 416 1446 416 1446 468 c 0,48,49
 1446 526 1446 526 1415 565 c 128,-1,50
 1384 604 1384 604 1332 604 c 0,51,52
 1266 604 1266 604 1212 542 c 0,53,54
 1162 480 1162 480 1162 408 c 0,55,56
 1162 392 1162 392 1176 344 c 1,57,-1
 1190 272 l 1,58,59
 1190 238 1190 238 1162 213 c 128,-1,60
 1134 188 1134 188 1112 188 c 0,61,62
 1064 188 1064 188 1017 230 c 128,-1,63
 970 272 970 272 938 276 c 1,64,65
 896 276 896 276 896 220 c 0,66,67
 896 198 896 198 915 166 c 128,-1,68
 934 134 934 134 938 104 c 1,69,70
 938 62 938 62 904 35 c 128,-1,71
 870 8 870 8 824 8 c 2,72,-1
 536 8 l 2,73,74
 482 8 482 8 460 16 c 0,75,76
 422 32 422 32 422 84 c 0,77,78
 422 132 422 132 450 166 c 128,-1,79
 478 200 478 200 478 232 c 0,80,81
 478 346 478 346 338 346 c 0,82,83
 196 346 196 346 196 226 c 0,84,85
 196 188 196 188 262 156 c 1,86,87
 330 132 330 132 330 72 c 0,88,89
 330 34 330 34 302 10 c 128,-1,90
 274 -14 274 -14 236 -14 c 0,91,92
 148 -14 148 -14 86 48 c 128,-1,93
 24 110 24 110 24 222 c 0,94,95
 24 500 24 500 344 500 c 0,96,97
 468 500 468 500 546 440 c 1,98,99
 626 372 626 372 626 256 c 0,100,101
 626 216 626 216 604 146 c 1,102,-1
 720 146 l 1,103,-1
 714 202 l 1,104,105
 714 292 714 292 774 360 c 128,-1,106
 834 428 834 428 906 428 c 0,107,108
 936 428 936 428 1014 408 c 1,109,-1
 1012 436 l 1,110,111
 1012 540 1012 540 1098 644 c 0,112,113
 1192 756 1192 756 1316 756 c 0,114,115
 1598 756 1598 756 1598 448 c 0,36,37
EndSplineSet
Ligature2: "'psts' Post Base Substitutions lookup 8 subtable" tm_ha tm_ikaar
EndChar

StartChar: tm_k_iikaar
Encoding: 65562 -1 141
Width: 916
GlyphClass: 2
Flags: W
LayerCount: 2
Fore
SplineSet
798 1152 m 0,0,1
 798 1032 798 1032 725 948 c 128,-1,2
 652 864 652 864 538 864 c 0,3,4
 446 864 446 864 384 926 c 1,5,6
 332 984 332 984 332 1046 c 0,7,8
 332 1094 332 1094 359 1134 c 128,-1,9
 386 1174 386 1174 432 1174 c 0,10,11
 510 1174 510 1174 510 1100 c 0,12,13
 510 1082 510 1082 502 1072 c 128,-1,14
 494 1062 494 1062 490 1046 c 1,15,16
 490 1016 490 1016 546 1016 c 0,17,18
 598 1016 598 1016 630 1062 c 0,19,20
 640 1076 640 1076 647 1098 c 128,-1,21
 654 1120 654 1120 656 1134 c 0,22,23
 656 1172 656 1172 647 1196 c 128,-1,24
 638 1220 638 1220 614 1246 c 0,25,26
 562 1298 562 1298 472 1298 c 0,27,28
 380 1298 380 1298 308 1234 c 0,29,30
 216 1158 216 1158 216 1034 c 0,31,32
 216 954 216 954 254 910 c 1,33,34
 294 872 294 872 294 850 c 0,35,36
 294 770 294 770 212 770 c 0,37,38
 148 770 148 770 100 854 c 0,39,40
 58 934 58 934 58 1018 c 0,41,42
 58 1192 58 1192 183 1319 c 128,-1,43
 308 1446 308 1446 488 1446 c 0,44,45
 636 1446 636 1446 722 1352 c 0,46,47
 798 1270 798 1270 798 1152 c 0,0,1
886 178 m 0,48,49
 886 94 886 94 788 34 c 0,50,51
 746 10 746 10 709 -2 c 128,-1,52
 672 -14 672 -14 632 -14 c 0,53,54
 484 -14 484 -14 484 80 c 0,55,56
 484 114 484 114 516 138 c 0,57,58
 532 148 532 148 564 152 c 1,59,-1
 600 146 l 1,60,-1
 656 138 l 1,61,62
 720 138 720 138 720 192 c 0,63,64
 720 256 720 256 578 256 c 0,65,66
 536 256 536 256 516 252 c 1,67,68
 498 196 498 196 418 124 c 1,69,70
 314 38 314 38 186 38 c 0,71,72
 104 38 104 38 58 74 c 0,73,74
 30 100 30 100 26 134 c 1,75,76
 26 224 26 224 124 308 c 0,77,78
 182 354 182 354 254 379 c 128,-1,79
 326 404 326 404 416 404 c 1,80,81
 426 428 426 428 426 506 c 0,82,83
 426 544 426 544 407 576 c 128,-1,84
 388 608 388 608 358 610 c 0,85,86
 324 610 324 610 285 536 c 128,-1,87
 246 462 246 462 206 462 c 0,88,89
 184 462 184 462 150 484 c 1,90,91
 122 508 122 508 122 542 c 0,92,93
 122 610 122 610 188 680 c 1,94,95
 260 748 260 748 340 748 c 0,96,97
 422 748 422 748 496 675 c 128,-1,98
 570 602 570 602 570 492 c 0,99,100
 570 464 570 464 564 437 c 128,-1,101
 558 410 558 410 554 394 c 1,102,103
 616 394 616 394 656 387 c 128,-1,104
 696 380 696 380 750 358 c 0,105,106
 886 302 886 302 886 178 c 0,48,49
372 262 m 1,107,-1
 344 264 l 2,108,109
 296 264 296 264 244 228 c 0,110,111
 206 204 206 204 202 184 c 1,112,113
 202 162 202 162 240 162 c 0,114,115
 272 162 272 162 316 194 c 0,116,117
 352 224 352 224 372 262 c 1,107,-1
EndSplineSet
Ligature2: "'abvs' Above Base Substitutions lookup 6 subtable" tm_ka tm_iikaar
EndChar

StartChar: tm_ng_iikaar
Encoding: 65563 -1 142
Width: 1610
GlyphClass: 2
Flags: W
LayerCount: 2
Fore
SplineSet
1626 1268 m 0,0,1
 1626 1144 1626 1144 1549 1072 c 128,-1,2
 1472 1000 1472 1000 1364 1000 c 0,3,4
 1306 1000 1306 1000 1252 1040 c 1,5,6
 1184 1084 1184 1084 1184 1156 c 0,7,8
 1184 1198 1184 1198 1208 1238 c 0,9,10
 1234 1274 1234 1274 1278 1274 c 0,11,12
 1350 1274 1350 1274 1350 1202 c 1,13,-1
 1346 1182 l 1,14,-1
 1344 1166 l 2,15,16
 1344 1148 1344 1148 1376 1146 c 0,17,18
 1412 1146 1412 1146 1446 1176 c 0,19,20
 1456 1186 1456 1186 1467 1204 c 128,-1,21
 1478 1222 1478 1222 1478 1248 c 0,22,23
 1478 1368 1478 1368 1312 1368 c 0,24,25
 1222 1368 1222 1368 1158 1322 c 0,26,27
 1076 1262 1076 1262 1076 1138 c 0,28,29
 1076 1052 1076 1052 1114 1008 c 0,30,31
 1126 988 1126 988 1182 954 c 0,32,33
 1220 932 1220 932 1220 896 c 0,34,35
 1220 866 1220 866 1194 840 c 128,-1,36
 1168 814 1168 814 1140 812 c 0,37,38
 1038 812 1038 812 970 924 c 0,39,40
 916 1018 916 1018 916 1116 c 0,41,42
 916 1282 916 1282 1026 1400 c 0,43,44
 1148 1526 1148 1526 1326 1526 c 0,45,46
 1464 1526 1464 1526 1552 1438 c 1,47,48
 1626 1358 1626 1358 1626 1268 c 0,0,1
1466 842 m 0,49,50
 1466 508 1466 508 1357 240 c 128,-1,51
 1248 -28 1248 -28 1116 -28 c 0,52,53
 1040 -28 1040 -28 986 38 c 0,54,55
 962 66 962 66 916 160 c 1,56,57
 890 224 890 224 868 226 c 0,58,59
 798 226 798 226 698 102 c 0,60,61
 624 10 624 10 564 10 c 0,62,63
 482 10 482 10 482 80 c 2,64,-1
 482 146 l 1,65,-1
 484 304 l 2,66,67
 484 506 484 506 452 540 c 1,68,69
 372 504 372 504 292 330 c 0,70,71
 238 204 238 204 216 84 c 0,72,73
 214 64 214 64 188 42 c 0,74,75
 156 10 156 10 106 10 c 0,76,77
 28 10 28 10 28 68 c 0,78,79
 28 116 28 116 96 272 c 0,80,81
 178 456 178 456 266 578 c 0,82,83
 380 734 380 734 484 734 c 0,84,85
 638 734 638 734 638 384 c 1,86,-1
 636 304 l 1,87,-1
 634 258 l 1,88,89
 764 390 764 390 888 390 c 0,90,91
 970 390 970 390 1032 296 c 1,92,-1
 1116 152 l 1,93,94
 1208 230 1208 230 1256 460 c 0,95,96
 1288 612 1288 612 1288 750 c 1,97,-1
 1282 816 l 1,98,-1
 1276 866 l 1,99,100
 1276 936 1276 936 1374 936 c 0,101,102
 1444 936 1444 936 1458 910 c 0,103,104
 1466 894 1466 894 1466 842 c 0,49,50
EndSplineSet
Ligature2: "'abvs' Above Base Substitutions lookup 6 subtable" tm_nga tm_iikaar
EndChar

StartChar: tm_c_iikaar
Encoding: 65564 -1 143
Width: 750
GlyphClass: 2
Flags: W
LayerCount: 2
Fore
SplineSet
748 1072 m 0,0,1
 748 954 748 954 669 869 c 128,-1,2
 590 784 590 784 476 784 c 0,3,4
 384 784 384 784 318 850 c 0,5,6
 262 906 262 906 262 970 c 0,7,8
 262 1014 262 1014 291 1055 c 128,-1,9
 320 1096 320 1096 372 1096 c 0,10,11
 446 1096 446 1096 446 1024 c 0,12,13
 446 1006 446 1006 438 990 c 2,14,-1
 430 966 l 1,15,16
 430 932 430 932 484 932 c 256,17,18
 538 932 538 932 570 982 c 0,19,20
 592 1020 592 1020 596 1054 c 1,21,22
 596 1118 596 1118 544 1168 c 128,-1,23
 492 1218 492 1218 402 1218 c 0,24,25
 316 1218 316 1218 236 1150 c 0,26,27
 146 1068 146 1068 146 942 c 0,28,29
 146 858 146 858 184 834 c 0,30,31
 216 810 216 810 220 780 c 1,32,33
 220 732 220 732 184 708 c 0,34,35
 162 690 162 690 136 686 c 1,36,37
 72 686 72 686 27 764 c 128,-1,38
 -18 842 -18 842 -18 932 c 0,39,40
 -18 1108 -18 1108 112 1238 c 128,-1,41
 242 1368 242 1368 426 1368 c 0,42,43
 574 1368 574 1368 666 1268 c 0,44,45
 706 1226 706 1226 727 1177 c 128,-1,46
 748 1128 748 1128 748 1072 c 0,0,1
738 294 m 0,47,48
 738 216 738 216 676 216 c 1,49,-1
 552 250 l 1,50,51
 544 166 544 166 438 82 c 1,52,53
 332 -10 332 -10 212 -10 c 0,54,55
 112 -10 112 -10 60 50 c 1,56,57
 28 94 28 94 28 150 c 0,58,59
 28 268 28 268 204 348 c 0,60,61
 328 404 328 404 400 404 c 0,62,63
 416 404 416 404 424 402 c 1,64,-1
 430 450 l 1,65,66
 430 500 430 500 406 546 c 0,67,68
 382 584 382 584 348 584 c 0,69,70
 322 584 322 584 292 522 c 1,71,72
 268 460 268 460 204 460 c 0,73,74
 122 460 122 460 122 534 c 0,75,76
 122 604 122 604 210 674 c 0,77,78
 286 734 286 734 348 734 c 0,79,80
 446 734 446 734 512 632 c 0,81,82
 542 584 542 584 555 529 c 128,-1,83
 568 474 568 474 568 402 c 1,84,85
 622 396 622 396 680 368 c 128,-1,86
 738 340 738 340 738 294 c 0,47,48
384 264 m 1,87,88
 338 264 338 264 247 226 c 128,-1,89
 156 188 156 188 156 144 c 0,90,91
 156 118 156 118 194 118 c 0,92,93
 238 118 238 118 300 162 c 0,94,95
 370 208 370 208 384 264 c 1,87,88
EndSplineSet
Ligature2: "'abvs' Above Base Substitutions lookup 6 subtable" tm_ca tm_iikaar
EndChar

StartChar: tm_j_iikaar
Encoding: 65565 -1 144
Width: 1252
GlyphClass: 2
Flags: W
LayerCount: 2
Fore
SplineSet
1338 1184 m 0,0,1
 1338 1048 1338 1048 1250 974 c 1,2,3
 1178 908 1178 908 1068 908 c 0,4,5
 1012 908 1012 908 950 952 c 1,6,7
 886 1006 886 1006 886 1080 c 0,8,9
 886 1196 886 1196 988 1196 c 0,10,11
 1052 1196 1052 1196 1052 1124 c 1,12,-1
 1050 1102 l 1,13,-1
 1046 1080 l 1,14,15
 1046 1054 1046 1054 1084 1054 c 256,16,17
 1122 1054 1122 1054 1160 1086 c 1,18,19
 1198 1124 1198 1124 1198 1178 c 0,20,21
 1198 1242 1198 1242 1147 1279 c 128,-1,22
 1096 1316 1096 1316 1028 1316 c 0,23,24
 930 1316 930 1316 850 1246 c 1,25,26
 778 1176 778 1176 778 1056 c 0,27,28
 778 972 778 972 806 938 c 1,29,-1
 858 896 l 2,30,31
 886 876 886 876 886 826 c 0,32,33
 886 810 886 810 860 785 c 128,-1,34
 834 760 834 760 812 756 c 1,35,36
 736 756 736 756 678 837 c 128,-1,37
 620 918 620 918 620 1042 c 0,38,39
 620 1208 620 1208 741 1338 c 128,-1,40
 862 1468 862 1468 1044 1468 c 0,41,42
 1188 1468 1188 1468 1270 1368 c 0,43,44
 1338 1288 1338 1288 1338 1184 c 0,0,1
1222 566 m 0,45,46
 1222 472 1222 472 1150 398 c 0,47,48
 1086 328 1086 328 958 292 c 0,49,50
 924 282 924 282 848 276 c 1,51,-1
 724 276 l 1,52,-1
 602 278 l 1,53,54
 212 278 212 278 212 134 c 0,55,56
 212 68 212 68 310 68 c 0,57,58
 422 68 422 68 671 139 c 128,-1,59
 920 210 920 210 984 210 c 0,60,61
 1066 210 1066 210 1125 166 c 128,-1,62
 1184 122 1184 122 1184 48 c 0,63,64
 1184 0 1184 0 1152 -28 c 128,-1,65
 1120 -56 1120 -56 1068 -56 c 0,66,67
 1006 -56 1006 -56 972 -8 c 128,-1,68
 938 40 938 40 910 44 c 1,69,-1
 684 -24 l 2,70,71
 464 -94 464 -94 308 -94 c 0,72,73
 194 -94 194 -94 109 -34 c 128,-1,74
 24 26 24 26 24 136 c 0,75,76
 24 244 24 244 118 330 c 1,77,78
 212 408 212 408 340 432 c 0,79,80
 396 442 396 442 464 442 c 2,81,-1
 580 438 l 1,82,-1
 660 434 l 1,83,84
 834 434 834 434 898 448 c 0,85,86
 1028 470 1028 470 1028 552 c 0,87,88
 1028 604 1028 604 974 604 c 0,89,90
 884 604 884 604 744 544 c 128,-1,91
 604 484 604 484 562 484 c 1,92,-1
 304 864 l 1,93,94
 270 864 270 864 238 826 c 128,-1,95
 206 788 206 788 206 750 c 0,96,97
 206 694 206 694 270 694 c 0,98,99
 352 694 352 694 352 620 c 0,100,101
 352 526 352 526 226 526 c 0,102,103
 160 526 160 526 102 595 c 128,-1,104
 44 664 44 664 44 756 c 0,105,106
 44 846 44 846 114 943 c 128,-1,107
 184 1040 184 1040 284 1040 c 0,108,109
 422 1040 422 1040 494 942 c 0,110,111
 512 918 512 918 532 870 c 128,-1,112
 552 822 552 822 570 762 c 0,113,114
 598 664 598 664 632 664 c 0,115,116
 642 664 642 664 769 723 c 128,-1,117
 896 782 896 782 994 782 c 0,118,119
 1084 782 1084 782 1154 716 c 0,120,121
 1222 656 1222 656 1222 566 c 0,45,46
EndSplineSet
Ligature2: "'abvs' Above Base Substitutions lookup 6 subtable" tm_ja tm_iikaar
EndChar

StartChar: tm_ny_iikaar
Encoding: 65566 -1 145
Width: 1110
GlyphClass: 2
Flags: W
LayerCount: 2
Fore
SplineSet
938 1184 m 0,0,1
 938 1048 938 1048 850 974 c 1,2,3
 778 908 778 908 668 908 c 0,4,5
 612 908 612 908 550 952 c 1,6,7
 486 1006 486 1006 486 1080 c 0,8,9
 486 1196 486 1196 588 1196 c 0,10,11
 652 1196 652 1196 652 1124 c 1,12,-1
 650 1102 l 1,13,-1
 646 1080 l 1,14,15
 646 1054 646 1054 684 1054 c 256,16,17
 722 1054 722 1054 760 1086 c 1,18,19
 798 1124 798 1124 798 1178 c 0,20,21
 798 1242 798 1242 747 1279 c 128,-1,22
 696 1316 696 1316 628 1316 c 0,23,24
 530 1316 530 1316 450 1246 c 1,25,26
 378 1176 378 1176 378 1056 c 0,27,28
 378 972 378 972 406 938 c 1,29,-1
 458 896 l 2,30,31
 486 876 486 876 486 826 c 0,32,33
 486 810 486 810 460 785 c 128,-1,34
 434 760 434 760 412 756 c 1,35,36
 336 756 336 756 278 837 c 128,-1,37
 220 918 220 918 220 1042 c 0,38,39
 220 1208 220 1208 341 1338 c 128,-1,40
 462 1468 462 1468 644 1468 c 0,41,42
 788 1468 788 1468 870 1368 c 0,43,44
 938 1288 938 1288 938 1184 c 0,0,1
1076 18 m 0,45,46
 1076 -120 1076 -120 904 -222 c 0,47,48
 746 -314 746 -314 556 -314 c 0,49,50
 432 -314 432 -314 272 -268 c 0,51,52
 92 -216 92 -216 92 -146 c 0,53,54
 92 -72 92 -72 198 -72 c 0,55,56
 212 -72 212 -72 330 -110 c 128,-1,57
 448 -148 448 -148 542 -148 c 0,58,59
 680 -148 680 -148 798 -101 c 128,-1,60
 916 -54 916 -54 916 12 c 0,61,62
 916 92 916 92 790 92 c 0,63,64
 618 92 618 92 618 274 c 0,65,66
 618 602 618 602 572 608 c 1,67,68
 420 572 420 572 298 448 c 0,69,70
 188 332 188 332 188 250 c 0,71,72
 188 200 188 200 232 200 c 1,73,-1
 278 216 l 2,74,75
 312 232 312 232 340 236 c 0,76,77
 368 236 368 236 392 220 c 0,78,79
 434 198 434 198 434 148 c 0,80,81
 434 102 434 102 370 70 c 0,82,83
 316 46 316 46 252 46 c 0,84,85
 156 46 156 46 90 112 c 0,86,87
 28 178 28 178 28 274 c 0,88,89
 28 434 28 434 220 599 c 128,-1,90
 412 764 412 764 616 764 c 0,91,92
 762 764 762 764 762 642 c 0,93,94
 762 562 762 562 780 444 c 0,95,96
 788 392 788 392 790 348 c 128,-1,97
 792 304 792 304 792 246 c 1,98,-1
 830 248 l 1,99,100
 926 248 926 248 1001 183 c 128,-1,101
 1076 118 1076 118 1076 18 c 0,45,46
EndSplineSet
Ligature2: "'abvs' Above Base Substitutions lookup 6 subtable" tm_nya tm_iikaar
EndChar

StartChar: tm_tt_iikaar
Encoding: 65567 -1 146
Width: 1124
GlyphClass: 2
Flags: W
LayerCount: 2
Fore
SplineSet
1112 116 m 0,0,1
 1112 62 1112 62 1058 40 c 1,2,-1
 932 16 l 2,3,4
 874 8 874 8 803 2 c 128,-1,5
 732 -4 732 -4 686 -4 c 0,6,7
 24 -4 24 -4 24 328 c 0,8,9
 24 460 24 460 100 645 c 128,-1,10
 176 830 176 830 246 830 c 0,11,12
 340 830 340 830 340 748 c 0,13,14
 340 724 340 724 268 582 c 128,-1,15
 196 440 196 440 196 350 c 0,16,17
 196 248 196 248 328 196 c 1,18,19
 436 158 436 158 580 158 c 1,20,21
 500 214 500 214 500 324 c 0,22,23
 500 424 500 424 574 502 c 128,-1,24
 648 580 648 580 750 580 c 0,25,26
 850 580 850 580 911 526 c 128,-1,27
 972 472 972 472 972 408 c 0,28,29
 972 384 972 384 948 362 c 0,30,31
 926 346 926 346 892 346 c 0,32,33
 836 346 836 346 818 384 c 1,34,35
 806 422 806 422 774 426 c 1,36,37
 652 426 652 426 652 316 c 0,38,39
 652 248 652 248 728 206 c 0,40,41
 790 174 790 174 864 174 c 0,42,43
 884 174 884 174 896 176 c 128,-1,44
 908 178 908 178 944 188 c 2,45,-1
 1014 204 l 1,46,47
 1112 204 1112 204 1112 116 c 0,0,1
EndSplineSet
Ligature2: "'abvs' Above Base Substitutions lookup 5 subtable" tm_tta tm_iikaar
EndChar

StartChar: tm_nn_iikaar
Encoding: 65568 -1 147
Width: 1672
GlyphClass: 2
Flags: W
LayerCount: 2
Fore
SplineSet
1710 1052 m 0,0,1
 1710 932 1710 932 1631 849 c 128,-1,2
 1552 766 1552 766 1438 766 c 0,3,4
 1346 766 1346 766 1285 827 c 128,-1,5
 1224 888 1224 888 1224 950 c 0,6,7
 1224 996 1224 996 1254 1036 c 1,8,9
 1288 1074 1288 1074 1336 1074 c 0,10,11
 1410 1074 1410 1074 1410 1004 c 0,12,13
 1410 988 1410 988 1402 972 c 2,14,-1
 1394 948 l 1,15,16
 1394 916 1394 916 1450 916 c 0,17,18
 1500 916 1500 916 1534 964 c 0,19,20
 1562 1002 1562 1002 1562 1034 c 0,21,22
 1562 1096 1562 1096 1510 1148 c 128,-1,23
 1458 1200 1458 1200 1366 1200 c 0,24,25
 1276 1200 1276 1200 1202 1128 c 1,26,27
 1112 1050 1112 1050 1112 920 c 0,28,29
 1112 842 1112 842 1151 808 c 128,-1,30
 1190 774 1190 774 1194 740 c 0,31,32
 1194 708 1194 708 1165 684 c 128,-1,33
 1136 660 1136 660 1116 660 c 0,34,35
 1038 660 1038 660 990 746 c 0,36,37
 950 820 950 820 950 912 c 256,38,39
 950 1004 950 1004 980 1077 c 128,-1,40
 1010 1150 1010 1150 1078 1216 c 0,41,42
 1204 1348 1204 1348 1390 1348 c 0,43,44
 1538 1348 1538 1348 1628 1250 c 0,45,46
 1710 1162 1710 1162 1710 1052 c 0,0,1
1606 -140 m 2,47,48
 1606 -244 1606 -244 1518 -244 c 0,49,50
 1480 -244 1480 -244 1458 -226 c 0,51,52
 1434 -202 1434 -202 1434 -140 c 2,53,-1
 1434 354 l 1,54,-1
 1434 380 l 2,55,56
 1434 460 1434 460 1428 488 c 0,57,58
 1412 554 1412 554 1354 554 c 0,59,60
 1260 554 1260 554 1124 446 c 1,61,62
 1200 386 1200 386 1210 370 c 0,63,64
 1262 312 1262 312 1262 248 c 0,65,66
 1262 162 1262 162 1201 99 c 128,-1,67
 1140 36 1140 36 1052 36 c 0,68,69
 948 36 948 36 895 94 c 128,-1,70
 842 152 842 152 842 240 c 0,71,72
 842 288 842 288 882 380 c 1,73,-1
 704 380 l 1,74,75
 750 324 750 324 750 220 c 0,76,77
 750 132 750 132 686 74 c 0,78,79
 622 20 622 20 532 20 c 0,80,81
 456 20 456 20 398 74 c 0,82,83
 348 126 348 126 348 216 c 0,84,85
 348 308 348 308 430 398 c 1,86,-1
 392 402 l 1,87,88
 318 402 318 402 252 351 c 128,-1,89
 186 300 186 300 186 220 c 0,90,91
 186 178 186 178 233 151 c 128,-1,92
 280 124 280 124 280 84 c 0,93,94
 280 60 280 60 250 30 c 0,95,96
 236 16 236 16 228 12 c 0,97,98
 210 0 210 0 184 0 c 0,99,100
 134 0 134 0 81 63 c 128,-1,101
 28 126 28 126 28 198 c 0,102,103
 28 338 28 338 144 441 c 128,-1,104
 260 544 260 544 400 544 c 0,105,106
 518 544 518 544 588 490 c 1,107,108
 658 518 658 518 778 518 c 0,109,110
 852 518 852 518 885 515 c 128,-1,111
 918 512 918 512 984 500 c 1,112,113
 1012 534 1012 534 1051 565 c 128,-1,114
 1090 596 1090 596 1138 626 c 0,115,116
 1262 702 1262 702 1384 702 c 0,117,118
 1472 702 1472 702 1542 648 c 0,119,120
 1606 594 1606 594 1606 504 c 2,121,-1
 1606 -140 l 2,47,48
1100 240 m 0,122,123
 1100 268 1100 268 1076 292 c 1,124,-1
 1032 324 l 1,125,126
 998 254 998 254 994 220 c 1,127,128
 994 178 994 178 1050 178 c 0,129,130
 1100 178 1100 178 1100 240 c 0,122,123
620 232 m 0,131,132
 620 260 620 260 582 338 c 1,133,134
 540 326 540 326 512 286 c 0,135,136
 484 252 484 252 484 220 c 0,137,138
 484 148 484 148 532 148 c 0,139,140
 564 148 564 148 592 172 c 128,-1,141
 620 196 620 196 620 232 c 0,131,132
EndSplineSet
Ligature2: "'abvs' Above Base Substitutions lookup 6 subtable" tm_nna tm_iikaar
EndChar

StartChar: tm_t_iikaar
Encoding: 65569 -1 148
Width: 820
GlyphClass: 2
Flags: W
LayerCount: 2
Fore
SplineSet
722 1084 m 0,0,1
 722 966 722 966 642 883 c 128,-1,2
 562 800 562 800 450 800 c 0,3,4
 360 800 360 800 298 862 c 0,5,6
 248 914 248 914 248 982 c 0,7,8
 248 1012 248 1012 253 1030 c 128,-1,9
 258 1048 258 1048 274 1068 c 0,10,11
 302 1106 302 1106 350 1106 c 0,12,13
 424 1106 424 1106 424 1038 c 1,14,-1
 418 1006 l 1,15,-1
 414 982 l 1,16,17
 414 954 414 954 462 954 c 0,18,19
 508 954 508 954 544 1000 c 0,20,21
 566 1032 566 1032 570 1068 c 1,22,23
 570 1230 570 1230 380 1230 c 0,24,25
 294 1230 294 1230 218 1160 c 0,26,27
 134 1082 134 1082 134 954 c 0,28,29
 134 872 134 872 182 826 c 0,30,31
 228 786 228 786 228 754 c 0,32,33
 228 724 228 724 190 698 c 0,34,35
 170 682 170 682 140 678 c 1,36,37
 66 678 66 678 12 774 c 0,38,39
 -30 856 -30 856 -30 946 c 0,40,41
 -30 1120 -30 1120 95 1251 c 128,-1,42
 220 1382 220 1382 404 1382 c 0,43,44
 554 1382 554 1382 646 1282 c 0,45,46
 722 1194 722 1194 722 1084 c 0,0,1
792 138 m 0,47,48
 792 68 792 68 724 -178 c 0,49,50
 694 -296 694 -296 676 -396 c 128,-1,51
 658 -496 658 -496 658 -552 c 0,52,53
 658 -634 658 -634 644 -661 c 128,-1,54
 630 -688 630 -688 584 -688 c 0,55,56
 542 -688 542 -688 514 -659 c 128,-1,57
 486 -630 486 -630 486 -584 c 0,58,59
 486 -482 486 -482 553 -225 c 128,-1,60
 620 32 620 32 620 78 c 0,61,62
 620 116 620 116 615 136 c 128,-1,63
 610 156 610 156 594 184 c 0,64,65
 574 230 574 230 530 230 c 1,66,67
 508 150 508 150 410 80 c 128,-1,68
 312 10 312 10 192 10 c 0,69,70
 28 10 28 10 28 128 c 0,71,72
 28 262 28 262 160 346 c 1,73,74
 268 408 268 408 392 408 c 1,75,-1
 428 406 l 1,76,-1
 432 446 l 1,77,78
 432 504 432 504 416 550 c 0,79,80
 400 608 400 608 370 608 c 0,81,82
 350 608 350 608 299 532 c 128,-1,83
 248 456 248 456 184 456 c 0,84,85
 134 456 134 456 134 530 c 0,86,87
 134 596 134 596 200 664 c 0,88,89
 274 744 274 744 350 744 c 0,90,91
 454 744 454 744 516 652 c 0,92,93
 572 572 572 572 572 450 c 1,94,-1
 566 384 l 1,95,96
 666 364 666 364 724 304 c 0,97,98
 792 238 792 238 792 138 c 0,47,48
384 284 m 1,99,100
 330 284 330 284 247 237 c 128,-1,101
 164 190 164 190 164 156 c 0,102,103
 164 134 164 134 204 134 c 0,104,105
 240 134 240 134 300 180 c 128,-1,106
 360 226 360 226 384 284 c 1,99,100
EndSplineSet
Ligature2: "'abvs' Above Base Substitutions lookup 6 subtable" tm_ta tm_iikaar
EndChar

StartChar: tm_n_iikaar
Encoding: 65570 -1 149
Width: 924
GlyphClass: 2
Flags: W
LayerCount: 2
Fore
SplineSet
752 1186 m 0,0,1
 752 1064 752 1064 673 983 c 128,-1,2
 594 902 594 902 476 902 c 0,3,4
 408 902 408 902 354 950 c 0,5,6
 324 978 324 978 308 1007 c 128,-1,7
 292 1036 292 1036 292 1076 c 0,8,9
 292 1120 292 1120 316 1156 c 1,10,11
 344 1190 344 1190 392 1190 c 0,12,13
 464 1190 464 1190 464 1122 c 1,14,-1
 460 1102 l 1,15,-1
 458 1082 l 2,16,17
 458 1054 458 1054 494 1054 c 0,18,19
 544 1054 544 1054 578 1088 c 1,20,21
 606 1126 606 1126 606 1168 c 0,22,23
 606 1304 606 1304 430 1304 c 0,24,25
 340 1304 340 1304 270 1250 c 0,26,27
 228 1216 228 1216 206 1169 c 128,-1,28
 184 1122 184 1122 184 1058 c 0,29,30
 184 974 184 974 216 930 c 0,31,32
 218 926 218 926 274 882 c 0,33,34
 304 856 304 856 304 816 c 0,35,36
 304 794 304 794 272 762 c 1,37,38
 242 738 242 738 224 736 c 0,39,40
 134 736 134 736 72 846 c 0,41,42
 22 940 22 940 22 1036 c 0,43,44
 22 1200 22 1200 141 1331 c 128,-1,45
 260 1462 260 1462 442 1462 c 0,46,47
 584 1462 584 1462 668 1376 c 128,-1,48
 752 1290 752 1290 752 1186 c 0,0,1
896 20 m 0,49,50
 896 -94 896 -94 868 -244 c 1,51,-1
 812 -482 l 2,52,53
 790 -576 790 -576 780 -612 c 0,54,55
 764 -668 764 -668 750 -700 c 0,56,57
 708 -802 708 -802 646 -802 c 0,58,59
 582 -802 582 -802 582 -694 c 0,60,61
 582 -676 582 -676 660 -404 c 128,-1,62
 738 -132 738 -132 738 -20 c 0,63,64
 738 100 738 100 694 100 c 0,65,66
 666 100 666 100 605 53 c 128,-1,67
 544 6 544 6 504 6 c 0,68,69
 478 6 478 6 450 28 c 1,70,71
 426 52 426 52 424 80 c 2,72,-1
 432 198 l 1,73,-1
 440 330 l 1,74,75
 440 556 440 556 402 556 c 0,76,77
 392 556 392 556 334 454 c 0,78,79
 308 404 308 404 286 358 c 128,-1,80
 264 312 264 312 250 276 c 0,81,82
 230 226 230 226 216 144 c 128,-1,83
 202 62 202 62 186 30 c 0,84,85
 168 -14 168 -14 122 -14 c 0,86,87
 28 -14 28 -14 28 90 c 0,88,89
 28 220 28 220 158 498 c 0,90,91
 300 800 300 800 412 800 c 0,92,93
 596 800 596 800 596 350 c 2,94,-1
 596 304 l 2,95,96
 596 280 596 280 596 256 c 1,97,98
 592 234 592 234 592 226 c 1,99,100
 664 262 664 262 704 262 c 0,101,102
 786 262 786 262 841 195 c 128,-1,103
 896 128 896 128 896 20 c 0,49,50
EndSplineSet
Ligature2: "'abvs' Above Base Substitutions lookup 6 subtable" tm_na tm_iikaar
EndChar

StartChar: tm_nnn_iikaar
Encoding: 65571 -1 150
Width: 1110
GlyphClass: 2
Flags: W
LayerCount: 2
Fore
SplineSet
1102 1084 m 0,0,1
 1102 946 1102 946 1016 874 c 0,2,3
 940 810 940 810 832 810 c 0,4,5
 798 810 798 810 773 819 c 128,-1,6
 748 828 748 828 716 852 c 0,7,8
 650 906 650 906 650 976 c 0,9,10
 650 1092 650 1092 752 1092 c 0,11,12
 816 1092 816 1092 816 1028 c 1,13,-1
 814 1008 l 1,14,-1
 812 984 l 2,15,16
 812 956 812 956 848 956 c 0,17,18
 892 956 892 956 920 984 c 0,19,20
 958 1016 958 1016 958 1074 c 0,21,22
 958 1220 958 1220 786 1220 c 0,23,24
 684 1220 684 1220 611 1147 c 128,-1,25
 538 1074 538 1074 538 954 c 0,26,27
 538 872 538 872 568 830 c 0,28,29
 576 820 576 820 626 784 c 0,30,31
 656 760 656 760 656 724 c 0,32,33
 656 700 656 700 630 674 c 0,34,35
 608 648 608 648 574 644 c 1,36,37
 500 644 500 644 439 732 c 128,-1,38
 378 820 378 820 378 942 c 0,39,40
 378 1110 378 1110 496 1236 c 0,41,42
 622 1372 622 1372 804 1372 c 0,43,44
 944 1372 944 1372 1032 1270 c 0,45,46
 1102 1184 1102 1184 1102 1084 c 0,0,1
1082 -62 m 1,47,48
 1082 -230 1082 -230 994 -230 c 0,49,50
 928 -230 928 -230 908 -184 c 0,51,52
 896 -156 896 -156 896 -92 c 2,53,-1
 898 42 l 1,54,-1
 902 206 l 1,55,56
 902 550 902 550 822 550 c 0,57,58
 802 550 802 550 716 506 c 0,59,60
 640 464 640 464 620 442 c 1,61,62
 672 402 672 402 698 354 c 128,-1,63
 724 306 724 306 724 242 c 0,64,65
 724 156 724 156 638 94 c 0,66,67
 568 46 568 46 528 46 c 0,68,69
 304 46 304 46 304 272 c 0,70,71
 304 338 304 338 316 372 c 1,72,73
 264 372 264 372 224 330 c 0,74,75
 190 290 190 290 190 236 c 0,76,77
 190 206 190 206 224 160 c 0,78,79
 258 120 258 120 258 84 c 0,80,81
 258 50 258 50 234 20 c 1,82,83
 206 -4 206 -4 176 -4 c 0,84,85
 108 -4 108 -4 66 50 c 128,-1,86
 24 104 24 104 24 196 c 0,87,88
 24 346 24 346 128 442 c 0,89,90
 220 524 220 524 342 524 c 0,91,92
 394 524 394 524 442 506 c 1,93,94
 482 560 482 560 610 628 c 0,95,96
 764 712 764 712 890 712 c 0,97,98
 994 712 994 712 1032 584 c 0,99,100
 1048 534 1048 534 1058 464 c 128,-1,101
 1068 394 1068 394 1068 304 c 2,102,-1
 1082 -62 l 1,47,48
572 260 m 0,103,104
 572 282 572 282 546 314 c 0,105,106
 520 340 520 340 494 346 c 1,107,108
 482 342 482 342 466 312 c 128,-1,109
 450 282 450 282 450 250 c 0,110,111
 450 182 450 182 500 182 c 0,112,113
 572 182 572 182 572 260 c 0,103,104
EndSplineSet
Ligature2: "'abvs' Above Base Substitutions lookup 6 subtable" tm_nnna tm_iikaar
EndChar

StartChar: tm_p_iikaar
Encoding: 65572 -1 151
Width: 858
GlyphClass: 2
Flags: W
LayerCount: 2
Fore
SplineSet
916 1208 m 0,0,1
 916 1084 916 1084 839 1012 c 128,-1,2
 762 940 762 940 654 940 c 0,3,4
 596 940 596 940 542 980 c 1,5,6
 474 1024 474 1024 474 1096 c 0,7,8
 474 1138 474 1138 498 1178 c 0,9,10
 524 1214 524 1214 568 1214 c 0,11,12
 640 1214 640 1214 640 1142 c 1,13,-1
 636 1122 l 1,14,-1
 634 1106 l 2,15,16
 634 1088 634 1088 666 1086 c 0,17,18
 702 1086 702 1086 736 1116 c 0,19,20
 746 1126 746 1126 757 1144 c 128,-1,21
 768 1162 768 1162 768 1188 c 0,22,23
 768 1308 768 1308 602 1308 c 0,24,25
 512 1308 512 1308 448 1262 c 0,26,27
 366 1202 366 1202 366 1078 c 0,28,29
 366 992 366 992 404 948 c 0,30,31
 416 928 416 928 472 894 c 0,32,33
 510 872 510 872 510 836 c 0,34,35
 510 806 510 806 484 780 c 128,-1,36
 458 754 458 754 430 752 c 0,37,38
 328 752 328 752 260 864 c 0,39,40
 206 958 206 958 206 1056 c 0,41,42
 206 1222 206 1222 316 1340 c 0,43,44
 438 1466 438 1466 616 1466 c 0,45,46
 754 1466 754 1466 842 1378 c 1,47,48
 916 1298 916 1298 916 1208 c 0,0,1
830 274 m 0,49,50
 830 84 830 84 708 30 c 0,51,52
 632 0 632 0 426 0 c 0,53,54
 260 0 260 0 136 68 c 0,55,56
 28 128 28 128 28 182 c 0,57,58
 28 270 28 270 108 516 c 0,59,60
 174 730 174 730 240 730 c 0,61,62
 278 730 278 730 308 702 c 128,-1,63
 338 674 338 674 338 640 c 0,64,65
 338 632 338 632 274 469 c 128,-1,66
 210 306 210 306 210 236 c 0,67,68
 210 206 210 206 297 183 c 128,-1,69
 384 160 384 160 474 160 c 0,70,71
 666 160 666 160 666 280 c 0,72,73
 666 388 666 388 592 563 c 128,-1,74
 518 738 518 738 518 750 c 0,75,76
 518 792 518 792 541 829 c 128,-1,77
 564 866 564 866 602 866 c 0,78,79
 658 866 658 866 688 810 c 1,80,-1
 740 670 l 2,81,82
 830 424 830 424 830 274 c 0,49,50
EndSplineSet
Ligature2: "'abvs' Above Base Substitutions lookup 6 subtable" tm_pa tm_iikaar
EndChar

StartChar: tm_m_iikaar
Encoding: 65573 -1 152
Width: 948
GlyphClass: 2
Flags: W
LayerCount: 2
Fore
SplineSet
972 1142 m 0,0,1
 972 1016 972 1016 888 934 c 0,2,3
 846 894 846 894 800 873 c 128,-1,4
 754 852 754 852 700 852 c 0,5,6
 638 852 638 852 582 896 c 1,7,8
 508 946 508 946 508 1034 c 0,9,10
 508 1078 508 1078 534 1117 c 128,-1,11
 560 1156 560 1156 610 1156 c 0,12,13
 684 1156 684 1156 684 1084 c 1,14,-1
 676 1058 l 1,15,-1
 670 1032 l 1,16,17
 670 1010 670 1010 708 1010 c 0,18,19
 736 1010 736 1010 750 1014 c 128,-1,20
 764 1018 764 1018 784 1036 c 0,21,22
 822 1066 822 1066 822 1128 c 0,23,24
 822 1194 822 1194 782 1236 c 0,25,26
 734 1284 734 1284 642 1284 c 0,27,28
 552 1284 552 1284 482 1216 c 0,29,30
 396 1136 396 1136 396 990 c 0,31,32
 396 916 396 916 449 875 c 128,-1,33
 502 834 502 834 502 794 c 0,34,35
 502 764 502 764 479 740 c 128,-1,36
 456 716 456 716 424 712 c 1,37,38
 338 712 338 712 280 812 c 0,39,40
 230 900 230 900 230 990 c 0,41,42
 230 1160 230 1160 346 1294 c 0,43,44
 474 1440 474 1440 676 1440 c 0,45,46
 820 1440 820 1440 904 1330 c 1,47,48
 972 1248 972 1248 972 1142 c 0,0,1
918 402 m 256,49,50
 918 254 918 254 804 132 c 0,51,52
 676 0 676 0 488 0 c 0,53,54
 256 0 256 0 136 168 c 0,55,56
 28 316 28 316 28 546 c 0,57,58
 28 724 28 724 150 724 c 0,59,60
 222 724 222 724 222 656 c 0,61,62
 222 632 222 632 210 584 c 2,63,-1
 198 536 l 1,64,65
 198 432 198 432 256 310 c 0,66,67
 336 140 336 140 470 140 c 0,68,69
 588 140 588 140 672 223 c 128,-1,70
 756 306 756 306 756 422 c 0,71,72
 756 580 756 580 646 580 c 0,73,74
 604 580 604 580 564 546 c 1,75,76
 530 510 530 510 528 478 c 0,77,78
 528 444 528 444 552 414 c 128,-1,79
 576 384 576 384 578 358 c 0,80,81
 578 324 578 324 556 300 c 128,-1,82
 534 276 534 276 498 272 c 1,83,84
 432 272 432 272 388 342 c 0,85,86
 350 408 350 408 350 484 c 0,87,88
 350 570 350 570 435 663 c 128,-1,89
 520 756 520 756 626 756 c 0,90,91
 756 756 756 756 837 653 c 128,-1,92
 918 550 918 550 918 402 c 256,49,50
EndSplineSet
Ligature2: "'abvs' Above Base Substitutions lookup 6 subtable" tm_ma tm_iikaar
EndChar

StartChar: tm_y_iikaar
Encoding: 65574 -1 153
Width: 982
GlyphClass: 2
Flags: W
LayerCount: 2
Fore
SplineSet
924 1098 m 0,0,1
 924 976 924 976 851 900 c 128,-1,2
 778 824 778 824 688 824 c 0,3,4
 636 824 636 824 578 860 c 1,5,6
 514 906 514 906 514 976 c 0,7,8
 514 1072 514 1072 600 1072 c 0,9,10
 648 1072 648 1072 664 1026 c 0,11,12
 676 982 676 982 690 982 c 0,13,14
 726 982 726 982 752 1013 c 128,-1,15
 778 1044 778 1044 778 1086 c 0,16,17
 778 1138 778 1138 732 1184 c 1,18,19
 686 1224 686 1224 630 1224 c 0,20,21
 550 1224 550 1224 484 1156 c 0,22,23
 410 1084 410 1084 410 966 c 0,24,25
 410 928 410 928 418 899 c 128,-1,26
 426 870 426 870 452 828 c 0,27,28
 468 802 468 802 478 790 c 0,29,30
 500 764 500 764 522 750 c 1,31,-1
 606 730 l 2,32,33
 660 718 660 718 660 668 c 0,34,35
 660 570 660 570 562 570 c 0,36,37
 450 570 450 570 358 680 c 0,38,39
 258 798 258 798 258 966 c 0,40,41
 258 1124 258 1124 367 1253 c 128,-1,42
 476 1382 476 1382 624 1382 c 0,43,44
 748 1382 748 1382 842 1280 c 0,45,46
 924 1188 924 1188 924 1098 c 0,0,1
952 276 m 0,47,48
 952 218 952 218 946 173 c 128,-1,49
 940 128 940 128 924 84 c 0,50,51
 890 -10 890 -10 822 -10 c 0,52,53
 770 -10 770 -10 662 69 c 128,-1,54
 554 148 554 148 510 148 c 0,55,56
 456 148 456 148 355 65 c 128,-1,57
 254 -18 254 -18 142 -18 c 0,58,59
 28 -18 28 -18 28 132 c 0,60,61
 28 220 28 220 84 370 c 0,62,63
 148 550 148 550 218 550 c 0,64,65
 318 550 318 550 318 472 c 0,66,67
 318 456 318 456 313 437 c 128,-1,68
 308 418 308 418 298 402 c 2,69,-1
 254 324 l 1,70,71
 246 286 246 286 233 245 c 128,-1,72
 220 204 220 204 210 168 c 1,73,-1
 220 166 l 1,74,75
 252 166 252 166 360 257 c 128,-1,76
 468 348 468 348 508 348 c 0,77,78
 560 348 560 348 650 268 c 0,79,80
 734 194 734 194 762 190 c 0,81,82
 788 190 788 190 788 274 c 0,83,84
 788 320 788 320 778 369 c 128,-1,85
 768 418 768 418 742 490 c 0,86,87
 694 634 694 634 694 666 c 256,88,89
 694 698 694 698 715 726 c 128,-1,90
 736 754 736 754 774 754 c 0,91,92
 828 754 828 754 854 708 c 0,93,94
 870 682 870 682 894 594 c 0,95,96
 952 384 952 384 952 276 c 0,47,48
EndSplineSet
Ligature2: "'abvs' Above Base Substitutions lookup 6 subtable" tm_ya tm_iikaar
EndChar

StartChar: tm_r_iikaar
Encoding: 65575 -1 154
Width: 732
GlyphClass: 2
Flags: W
LayerCount: 2
Fore
SplineSet
750 52 m 0,0,1
 750 -4 750 -4 484 -198 c 0,2,3
 258 -364 258 -364 210 -364 c 0,4,5
 182 -364 182 -364 150 -344 c 0,6,7
 122 -322 122 -322 122 -300 c 0,8,9
 122 -232 122 -232 336 -88 c 0,10,11
 474 5 474 5 523 63 c 1,12,13
 514 87 514 87 514 171.5 c 128,-1,14
 514 256 514 256 498 387 c 1,15,16
 469 478 469 478 446 480 c 0,17,18
 394 480 394 480 304 286 c 1,19,-1
 265 196 l 1,20,-1
 234 120 l 2,21,22
 229 111 229 111 225 103 c 2,23,-1
 220 92 l 1,24,25
 172 -2 172 -2 108 -2 c 0,26,27
 78 -2 78 -2 50 22 c 0,28,29
 44 30 44 30 34 49 c 0,30,31
 25 65 25 65 24 87 c 0,32,33
 22 92 22 92 22 98 c 0,34,35
 22 103 22 103 25 116 c 0,36,37
 36 186 36 186 115 333 c 0,38,39
 146 399 146 399 176 452 c 0,40,41
 216 524 216 524 264 588 c 0,42,43
 304 642 304 642 341 678 c 0,44,45
 387 725 387 725 426 738 c 0,46,47
 453 750 453 750 478 750 c 0,48,49
 520 750 520 750 572 684 c 0,50,51
 616 624 616 624 650 520 c 0,52,53
 659 489 659 489 669 426 c 1,54,55
 750 142 750 142 750 52 c 0,0,1
756 1156 m 0,56,57
 756 1032 756 1032 675 953 c 128,-1,58
 594 874 594 874 492 874 c 0,59,60
 458 874 458 874 434 883 c 128,-1,61
 410 892 410 892 380 916 c 0,62,63
 312 966 312 966 312 1040 c 0,64,65
 312 1064 312 1064 316 1079 c 128,-1,66
 320 1094 320 1094 336 1116 c 0,67,68
 360 1150 360 1150 410 1150 c 0,69,70
 454 1150 454 1150 468 1118 c 0,71,72
 470 1114 470 1114 473 1093 c 128,-1,73
 476 1072 476 1072 478 1056 c 0,74,75
 478 1028 478 1028 496 1024 c 1,76,77
 544 1024 544 1024 580 1064 c 0,78,79
 606 1096 606 1096 606 1144 c 0,80,81
 606 1214 606 1214 558 1251 c 128,-1,82
 510 1288 510 1288 444 1288 c 0,83,84
 340 1288 340 1288 274 1214 c 128,-1,85
 208 1140 208 1140 208 1018 c 0,86,87
 208 926 208 926 248 878 c 0,88,89
 254 870 254 870 275 854 c 128,-1,90
 296 838 296 838 320 822 c 0,91,92
 338 812 338 812 349 795 c 128,-1,93
 360 778 360 778 360 760 c 0,94,95
 360 736 360 736 333 706 c 128,-1,96
 306 676 306 676 282 676 c 0,97,98
 208 676 208 676 130 760 c 0,99,100
 44 858 44 858 44 1010 c 0,101,102
 44 1172 44 1172 160 1306 c 1,103,104
 288 1446 288 1446 458 1446 c 0,105,106
 592 1446 592 1446 684 1342 c 1,107,108
 756 1254 756 1254 756 1156 c 0,56,57
EndSplineSet
Ligature2: "'abvs' Above Base Substitutions lookup 5 subtable" tm_ra tm_iikaar
EndChar

StartChar: tm_rr_iikaar
Encoding: 65576 -1 155
Width: 1060
GlyphClass: 2
Flags: W
LayerCount: 2
Fore
SplineSet
1050 1118 m 0,0,1
 1050 988 1050 988 960 906 c 0,2,3
 886 836 886 836 778 836 c 0,4,5
 718 836 718 836 658 884 c 0,6,7
 592 940 592 940 592 1012 c 0,8,9
 592 1056 592 1056 618 1095 c 128,-1,10
 644 1134 644 1134 696 1134 c 0,11,12
 764 1134 764 1134 764 1064 c 1,13,14
 758 1044 758 1044 754 1036 c 2,15,-1
 748 1008 l 1,16,17
 748 986 748 986 788 986 c 0,18,19
 830 986 830 986 868 1018 c 128,-1,20
 906 1050 906 1050 906 1108 c 0,21,22
 906 1180 906 1180 850 1224 c 0,23,24
 802 1260 802 1260 730 1260 c 0,25,26
 630 1260 630 1260 556 1186 c 128,-1,27
 482 1112 482 1112 482 990 c 0,28,29
 482 914 482 914 506 882 c 1,30,-1
 552 846 l 2,31,32
 562 838 562 838 570 823 c 128,-1,33
 578 808 578 808 578 790 c 0,34,35
 578 762 578 762 552 736 c 0,36,37
 534 716 534 716 498 712 c 1,38,39
 436 712 436 712 384 782 c 0,40,41
 354 822 354 822 339 870 c 128,-1,42
 324 918 324 918 324 978 c 0,43,44
 324 1144 324 1144 444 1278 c 128,-1,45
 564 1412 564 1412 746 1412 c 0,46,47
 886 1412 886 1412 976 1316 c 0,48,49
 1050 1232 1050 1232 1050 1118 c 0,0,1
1032 482 m 0,50,51
 1032 402 1032 402 964 200 c 128,-1,52
 896 -2 896 -2 810 -184 c 1,53,-1
 718 -418 l 2,54,55
 678 -520 678 -520 632 -520 c 0,56,57
 582 -520 582 -520 553 -498 c 128,-1,58
 524 -476 524 -476 524 -448 c 0,59,60
 524 -430 524 -430 544 -373 c 128,-1,61
 564 -316 564 -316 608 -216 c 2,62,-1
 772 176 l 2,63,64
 816 290 816 290 838 359 c 128,-1,65
 860 428 860 428 860 462 c 0,66,67
 860 582 860 582 728 582 c 0,68,69
 662 582 662 582 616 522 c 0,70,71
 578 466 578 466 578 370 c 1,72,-1
 580 328 l 1,73,-1
 582 286 l 2,74,75
 582 204 582 204 506 204 c 0,76,77
 454 204 454 204 410 284 c 1,78,79
 370 366 370 366 300 366 c 0,80,81
 210 366 210 366 210 256 c 0,82,83
 210 230 210 230 214 212 c 128,-1,84
 218 194 218 194 234 164 c 0,85,86
 242 146 242 146 249 119 c 128,-1,87
 256 92 256 92 258 80 c 0,88,89
 258 48 258 48 232 20 c 0,90,91
 208 -2 208 -2 176 -4 c 0,92,93
 98 -4 98 -4 56 84 c 0,94,95
 24 154 24 154 24 260 c 0,96,97
 24 358 24 358 100 449 c 128,-1,98
 176 540 176 540 260 540 c 0,99,100
 362 540 362 540 426 492 c 1,101,102
 444 586 444 586 518 662 c 0,103,104
 610 760 610 760 724 760 c 0,105,106
 884 760 884 760 968 650 c 0,107,108
 1000 606 1000 606 1016 567 c 128,-1,109
 1032 528 1032 528 1032 482 c 0,50,51
EndSplineSet
Ligature2: "'abvs' Above Base Substitutions lookup 6 subtable" tm_rra tm_iikaar
EndChar

